<svg xmlns="http://www.w3.org/2000/svg" xmlns:xlink="http://www.w3.org/1999/xlink" width="31.11" height="17.8" viewBox="0 0 31.11 17.8">
  <defs>
    <clipPath id="clip-path">
      <rect id="長方形_3208" data-name="長方形 3208" width="31.11" height="17.8" fill="none"/>
    </clipPath>
  </defs>
  <g id="icon_free_dial" transform="translate(0 0)">
    <path id="パス_945" data-name="パス 945" d="M0,0H26.936V17.579H0Z" transform="translate(0 0)" fill="#d6000f"/>
    <g id="グループ_308" data-name="グループ 308" transform="translate(0 0)">
      <g id="グループ_307" data-name="グループ 307" transform="translate(0 0)" clip-path="url(#clip-path)">
        <path id="パス_942" data-name="パス 942" d="M124.379,66.39a1.683,1.683,0,1,0,1.682-1.683,1.685,1.685,0,0,0-1.682,1.683m.195,0a1.488,1.488,0,1,1,1.487,1.487,1.49,1.49,0,0,1-1.487-1.487" transform="translate(-96.635 -50.274)" fill="#d6000f"/>
        <path id="パス_943" data-name="パス 943" d="M130.294,69.388h-.323l-.653-1.011h-.287v1.011h-.259V67.164h.63a.754.754,0,0,1,.5.153.526.526,0,0,1,.184.428.547.547,0,0,1-.134.362.689.689,0,0,1-.369.215Zm-1.263-1.236h.326a.492.492,0,0,0,.334-.111.359.359,0,0,0,.127-.28q0-.372-.454-.372h-.333Z" transform="translate(-100.048 -52.183)" fill="#d6000f"/>
        <path id="パス_944" data-name="パス 944" d="M6.771,23.164A3.335,3.335,0,0,1,3.459,19.7c0-1.808,1.791-3.253,3.312-4.117,1.52.864,3.311,2.309,3.311,4.117a3.334,3.334,0,0,1-3.311,3.459m10.148-3.5c0-1.809,1.79-3.254,3.311-4.118,1.521.864,3.311,2.309,3.311,4.118a3.314,3.314,0,1,1-6.622,0m10.015-7.4A15.179,15.179,0,0,0,20.126,13.8a14.5,14.5,0,0,0-6.658-1.538A14.5,14.5,0,0,0,6.809,13.8,15.16,15.16,0,0,0,0,12.264V13.8a13.606,13.606,0,0,1,5.121.972c-1.664,1.113-3.311,2.8-3.311,4.928a5.034,5.034,0,0,0,4.994,4.963A4.935,4.935,0,0,0,11.686,19.7c0-2.129-1.529-3.815-3.194-4.928a12.875,12.875,0,0,1,4.975-.972,12.873,12.873,0,0,1,4.975.972c-1.664,1.113-3.194,2.8-3.194,4.928a4.935,4.935,0,0,0,4.877,4.963A5,5,0,0,0,25.083,19.7c0-2.129-1.609-3.815-3.274-4.928a13.629,13.629,0,0,1,5.126-.972Z" transform="translate(-0.003 -9.528)" fill="#fff"/>
      </g>
    </g>
  </g>
</svg>
