<?xml version="1.0" encoding="utf-8"?>
<!-- Generator: Adobe Illustrator 26.5.0, SVG Export Plug-In . SVG Version: 6.00 Build 0)  -->
<svg version="1.1" id="レイヤー_1" xmlns="http://www.w3.org/2000/svg" xmlns:xlink="http://www.w3.org/1999/xlink" x="0px"
	 y="0px" viewBox="0 0 25 25" style="enable-background:new 0 0 25 25;" xml:space="preserve">
<style type="text/css">
	.st0{fill:#1877F2;}
	.st1{fill:#FFFFFF;}
</style>
<g>
	<path class="st0" d="M25,12.5C25,5.6,19.4,0,12.5,0S0,5.6,0,12.5c0,6.2,4.6,11.4,10.5,12.3v-8.7H7.4v-3.6h3.2V9.7
		c0-3.1,1.9-4.9,4.7-4.9c1.4,0,2.8,0.2,2.8,0.2v3.1h-1.6c-1.6,0-2,1-2,2v2.3h3.5l-0.6,3.6h-2.9v8.7C20.4,23.9,25,18.7,25,12.5z"/>
	<path class="st1" d="M17.4,16.1l0.6-3.6h-3.5v-2.3c0-1,0.5-2,2-2h1.6V5.1c0,0-1.4-0.2-2.8-0.2c-2.9,0-4.7,1.7-4.7,4.9v2.8H7.4v3.6
		h3.2v8.7c0.6,0.1,1.3,0.2,2,0.2s1.3-0.1,2-0.2v-8.7H17.4z"/>
</g>
</svg>
