<?xml version="1.0" encoding="utf-8"?>
<!-- Generator: Adobe Illustrator 26.5.0, SVG Export Plug-In . SVG Version: 6.00 Build 0)  -->
<svg version="1.1" id="レイヤー_1" xmlns="http://www.w3.org/2000/svg" xmlns:xlink="http://www.w3.org/1999/xlink" x="0px"
	 y="0px" viewBox="0 0 25 25" style="enable-background:new 0 0 25 25;" xml:space="preserve">
<style type="text/css">
	.st0{fill:#1D9BF0;}
</style>
<path class="st0" d="M22.4,7.5c0,0.2,0,0.4,0,0.7c0,6.7-5.2,14.4-14.6,14.4v0c-2.8,0-5.5-0.8-7.9-2.3c0.4,0,0.8,0.1,1.2,0.1
	c2.3,0,4.6-0.8,6.4-2.2c-2.2,0-4.1-1.4-4.8-3.5c0.8,0.1,1.6,0.1,2.3-0.1C2.7,14.1,1,12,1,9.6V9.5c0.7,0.4,1.5,0.6,2.3,0.6
	C1.1,8.7,0.4,5.7,1.7,3.4c2.6,3.2,6.4,5.1,10.6,5.3c-0.4-1.8,0.2-3.6,1.5-4.8c2.1-1.9,5.3-1.8,7.3,0.2c1.1-0.2,2.2-0.6,3.3-1.2
	C23.9,4,23.1,5,22.1,5.7c1-0.1,2-0.4,2.9-0.8C24.3,5.9,23.4,6.8,22.4,7.5L22.4,7.5z"/>
</svg>
