<svg id="kaeru01" xmlns="http://www.w3.org/2000/svg" xmlns:xlink="http://www.w3.org/1999/xlink" width="219.401" height="142.425" viewBox="0 0 219.401 142.425">
  <defs>
    <clipPath id="clip-path">
      <rect id="長方形_3770" data-name="長方形 3770" width="219.401" height="142.425" fill="none"/>
    </clipPath>
    <clipPath id="clip-path-2">
      <path id="パス_5826" data-name="パス 5826" d="M193.676,137.239c6.3-3.962,6.266-4.017,6.017-4.45a.437.437,0,0,0-.26-.195c-.307-.079-.975.225-5.563,2.981,2.2-1.51,2.11-1.663,1.937-1.963a.423.423,0,0,0-.253-.191c-.085-.021-.152-.04-.394.061a.411.411,0,0,0-.219-.147c-.145-.038-.224-.059-1.649.747.066-.127.017-.211-.048-.324a.428.428,0,0,0-.256-.193c-.263-.066-.51.009-4.18,2.238,1.892-1.338,1.838-1.431,1.668-1.727a.406.406,0,0,0-.247-.187c-.205-.052-.215-.053-2.583,1.4.157-.176.105-.264.018-.415a.4.4,0,0,0-.245-.187c-.181-.048-.21-.053-1.515.725-.132-.013-.243.059-.815.432L185,135.9c-.037.023-.075.044-.113.067-.485.284-.809.472-1.016.617a.413.413,0,0,0-.339.594l.013.022c-2.889,1.965-2.852,2.029-2.637,2.4a.444.444,0,0,0,.262.2c.13.033.3.011.8-.235-1.89,1.32-1.849,1.389-1.684,1.676a.437.437,0,0,0,.259.195.4.4,0,0,0,.135.01c-.191.2-.178.3-.114.426-.9.553-.954.675-.774.988a.419.419,0,0,0,.252.19c.261.067.35.092,5.755-3.153l-.559.358c-5.491,3.52-5.491,3.52-5.262,3.916a.435.435,0,0,0,.259.195c.23.059.672-.1,2.876-1.388-2.066,1.352-2.471,1.73-2.46,1.983-.176.135-.192.191-.212.266a.412.412,0,0,0,.039.308.431.431,0,0,0,.256.193l.023.006a.305.305,0,0,0-.035.436.441.441,0,0,0,.26.2c.4.1,1.424-.444,10.624-6.039,1.954-1.188,4.105-2.5,6-3.63-2.782,1.791-6.2,3.918-8.734,5.5-6.932,4.315-6.932,4.315-6.687,4.74a.427.427,0,0,0,.253.192c.139.036.33.01,1.233-.467-.293.275-.231.382-.141.539a.537.537,0,0,0,.29.215,1.717,1.717,0,0,0,.885-.216.639.639,0,0,0,.063.129.531.531,0,0,0,.286.212,2.429,2.429,0,0,0,1.235-.371c-.347.312-.28.428-.178.6a.419.419,0,0,0,.25.189.326.326,0,0,0,.181,0c-.224.212-.17.3-.09.445a.448.448,0,0,0,.261.2.49.49,0,0,0,.26-.016.471.471,0,0,0,.161.08c.482.121,2.18-.788,6.984-3.732-2.964,1.879-4.249,2.725-4.77,3.17-.589.392-.747.568-.785.7a.439.439,0,0,0,.04.323.425.425,0,0,0,.256.193c.342.087.812-.12,10-5.716l1.16-.705c.293-.163.585-.325.871-.486,1.351-.751,2.541-1.415,3.591-2-2.765,1.733-5.749,3.56-7.941,4.9-6.152,3.767-6.152,3.767-5.92,4.17a.491.491,0,0,0,.275.206c.214.055.786-.151,1.924-.736a2.072,2.072,0,0,0-.611.632c-.227.16-.243.219-.266.3a.408.408,0,0,0,.039.308.427.427,0,0,0,.255.193c.184.048.4.011,1.984-.892a.327.327,0,0,0,.047.364.4.4,0,0,0,.247.187c.233.059.234.06,4.524-2.574,2.126-1.3,5.205-3.193,7.79-4.718-2.265,1.429-4.922,3.054-6.786,4.191-4.757,2.907-4.757,2.907-4.532,3.3a.393.393,0,0,0,.063.081.374.374,0,0,0-.034.508.4.4,0,0,0,.244.186c.167.043.212.061,2.1-1.051-.241.265-.175.38-.085.536a.411.411,0,0,0,.25.189c.25.063.265.066,4.577-2.593,1.158-.715,2.6-1.6,4-2.452l-1.273.839c-5.988,3.946-5.972,3.973-5.705,4.436a.471.471,0,0,0,.269.2c.36.09,1.122-.283,5.682-3.094-3.308,2.33-3.285,2.369-3.062,2.756a.425.425,0,0,0,.258.193c.275.068.464,0,4.247-2.353l.761-.474-.315.247c-2.077,1.613-2.077,1.613-1.89,1.938a.4.4,0,0,0,.249.188c.228.058.225.059,2.455-1.317.371-.229.821-.507,1.274-.782-1.884,1.818-1.881,1.823-1.7,2.146a.4.4,0,0,0,.248.187c.186.046.189.044,1.374-.689.613-.38,1.617-1,2.2-1.328,0,.061,0,.12.006.174.012.367.012.367.063.456a.4.4,0,0,0,.254.189c.193.045.3-.021.713-.3l.07-.046a.318.318,0,0,0,.04.1.4.4,0,0,0,.246.186.366.366,0,0,0,.2,0,.394.394,0,0,0,.243.184.48.48,0,0,0,.327-.057l0,0-.19-.337.014-.008.33-.076-.049-.239c-.039-.2-.04-.2-.073-.258a.4.4,0,0,0-.244-.185.363.363,0,0,0-.183-.006.3.3,0,0,0-.041-.1.411.411,0,0,0-.258-.193c-.185-.044-.323.027-.686.261-.015-.43-.025-.446-.072-.529a.427.427,0,0,0-.256-.193c-.169-.043-.256-.059-1.378.6,1.48-1.433,1.462-1.464,1.29-1.763a.426.426,0,0,0-.258-.193c-.147-.037-.276-.033-.926.325,1.181-.97,1.126-1.064.974-1.328a.448.448,0,0,0-.265-.2c-.2-.05-.458.023-1.531.644,2.546-1.825,2.49-1.921,2.292-2.265a.429.429,0,0,0-.258-.194c-.231-.058-.423-.016-2.8,1.427,3.169-2.136,3.1-2.253,2.888-2.623a.492.492,0,0,0-.276-.206.635.635,0,0,0-.3.017c.362-.3.306-.4.206-.574h0c.9-.585.948-.755.776-1.053a.406.406,0,0,0-.247-.186c-.113-.029-.17-.044-.751.287.563-.489.478-.637.365-.833a.5.5,0,0,0-.217-.185c1.1-.77,1.013-.918.866-1.173a.435.435,0,0,0-.258-.195c-.132-.034-.347.012-.938.308a28.42,28.42,0,0,0-3.77,2.091c5.988-3.688,5.965-3.728,5.727-4.14a.394.394,0,0,0-.246-.186c-.209-.055-.225-.059-4.319,2.43,4.279-2.788,4.141-3.028,3.927-3.4a.483.483,0,0,0-.273-.2,1.2,1.2,0,0,0-.624.134,6.478,6.478,0,0,0-2.211.881c1.611-1.09,1.753-1.324,1.661-1.541a.22.22,0,0,0,.009-.03.454.454,0,0,0-.042-.353.5.5,0,0,0-.281-.208,2,2,0,0,0-1.055.3.774.774,0,0,0-.061-.12.46.46,0,0,0-.266-.2c-.185-.048-.587.075-1.624.616.281-.31.2-.443.109-.608a.413.413,0,0,0-.242-.188.393.393,0,0,0,.049-.545.464.464,0,0,0-.267-.2c-.239-.06-.766.147-2.363,1.068a.3.3,0,0,0-.008-.384.4.4,0,0,0-.247-.188c-.232-.061-.314-.081-5.72,3.125,4.265-2.785,4.145-2.994,3.927-3.369a.453.453,0,0,0-.264-.2c-.125-.033-.327,0-.772.208a.343.343,0,0,0,.033-.076.472.472,0,0,0-.04-.331.433.433,0,0,0-.257-.194.379.379,0,0,0-.1-.013c-.365,0-1.342.528-8.147,4.664" transform="translate(-179.716 -132.575)" fill="none"/>
    </clipPath>
    <clipPath id="clip-path-4">
      <path id="パス_5852" data-name="パス 5852" d="M124.558,0l-.319,65.6h9.83l9.887,33.053,8.951,31.707h92.257V0Z" transform="translate(-124.239)" fill="none"/>
    </clipPath>
    <clipPath id="clip-path-5">
      <path id="パス_5855" data-name="パス 5855" d="M157.294,119.305c0,4.2,2.632,9.79,4.954,13.291.61.208,4.185.885,5.241.474,2.07-.807,3.908-4.131,5.036-1.233,1.511,3.881,1.241,9.972.931,12.615a41.176,41.176,0,0,0,21.264,5.513,54.457,54.457,0,0,0,14.683-2.629c-1.437-3.025-3.047-9.565-.736-15.5,1.128-2.9,2.964.426,5.036,1.233a3.281,3.281,0,0,0,2.772-.062,2.79,2.79,0,0,1,2.35-.136c2.114.824,1.114,2.626,3.638,3.609.007,0,3.874.551,3.882.553,3.946-4.223,9.35-13.53,9.35-19.12Z" transform="translate(-157.294 -117.914)" fill="none"/>
    </clipPath>
  </defs>
  <g id="グループ_433" data-name="グループ 433">
    <g id="グループ_432" data-name="グループ 432" clip-path="url(#clip-path)">
      <path id="パス_5818" data-name="パス 5818" d="M189.064,23.958c2.232-2.108,3.706-5.742,3.706-9.871,0-6.515-3.671-11.8-8.2-11.8s-8.2,5.282-8.2,11.8a16.587,16.587,0,0,0,.414,3.713,65.575,65.575,0,0,0-28.557,0,16.586,16.586,0,0,0,.415-3.713c0-6.515-3.671-11.8-8.2-11.8s-8.2,5.282-8.2,11.8c0,4.129,1.473,7.762,3.706,9.871-12.173,17.791-27.331,23.52-29.32,41.976l-.225-.084-14.248.739-6.842.109L.6,66.675a.6.6,0,0,0-.578.762l17,59.561,1.746,6.16,2.205,9.008,108.907-.2,29.594-7.926V131.8H127.393l-3.473-12.13c3.92,6.046,9.051,7.111,12.3,5.846,2.482-.966,4.853-3.676,5.3-8.066a39.363,39.363,0,0,0,20.983,5.851,41.068,41.068,0,0,0,12.94-2.063,8.148,8.148,0,0,0,4.287,4.278c3.956,1.54,10.7-.366,14.654-10.516,1.128-2.9-2.473-1.69-4.544-2.5-.077-.03-.14-.063-.211-.094a22.635,22.635,0,0,0,6.507-15.328C209.782,92,218.608,83.125,218.608,70.142c0-21.9-16.491-27.107-29.544-46.184m-59.315,84.936c-2.115.824-1.114,2.626-3.639,3.609-1.26.491-3.083.239-4.065.618l-6.831-23.855a43.444,43.444,0,0,0,13.658,7.815,21.654,21.654,0,0,0,3.985,12.2c-1.027-.249-1.714-.932-3.108-.389" transform="translate(0 -0.475)" fill="#fff"/>
    </g>
  </g>
  <g id="グループ_435" data-name="グループ 435" transform="translate(142.447 105.083)">
    <g id="グループ_434" data-name="グループ 434" clip-path="url(#clip-path-2)">
      <path id="パス_5819" data-name="パス 5819" d="M198.12,145.326c.062.107,3.13-1.98,3.205-1.851.041.072-2.043,1.9-2.012,1.954s2.295-1.393,2.324-1.342c.012.02.069,1,.079,1.02.036.063.474-.376.518-.3.022.039-1,.814-.988.835.025.044,1.568-1,1.609-.929.015.026.729,1.088.74,1.106s.141-.174.182-.1c.008.014.04.46.043.464.022.039.694-.483.728-.421,0,0-.25.4-.242.415s.493-.366.529-.305c0,0,.4.28.4.292.03.052.64-.444.672-.388.008.013-.648,1.306-.642,1.317.014.025,1.011-.625,1.029-.594s-.153.789-.14.811c.023.041.6-.384.616-.355s.071,1.368.089,1.4.261-.217.289-.167c.017.028.955.309.97.335.033.056.472-.333.5-.288.006.009-.537.777-.522.8.037.065.492-.338.515-.3l.132.078c.026.044.182-.134.194-.112s-.933,1.333-.926,1.345c.021.036.682-.414.69-.4l.216.01c.037.065.559-.4.591-.341,0,.006.363,1.094.375,1.114s0-.017.006,0c.022.038-.114,1.293-.1,1.321a6.062,6.062,0,0,0,.656-.379c0,.006-.673,1.072-.653,1.107a9.347,9.347,0,0,1,.962-.556c.007.013.145,1.3.151,1.305.04.068.841-.545.866-.5s-.461,1.164-.441,1.2.552-.405.59-.341c.009.015-.545.919-.529.946.031.055.461-.278.465-.269s.315.6.318.6.4-.239.4-.231-.341.22-.335.231.343-.2.344-.2" transform="translate(-183.532 -134.834)" fill="none" stroke="#000" stroke-linecap="round" stroke-linejoin="round" stroke-width="1"/>
      <path id="パス_5820" data-name="パス 5820" d="M190.985,144.981a24.164,24.164,0,0,0,2.13-1.229c.015.025-2.45,1.759-2.41,1.828.112.193,5.376-3.363,5.487-3.169.078.134-6.714,4.573-6.6,4.761.147.255,8.258-5,8.36-4.827.158.273-9.377,6.61-9.2,6.921.015.025,3.2-1.905,3.225-1.862.034.059-2.7,1.86-2.669,1.912.02.033,2.272-1.34,2.284-1.319.065.113-2.878,2.907-2.851,2.953s1.163-.756,1.2-.693c.021.036-.818,2.143-.812,2.154a10.619,10.619,0,0,0,1.1-.637c.006.01-.714.54-.709.548.013.023,1-.646,1.029-.594s-1.55,1.458-1.539,1.475c.02.034,1.638-1.023,1.672-.965.013.022-1.438,2.392-1.425,2.414s1.43-.87,1.449-.837c.006.01.146.823.154.837s.34-.205.344-.2" transform="translate(-181.587 -134.6)" fill="none" stroke="#000" stroke-linecap="round" stroke-linejoin="round" stroke-width="1"/>
      <path id="パス_5821" data-name="パス 5821" d="M196.519,142.31c.007.012.347-.205.35-.2s-.338.26-.331.271.467-.277.471-.272-.3.614-.286.635a5.324,5.324,0,0,0,.6-.347" transform="translate(-183.2 -134.552)" fill="none" stroke="#000" stroke-linecap="round" stroke-linejoin="round" stroke-width="1"/>
      <path id="パス_5822" data-name="パス 5822" d="M194.21,141.079c.09.156,4.267-2.505,4.285-2.474s-2.408,1.736-2.369,1.8c.073.127,3.083-1.949,3.155-1.822.021.037-1.459,1.719-1.429,1.772.059.1,2.875-1.754,2.915-1.684.029.05-.713,1.947-.68,2,.01.017,1.714-1.029,1.731-1s-.634.718-.625.733,1.433-.85,1.443-.834c.025.044-.378,1.5-.368,1.519.025.044.975-.642,1.009-.583.014.023.977,1.112.981,1.12a11.259,11.259,0,0,0,1.168-.675c0,.01-.667.514-.662.522.013.024,1.079-.694,1.109-.641s-1.176,1.247-1.168,1.261c.021.036,1.749-1.091,1.785-1.03.01.017-.849,2.058-.839,2.075.027.047,1.9-1.152,1.923-1.109.01.017-.073,1.538-.059,1.565.036.061.756-.49.779-.451.007.013-.679,1.321-.663,1.35s1.813-1.072,1.824-1.053.23,1.369.233,1.376c.04.067.484-.369.523-.3,0,.006-.054.7-.047.715.021.036.292-.217.313-.181s-.679,1.2-.674,1.211c.041.071.991-.664,1.03-.594,0,.006.028,1.015.034,1.026.021.036.74-.468.759-.438,0,.006-.012.589,0,.606.029.05.551-.376.575-.333.009.014-.874,1.167-.858,1.2s.682-.48.719-.415c.01.016.479.81.5.839s.329-.277.367-.212c.028.048-.847,1.8-.813,1.863a12,12,0,0,1,1.2-.694c.022.039-.135,1.4-.12,1.429s.918-.6.95-.548-.943,2.12-.911,2.177a8.361,8.361,0,0,1,1.152-.665c.006.011-.763,1.367-.756,1.379.036.063.995-.655,1.03-.6,0,.006-.418.361-.413.369.021.036.556-.4.589-.34.017.03-.926.685-.915.7.042.072.858-.554.884-.51.006.011.2.858.2.864.023.04.461-.295.473-.273s-.689.644-.678.663.627-.412.648-.375c.01.016-.314.443-.3.458s.717-.43.724-.418-.287.4-.279.415.338-.208.344-.2" transform="translate(-182.721 -133.821)" fill="none" stroke="#000" stroke-linecap="round" stroke-linejoin="round" stroke-width="1"/>
      <path id="パス_5823" data-name="パス 5823" d="M187.348,140.29c.071.122,1.327-.817,1.349-.779s-1.2.724-1.179.76,2.525-1.523,2.553-1.474c.052.09-5.329,3.656-5.22,3.844.149.258,7.259-4.3,7.306-4.218.1.173-8.036,5.767-7.97,5.881.161.279,9.684-5.923,9.828-5.674.107.185-9.7,6.211-9.579,6.416.049.085,10.856-6.459,10.939-6.315.2.352-11.879,7.077-11.78,7.247.046.08,3.053-1.873,3.1-1.79.061.106-3.149,3.18-3.125,3.224.044.075,2.64-1.624,2.683-1.549.035.059-2.5,2.778-2.46,2.848s1.8-1.112,1.834-1.059-2.3,1.517-2.281,1.544c.03.052,1.443-.862,1.455-.84s-1.869,1.8-1.846,1.84c.033.055,1.849-1.152,1.886-1.089.049.085-1.694,2.547-1.676,2.578s1.16-.706,1.175-.678-.623,1.373-.612,1.393c.048.082,1.8-1.118,1.837-1.061s-1.239,1.534-1.228,1.552c.042.074.373-.259.392-.227s.046,1.168.057,1.188,1.126-.686,1.141-.659-.212.646-.208.651.338-.208.344-.2" transform="translate(-180.388 -133.787)" fill="none" stroke="#000" stroke-linecap="round" stroke-linejoin="round" stroke-width="1"/>
      <path id="パス_5824" data-name="パス 5824" d="M200.333,150.614c.058.1,2.409-1.417,2.42-1.4s-1.049,1-1.03,1.031c.048.082,1.586-1.027,1.634-.944.013.024-.617,1.26-.6,1.294.039.067,1.686-1.037,1.713-.989s-.413,1.782-.384,1.833c.007.012.808-.494.82-.474s.083.316.086.322.588-.355.594-.343c.023.039-.2,1.4-.193,1.417.019.033.315-.24.34-.2l.659,1.154c.033.057.751-.46.762-.441" transform="translate(-183.991 -136.026)" fill="none" stroke="#000" stroke-linecap="round" stroke-linejoin="round" stroke-width="1"/>
      <path id="パス_5825" data-name="パス 5825" d="M195.728,148.9c.048.082.17-.133.185-.107l.045.053c.012.021,1.183-.727,1.2-.694.033.057-3.285,2.564-3.215,2.685.1.171,4.614-2.736,4.645-2.681.062.107-4.707,3.9-4.666,3.973.1.182,5.762-3.541,5.855-3.38.061.105-5.307,3.794-5.239,3.911.032.054,6.148-3.671,6.2-3.579.12.208-6.932,4.314-6.874,4.415.03.052,1.358-.855,1.389-.8s-.918,1.922-.906,1.943c.03.053,1.615-1,1.645-.95.015.025-.3,1.561-.284,1.592.055.1,2.586-1.583,2.625-1.516s-2.694,1.74-2.676,1.772c.039.067,2.28-1.351,2.295-1.325s-1.387,1.533-1.368,1.565c.044.076,2.846-1.76,2.9-1.672.026.045-.074,1.63-.064,1.647.035.059,2.406-1.445,2.43-1.4.011.018-.252,1.164-.243,1.179.11.19,4.864-2.984,4.94-2.852.067.117-3.064,2.563-3.042,2.6.08.139,2.406-1.471,2.442-1.41.022.039-.2,1.308-.189,1.33s.812-.551.848-.489c.013.023.079.782.083.787.016.029.551-.375.576-.332.015.027-.656.638-.648.652.018.032.991-.613,1.009-.583,0,.008-.2.573-.2.579s.327-.2.333-.193" transform="translate(-182.65 -135.806)" fill="none" stroke="#000" stroke-linecap="round" stroke-linejoin="round" stroke-width="1"/>
    </g>
  </g>
  <g id="グループ_437" data-name="グループ 437">
    <g id="グループ_436" data-name="グループ 436" clip-path="url(#clip-path)">
      <path id="パス_5827" data-name="パス 5827" d="M74.77,128.973c.134.232,7.878-4.923,8.04-4.642.113.193-6.271,4.218-6.187,4.364s6.466-3.889,6.534-3.772c.052.092-3.652,3.063-3.6,3.146.087.152,4.183-2.662,4.29-2.477.1.164-4.679,2.845-4.627,2.936s5.182-3.221,5.281-3.049c.043.075-2.371,2.835-2.342,2.885.038.066,3.37-2.172,3.468-2,.065.113-3.079,2.215-3.056,2.254.055.094,3.82-2.406,3.907-2.256.018.033-3.392,2.093-3.331,2.2.02.033,3.575-2.262,3.66-2.113.01.017-2.59,1.911-2.542,1.993.073.125,3.63-2.277,3.709-2.142.024.041-3.378,2.855-3.36,2.886.036.063,3.876-2.338,3.92-2.263s-2.233,1.917-2.188,1.993c.057.1,2.252-1.4,2.293-1.324s-1.758,2.377-1.719,2.444,2.84-1.8,2.908-1.679c.034.059-1.385,1.621-1.353,1.676.077.133,2.956-1.847,3.016-1.741.017.029-2.32,1.737-2.276,1.815.086.15,1.772-1.147,1.825-1.054.018.032-1.741,1.114-1.722,1.148.06.1,2.617-1.58,2.647-1.528.051.088-3.117,2.57-3.1,2.6.048.083,3.041-1.8,3.061-1.768.01.017-2.123,1.337-2.113,1.355.086.147,2.884-1.831,2.956-1.707.009.014-1.542,2.158-1.515,2.206s2.226-1.326,2.244-1.3c.05.086-1.9,2.277-1.862,2.339.048.083,2.762-1.63,2.777-1.6s-2.528,2.072-2.477,2.159c.02.035,2.943-1.85,3.009-1.737.013.023-1.3,2.116-1.286,2.135.077.132,2.714-1.682,2.764-1.6s-1.945,1.97-1.9,2.04a27.44,27.44,0,0,1,2.4-1.383c.026.047-2.6,2.029-2.549,2.112a26.1,26.1,0,0,0,2.731-1.577c.014.025-1.657,1.721-1.648,1.737.062.107,1.308-.841,1.345-.777s-1.266,1.978-1.229,2.042c.054.094,3.033-1.779,3.045-1.759.024.041-1.868,2.111-1.86,2.124.048.084,1.951-1.3,2.026-1.17.031.052-1.732,1.428-1.71,1.465.04.069,2.566-1.651,2.639-1.523.025.044-2.517,2.071-2.487,2.123a22.585,22.585,0,0,0,1.978-1.142c.009.014-2.122,2.066-2.086,2.127.045.078,2.986-1.753,3-1.731s-2,1.577-1.955,1.654c.054.093,1.807-1.155,1.856-1.071.024.042-1.334,2.33-1.286,2.412.021.036,2.478-1.457,2.489-1.437s-1.868,1.662-1.835,1.72,1.468-.984,1.527-.882c.047.081-2.134,2.213-2.1,2.28s3.117-1.861,3.144-1.815-1.983,1.581-1.967,1.61,2.056-1.28,2.1-1.21-1.376,2.3-1.351,2.342c.015.025,2.257-1.342,2.274-1.313.032.054-3.263,2.639-3.23,2.7.014.025,2.708-1.626,2.735-1.579.015.025-1.939,1.777-1.915,1.819.08.139,2.836-1.719,2.872-1.657.057.1-2.835,2.367-2.8,2.424.047.08,3.062-1.831,3.089-1.783s-3.343,2.035-3.308,2.095,3.345-2.095,3.416-1.972c.023.04-2.556,1.7-2.534,1.743.049.086,2.02-1.3,2.075-1.2.044.075-2.008,1.943-1.986,1.98.058.1,2.169-1.439,2.25-1.3.025.044-2.6,1.668-2.56,1.737.019.033,3.39-2.109,3.456-2,.051.087-2.886,2.8-2.861,2.843s2.012-1.21,2.032-1.174c0,.008-.851,1.1-.846,1.114.037.065,1.924-1.169,1.949-1.126.01.017-2.493,1.532-2.475,1.564.054.093,2.134-1.38,2.2-1.269.013.021.2.86.215.884s.472-.323.494-.285c.006.012,0,.865.012.877s.338-.208.345-.2" transform="translate(-15.505 -25.781)" fill="none" stroke="#000" stroke-linecap="round" stroke-linejoin="round" stroke-width="1"/>
      <path id="パス_5828" data-name="パス 5828" d="M63.1,126.807c.075.129,3.385-1.989,3.4-1.963.025.044-4.211,2.716-4.145,2.83.121.211,5.957-3.721,6.079-3.511.09.157-7.949,5.242-7.822,5.464.233.4,13.451-8.138,13.612-7.859.253.438-15.509,9.9-15.22,10.4.059.1,16.817-9.943,16.919-9.768.2.348-16.686,9.6-16.511,9.9.1.168,16.963-9.936,17.025-9.829.342.593-18.235,11.51-18.095,11.753.19.329,17.5-10.681,17.746-10.246.2.344-18.026,11.948-17.963,12.057.144.25,7.416-4.394,7.464-4.31s-7.158,4.171-7.115,4.246,6.961-4.267,7.068-4.081c.158.273-7.82,5-7.775,5.076.065.113,6.744-4.153,6.855-3.958.044.075-7.474,5.808-7.432,5.881.072.126,5.743-3.472,5.812-3.354.043.074-4.972,4.258-4.91,4.365.091.158,3.237-2,3.3-1.9.025.044-4.133,3.218-4.075,3.32s4.835-2.853,4.862-2.807c.058.1-3.681,3.6-3.667,3.627.092.159,3.162-2.035,3.252-1.878.021.036-3.144,2.415-3.106,2.48.048.083,2.875-1.769,2.922-1.687.067.117-3.66,2.888-3.64,2.924.09.158,3.436-2.19,3.526-2.035.011.02-2.865,2.643-2.84,2.685.046.08,3.076-1.864,3.115-1.8.017.031-2.6,1.99-2.554,2.078.062.107,2.818-1.749,2.87-1.657.024.041-3.4,2.551-3.351,2.634s2.88-1.841,2.956-1.707c.022.038-1.286,1.778-1.247,1.845s1.7-1.129,1.766-1.019c.022.04-.4,1.562-.375,1.611.01.017.43-.309.457-.264.01.017.482.357.488.368s.339-.208.345-.2" transform="translate(-11.86 -25.25)" fill="none" stroke="#000" stroke-linecap="round" stroke-linejoin="round" stroke-width="1"/>
      <path id="パス_5829" data-name="パス 5829" d="M73.794,121.871c.007.012.346-.2.348-.2s-.337.258-.33.269.464-.276.468-.27-.218.919-.2.946a13.171,13.171,0,0,0,1.142-.659c.012.021-.617,1.018-.609,1.032.039.067,1.233-.793,1.268-.732" transform="translate(-15.303 -25.231)" fill="none" stroke="#000" stroke-linecap="round" stroke-linejoin="round" stroke-width="1"/>
      <path id="パス_5830" data-name="パス 5830" d="M67.683,120.059c.193.335,10.22-5.991,10.26-5.923s-7.994,4.769-7.872,4.98c.165.286,8.51-5.295,8.675-5.009.074.128-6.389,4.4-6.286,4.577.139.24,7.742-4.692,7.837-4.525s-4.906,4.209-4.8,4.385c.024.041,6-3.557,6.039-3.487.059.1-4.827,3.039-4.776,3.129.037.064,5.625-3.3,5.648-3.261.086.149-4.083,3.581-4.047,3.643.064.111,4.808-2.971,4.893-2.825.034.06-2.294,2.985-2.283,3,.1.172,4.7-2.792,4.735-2.734s-4.206,2.508-4.181,2.552,4.579-2.82,4.655-2.688c.094.162-4.535,3.143-4.508,3.19.052.088,5.146-3.174,5.234-3.021.024.042-3.778,3.717-3.754,3.758.065.112,5.1-3.081,5.155-2.976.025.044-2.576,2.933-2.539,3,.086.15,3-1.862,3.056-1.765.019.033-2.911,2.548-2.868,2.623s4.759-2.808,4.786-2.763c.04.07-2.25,2.787-2.241,2.8.094.162,3.262-2.1,3.354-1.937.018.031-2.674,2.156-2.642,2.213.05.086,3.029-1.862,3.078-1.777.06.1-3.186,2.62-3.167,2.651.1.165,3.638-2.316,3.732-2.154.01.017-2.332,2.344-2.311,2.38.048.084,3.339-2.022,3.381-1.952.017.029-2.465,1.914-2.416,2,.066.114,3.09-1.914,3.146-1.817.023.04-3.228,2.457-3.182,2.536s3.163-2.017,3.246-1.875c.026.045-1.668,1.983-1.622,2.062s2.722-1.764,2.805-1.619c.055.1-2.79,2.849-2.723,2.966.032.055,3.446-2.192,3.534-2.04.048.084-1.932,2.4-1.9,2.458s3.108-1.944,3.172-1.832c.044.075-2.477,2.957-2.423,3.05a34.242,34.242,0,0,1,3.245-1.873c.013.024-2.424,2.308-2.41,2.333.07.12,2.974-1.869,3.04-1.755.014.025-2.382,1.452-2.359,1.492.04.069,2.52-1.6,2.583-1.491.044.075-2.477,1.544-2.451,1.588.078.136,1.81-1.154,1.857-1.072.017.029-1.424,1.783-1.415,1.8.062.107,3.089-1.86,3.122-1.8.05.086-3.665,2.279-3.618,2.36.058.1,3.613-2.27,3.692-2.132.057.1-2.944,1.852-2.888,1.949.041.071,2.555-1.563,2.593-1.5s-2.214,2.2-2.165,2.289,2.583-1.64,2.647-1.528c.03.052-2.008,1.616-1.98,1.664s2.8-1.8,2.875-1.661c.046.079-2,2.571-1.986,2.6.036.062,2.514-1.519,2.543-1.468s-1.759,2.616-1.749,2.635,2.075-1.307,2.122-1.225c.03.052-1.419,2.255-1.382,2.319.055.1,2.975-1.75,2.988-1.726s-2.508,2.88-2.483,2.924c.059.1,2.775-1.794,2.857-1.65.034.058-1.267,1.984-1.228,2.053.018.031,2.324-1.414,2.355-1.359s-2.232,1.544-2.218,1.568c.047.082,2.37-1.421,2.393-1.382.056.1-1.9,2.707-1.9,2.722a19.034,19.034,0,0,1,2.092-1.207c.017.03-2.013,1.951-2,1.967.044.078,3.228-1.959,3.27-1.887s-2.942,2.525-2.922,2.559c.058.1,3.371-2.131,3.451-1.992.046.08-3.545,2.57-3.522,2.61s2.46-1.493,2.491-1.438-2.027,1.95-2,1.991c.059.1,2.571-1.659,2.647-1.528.021.036-2.018,2.211-1.987,2.265.083.143,2.119-1.325,2.163-1.249.007.012-2.167,1.309-2.136,1.363.02.035,3-1.867,3.059-1.766.049.086-3.147,2.443-3.107,2.511.059.1,3.368-2,3.391-1.959.059.1-2.746,2.781-2.683,2.891a26.757,26.757,0,0,0,2.923-1.687c.053.09-3.385,2.611-3.327,2.711s3.332-2.014,3.371-1.947c.052.09-3.048,1.707-3,1.786.087.151,3.293-2.005,3.338-1.927.055.1-3.6,2.471-3.535,2.587a37.511,37.511,0,0,1,3.3-1.907c.021.035-2.215,2.422-2.161,2.516.089.155,2.663-1.711,2.739-1.581.029.051-2.424,2.889-2.387,2.953s2.585-1.537,2.6-1.5c.061.1-2.977,2.331-2.956,2.368.076.132,3.283-2,3.329-1.921.033.057-2.026,2.345-1.982,2.421s2.138-1.344,2.185-1.262c.014.025-1.236,1.565-1.221,1.592s1.087-.665,1.1-.637-.541.41-.535.419a10.249,10.249,0,0,1,1.252-.724c0,.006-.443.35-.434.367.02.034.192-.156.212-.122.006.011-1.064.633-1.046.663s1.821-1.141,1.86-1.073c.013.024-.992,1.107-.972,1.142s1.2-.712,1.209-.7-.21.688-.207.694.342-.2.345-.2" transform="translate(-14.036 -23.66)" fill="none" stroke="#000" stroke-linecap="round" stroke-linejoin="round" stroke-width="1"/>
      <path id="パス_5831" data-name="パス 5831" d="M55.622,117.6c.1.174,2.821-1.7,2.853-1.647s-2.9,1.638-2.85,1.726c.025.044,4.257-2.552,4.3-2.482.075.129-7.926,5.043-7.769,5.315.212.369,10.609-6.282,10.677-6.165.148.257-12.231,8.116-12.134,8.285.232.4,14.588-8.9,14.8-8.541.165.286-15.161,9.217-14.978,9.534.071.123,16.657-9.894,16.778-9.686.306.53-17.983,10.486-17.834,10.742.191.332,18.161-10.942,18.36-10.6.31.537-19.109,12.16-18.983,12.38.286.5,22.281-13.529,22.568-13.03.248.43-23.195,14.143-22.9,14.65.382.663,24.785-14.94,25.057-14.467.4.694-25.748,14.706-25.58,15,.131.226,11.027-6.485,11.079-6.4.1.168-11.878,7.344-11.753,7.561.113.2,8.667-5.3,8.8-5.079.182.315-9.221,6.779-9.154,6.9s6.453-3.841,6.5-3.754c.071.121-6.35,4.57-6.291,4.671.143.249,6.513-3.99,6.613-3.817.13.224-6.312,4.393-6.271,4.463.124.215,4.764-2.877,4.818-2.782.1.178-4.83,3.873-4.771,3.976.043.075,4.39-2.731,4.475-2.584.1.178-5.041,3.682-5.013,3.73.069.118,5.074-3.172,5.179-2.99s-5.128,3.119-5.075,3.209c.107.186,4.565-2.88,4.671-2.7.043.075-4.1,3.843-4.066,3.9s3.067-2.032,3.181-1.836c.043.075-3.86,2.255-3.813,2.335s4.094-2.558,4.179-2.412-3.817,3.67-3.793,3.711c.087.151,4.241-2.49,4.259-2.459.04.068-4.222,3.654-4.145,3.788.062.107,3.075-1.89,3.125-1.8s-3.541,2.1-3.519,2.134c.052.091,4.158-2.539,4.218-2.435s-3.1,2.652-3.05,2.745a22.809,22.809,0,0,1,2.647-1.529c.065.113-2.71,2.622-2.692,2.654.08.139,3.534-2.085,3.554-2.052.059.1-4.348,2.92-4.264,3.067.021.037,3.542-2.15,3.587-2.071.023.039-2.608,2.359-2.555,2.45a35.038,35.038,0,0,1,3.071-1.772c.071.124-3.113,3.143-3.052,3.249.084.145,3.34-2.067,3.4-1.963.029.051-.526,1.78-.5,1.821s.121-.154.157-.091c.017.03,1.028.544,1.034.554s.339-.208.345-.2" transform="translate(-9.735 -23.519)" fill="none" stroke="#000" stroke-linecap="round" stroke-linejoin="round" stroke-width="1"/>
      <path id="パス_5832" data-name="パス 5832" d="M80.327,138.9c.124.216,6.259-3.671,6.283-3.628s-4.707,2.985-4.634,3.112c.108.187,5.141-3.219,5.25-3.031.047.081-3.862,3.025-3.8,3.139.092.159,4.9-2.976,4.964-2.866s-3.138,3.258-3.067,3.382c.017.028,3.648-2.169,3.675-2.123s-2.672,1.847-2.643,1.9,3.354-1.973,3.369-1.945c.059.1-2.55,2.722-2.525,2.764.044.077,2.818-1.761,2.876-1.661.025.042-1.173,2.346-1.165,2.36.071.121,2.964-1.766,2.987-1.726s-2.521,1.558-2.5,1.584c.024.042,2.874-1.784,2.928-1.69.066.113-3.106,2.335-3.086,2.368.036.063,3.529-2.182,3.592-2.074.02.035-2.94,3.243-2.921,3.278.048.082,3.685-2.23,3.729-2.154.021.037-1.944,2.582-1.913,2.635.067.116,1.806-1.142,1.848-1.068.015.026-2.212,2.165-2.178,2.225s3.707-2.188,3.728-2.152c.038.065-2.048,2.67-2.039,2.687.078.136,2.479-1.609,2.555-1.475.015.025-2.516,1.448-2.488,1.5.042.073,2.313-1.431,2.354-1.359" transform="translate(-16.658 -28.053)" fill="none" stroke="#000" stroke-linecap="round" stroke-linejoin="round" stroke-width="1"/>
      <path id="パス_5833" data-name="パス 5833" d="M71.768,135.116c.067.117,1.162-.721,1.183-.683.013.021-1.047.641-1.029.673s2.322-1.4,2.349-1.355c.049.084-5.038,3.5-4.935,3.679.142.247,6.885-4.08,6.93-4,.1.164-7.593,5.52-7.531,5.628.154.266,9.16-5.6,9.3-5.367.1.175-9.128,5.9-9.015,6.091.047.081,10.229-6.088,10.308-5.951.193.333-11.232,6.715-11.139,6.877.125.217,11.305-6.827,11.435-6.6.191.331-11.5,7.882-11.427,8.017.185.321,14.141-8.6,14.328-8.273.155.27-14.264,9.24-14.081,9.558.245.423,15.427-9.31,15.6-9.007.252.436-16.151,9.308-16.045,9.49.082.143,6.421-3.782,6.454-3.726.057.1-6.909,4.592-6.834,4.721s5.43-3.333,5.516-3.185c.112.194-5.328,4.591-5.287,4.662s4.011-2.4,4.045-2.336-3.507,2.985-3.473,3.044c.1.175,4.423-2.716,4.493-2.594.083.145-3.906,3.038-3.88,3.083.108.186,3.878-2.349,3.926-2.267.079.136-3.516,3.147-3.471,3.225s5.725-3.543,5.828-3.365-4.928,3.618-4.9,3.664c.087.151,6.653-4.148,6.786-3.917.123.213-6.258,3.746-6.194,3.855.138.239,6.217-3.9,6.353-3.668.036.06-3.126,3.3-3.1,3.343.036.063,5.064-3.28,5.219-3.014.063.111-5.7,3.266-5.628,3.384s6.131-3.806,6.246-3.606c.082.143-3.367,3.415-3.346,3.453.126.219,6.569-3.851,6.595-3.807.04.069-4.313,3.7-4.233,3.839.093.16,5.583-3.4,5.658-3.267.094.163-5.926,3.439-5.889,3.5.079.137,6.675-4.061,6.765-3.906.074.128-4.114,3.2-4.045,3.32.033.056,5.173-3.305,5.311-3.067.083.145-3.671,3.165-3.647,3.205.19.331,10.176-5.983,10.222-5.9.135.233-10.2,6.049-10,6.381.048.083,9.436-5.685,9.538-5.507.056.1-7.149,4.806-7.02,5.028.067.115,7.628-4.836,7.815-4.512.12.208-5.831,4.616-5.728,4.794.141.243,6.277-3.855,6.377-3.682.077.133-3.551,3.438-3.488,3.545.072.126,3.216-2.067,3.307-1.909.025.044-.55,1.615-.541,1.63.025.043.837-.6.886-.511.02.035.506,1.217.526,1.25,0,.009.964-.6.982-.567.009.015-.232.56-.23.564s.334-.206.34-.2" transform="translate(-14.022 -27.669)" fill="none" stroke="#000" stroke-linecap="round" stroke-linejoin="round" stroke-width="1"/>
    </g>
  </g>
  <g id="グループ_439" data-name="グループ 439" transform="translate(98.475)">
    <g id="グループ_438" data-name="グループ 438" clip-path="url(#clip-path-4)">
      <path id="パス_5834" data-name="パス 5834" d="M174.719,11.91c.395-2.228,2.777-2.607,4-.735.984,1.325.8,3.078.669,4.56-.147,1.5-.125,3.141-1,4.493a2.267,2.267,0,0,1-3.572.329,5.839,5.839,0,0,1-1.405-4.587,6.579,6.579,0,0,1,.866-2.914.083.083,0,0,1,.113-.028,14.447,14.447,0,0,0,1.017,5.4c.331.753.834,1.366,1.223,1.356.427.064,1.144-.61,1.583-1.378,1.294-2.024.459-4.577-.658-6.452-.765-1.348-1.742-.949-2.687.029a.083.083,0,0,1-.14-.074" transform="translate(-134.431 -2.069)"/>
      <path id="パス_5835" data-name="パス 5835" d="M177.2,6.5a2.119,2.119,0,0,1,0,3.307,2.119,2.119,0,0,1,0-3.307" transform="translate(-135.057 -1.348)"/>
      <path id="パス_5836" data-name="パス 5836" d="M172.67,8.893a2.06,2.06,0,0,1,2.3,2.3,2.06,2.06,0,0,1-2.3-2.3" transform="translate(-134.28 -1.842)"/>
      <path id="パス_5837" data-name="パス 5837" d="M181.489,8.893a2.022,2.022,0,0,1-2.271,2.27,2.021,2.021,0,0,1,2.271-2.27" transform="translate(-135.638 -1.842)"/>
      <path id="パス_5838" data-name="パス 5838" d="M154.589,62.875a3.576,3.576,0,0,1,.571,4.313,20,20,0,0,1-3.235,3.047c-2.4,2.05-7.043,1.078-7.485-2.291a.085.085,0,0,1,.142-.071c2.04,1.984,6.606,2.673,8.633.578a4.252,4.252,0,0,0,.733-1.792,9.808,9.808,0,0,0,.5-3.714.086.086,0,0,1,.142-.071" transform="translate(-128.428 -13.034)"/>
      <path id="パス_5839" data-name="パス 5839" d="M194.408,45.906a2.883,2.883,0,0,1,1.882,3.515,2.884,2.884,0,0,1-1.882-3.515" transform="translate(-138.769 -9.52)"/>
      <path id="パス_5840" data-name="パス 5840" d="M160.69,96.274c18.785,6.474,41.081,6.439,60.443,2.6,20.672-4.463,35.575-16.764,28.595-39.413-.315-.839-.839-2.067-1.164-2.911-.292-.636-.85-1.576-1.166-2.22-.344-.714-1.568-2.482-2.012-3.182a95.789,95.789,0,0,0-10.226-11.282,106.663,106.663,0,0,1-13.46-15.6.8.8,0,0,1,.112-1.043c3.846-3.875,4.4-10.421,2.355-15.344C221.7,1.845,215.371.737,211.9,6.648a16.01,16.01,0,0,0-1.673,10.971h-.288l.111.176-2.59-.591c-.1-.01-.074-.18.027-.156l2.629.46a.141.141,0,0,1,.11.176c-.019.163-.266.147-.288,0-1.386-5.524-.075-12.954,5.556-15.592,4.111-1.846,8.393,1.519,9.9,5.238,2.4,5.5,1.909,12.656-2.477,17.064l.112-1.042a88.527,88.527,0,0,0,6.284,7.959c5.6,6.433,12.248,12.029,17.24,19.018.2.348,1.55,2.443,1.732,2.766.225.41.661,1.341.881,1.753a16.487,16.487,0,0,1,1.042,2.4,21.551,21.551,0,0,1,.85,2.469c4.713,17.892-3.46,30.031-19.911,36.924-15.943,6.55-33.775,7.21-50.705,5.1A74.95,74.95,0,0,1,160.63,96.42c-.092-.036-.031-.184.059-.147" transform="translate(-131.776 -0.326)"/>
      <path id="パス_5841" data-name="パス 5841" d="M199.6,16.869a72.1,72.1,0,0,0-23.585,1.442l.5-.8-1.3,0A15.666,15.666,0,0,0,173.8,6.8c-1.648-3.164-5.458-5.368-8.791-3.207-3.157,2-4.655,5.987-4.844,9.634-.205,3.724.882,7.757,3.618,10.383a.291.291,0,0,1,.04.372,116.972,116.972,0,0,1-14.056,16.744c-6.261,6.316-12.48,13.258-14.212,22.221-.932,5.173-1.178,10.747.678,15.734,2.4,6.827,8.036,11.957,14.231,15.5.089.043.013.189-.074.141a39.606,39.606,0,0,1-7.021-4.273,25.326,25.326,0,0,1-10.041-21.9,31.244,31.244,0,0,1,2.186-10.9c2.706-6.971,8.09-12.361,13.289-17.484C154,34.709,159.144,29.6,163.344,23.657l.04.371a12,12,0,0,1-2.982-5.036c-1.94-6.083-.376-15.9,6.962-17.348,8-.587,10.8,9.873,9.147,16.168a.668.668,0,0,1-1.305-.024.654.654,0,0,1,.5-.776,62.031,62.031,0,0,1,17.974-1.118c1.991.189,3.974.445,5.935.818a.08.08,0,0,1-.022.157" transform="translate(-126.108 -0.336)"/>
      <path id="パス_5842" data-name="パス 5842" d="M230.044,12.056a17.134,17.134,0,0,0,.093,5.585,3.694,3.694,0,0,0,.969,2.448c2.667,1.389,2.627-4.815,2.216-6.25-.242-1.542-1.12-3.874-2.907-2.383a.082.082,0,0,1-.126-.1,1.967,1.967,0,0,1,1.171-1.182c1.954-.522,3.187,1.83,3.518,3.313a7.622,7.622,0,0,1-1.194,6.15c-.643.881-1.944,1.575-2.96.874-2.769-1.807-2.983-6.128-.923-8.533a.083.083,0,0,1,.141.072" transform="translate(-145.866 -2.095)"/>
      <path id="パス_5843" data-name="パス 5843" d="M232.427,6.5a2.119,2.119,0,0,1,0,3.307,2.119,2.119,0,0,1,0-3.307" transform="translate(-146.51 -1.348)"/>
      <path id="パス_5844" data-name="パス 5844" d="M236.767,8.893a2.06,2.06,0,0,1-2.3,2.3,2.06,2.06,0,0,1,2.3-2.3" transform="translate(-147.096 -1.842)"/>
      <path id="パス_5845" data-name="パス 5845" d="M227.955,8.893a2.021,2.021,0,0,1,2.27,2.27,2.021,2.021,0,0,1-2.27-2.27" transform="translate(-145.744 -1.842)"/>
      <path id="パス_5846" data-name="パス 5846" d="M252.669,62.946a9.81,9.81,0,0,0,.5,3.714,4.252,4.252,0,0,0,.733,1.792c2.029,2.094,6.586,1.408,8.633-.579a.085.085,0,0,1,.142.071c-.444,3.369-5.088,4.341-7.485,2.291a20.042,20.042,0,0,1-3.235-3.048,3.575,3.575,0,0,1,.571-4.313.086.086,0,0,1,.142.071" transform="translate(-150.627 -13.034)"/>
      <path id="パス_5847" data-name="パス 5847" d="M216.96,105.989c-10.376,5.171-22.5,5.517-33.751,3.643-13.483-1.816-27.183-7.4-32.4-21.016-1.891-4.91-2.723-12.835,1.411-16.7-2.077,3.147-2.279,7.172-1.584,10.831,2.081,11.213,11.36,19.585,21.678,23.575,7.029,2.909,14.781,3.462,22.3,3.056a78.337,78.337,0,0,0,22.284-3.54c.086-.035.149.109.061.147" transform="translate(-129.426 -14.914)"/>
      <path id="パス_5848" data-name="パス 5848" d="M253.68,71.917c3.943,3.412,3.418,9.446,1.723,13.863-1.335,4.684-3.3,9.306-6.878,12.742a21.626,21.626,0,0,1-8.258,5.2,93.661,93.661,0,0,0,7.054-6.39c4.236-4.432,8.5-9.893,7.987-16.37.015-3.07-.14-6.175-1.746-8.942-.051-.069.052-.162.117-.106" transform="translate(-148.3 -14.91)"/>
      <path id="パス_5849" data-name="パス 5849" d="M215.089,45.906a2.884,2.884,0,0,1-1.882,3.515,2.883,2.883,0,0,1,1.882-3.515" transform="translate(-142.667 -9.52)"/>
      <path id="パス_5850" data-name="パス 5850" d="M230.048,18.116c0,1.84.677,3.331,1.513,3.331s1.514-1.492,1.514-3.331-.678-3.331-1.514-3.331-1.513,1.492-1.513,3.331" transform="translate(-146.181 -3.066)"/>
      <path id="パス_5851" data-name="パス 5851" d="M174.821,18.116c0,1.84.678,3.331,1.514,3.331s1.514-1.492,1.514-3.331-.678-3.331-1.514-3.331-1.514,1.492-1.514,3.331" transform="translate(-134.728 -3.066)"/>
    </g>
  </g>
  <g id="グループ_441" data-name="グループ 441" transform="translate(124.676 93.462)">
    <g id="グループ_440" data-name="グループ 440" clip-path="url(#clip-path-5)">
      <path id="パス_5853" data-name="パス 5853" d="M227.373,133.46c-4.292,9.406-14.591,14.475-24.5,15.453-13.069,2.037-28.4-.994-36.34-12.469-1.848-2.792-3.446-6.185-3.531-9.442a27.458,27.458,0,0,0,11.714,15.138c10.837,6.984,25.6,9.156,37.418,3.266a40.445,40.445,0,0,0,8.38-4.925,31.93,31.93,0,0,0,6.717-7.1c.045-.08.183-.008.139.077" transform="translate(-158.478 -119.799)"/>
      <path id="パス_5854" data-name="パス 5854" d="M247.857,122.217a20.607,20.607,0,0,1-2.3,7.664,19.82,19.82,0,0,0,.72-7.664.8.8,0,1,1,1.585,0" transform="translate(-175.596 -118.626)"/>
    </g>
  </g>
  <g id="グループ_443" data-name="グループ 443" transform="translate(98.475)">
    <g id="グループ_442" data-name="グループ 442" clip-path="url(#clip-path-4)">
      <path id="パス_5856" data-name="パス 5856" d="M235.294,139.537c1.294.311,2.507-.023,3.854.193,2.154.38,1.255,2.532.709,3.827-1.794,4.882-5.942,9.473-11.4,9.761-5.775.522-9.673-5.3-9.406-10.609a21.566,21.566,0,0,1,1.526-7.741c.727-2.228,2.391-2.548,4.077-.977a6.654,6.654,0,0,0,2.889,1.839c.829.208,1.716-.331,2.619-.449a3.046,3.046,0,0,1,2.83,1.309c.38.6.488,1.228.805,1.768l-.128.094c-.8-1.021-1.129-2.135-2.572-2.3a2.486,2.486,0,0,0-1.583.345c-2.528,1.412-4.561-.534-6.507-1.858-.2-.1-.4-.156-.377-.124a2.538,2.538,0,0,0-.472.944c-1.272,3.455-2.119,7.159-1.324,10.787.976,5.434,6.191,8.334,11.036,5.218,3.151-2,5.215-5.19,6.867-8.509.271-.724.912-1.5.727-2.177a.857.857,0,0,0-.517-.335c-1.091-.339-2.521-.262-3.707-.864Z" transform="translate(-143.897 -27.584)"/>
      <path id="パス_5857" data-name="パス 5857" d="M162.817,152.827c8.743,1.484,11.1-8.835,9.12-15.484-.352-.909-.61-2.7-1.492-3.1-.423-.1-.961.3-1.41.7A7.8,7.8,0,0,1,165.7,137.1c-1.3.432-2.585-.618-3.669-.437-1.3.281-1.4.992-2.049,2.207a4.709,4.709,0,0,1-3.859,2.031,9.678,9.678,0,0,0-2.361.3c-.138.146.053.587.1.778,1.371,3.754,3.312,7.4,6.615,9.841l-.08.137a14.468,14.468,0,0,1-5.722-5.117,24.32,24.32,0,0,1-2.3-4.283c-.694-1.634-.1-2.9,1.652-3.174,1.652-.276,3.586.11,4.627-1.354a10.738,10.738,0,0,1,1.064-1.709,3.45,3.45,0,0,1,3.3-.964c.89.254,1.6.808,2.494.678a6.873,6.873,0,0,0,3.106-1.638c1.561-1.21,2.655-.846,3.182.992a24.39,24.39,0,0,1,1.915,9.424c-.208,3.9-2.895,8.231-7.093,8.708a7.757,7.757,0,0,1-3.848-.544Z" transform="translate(-130.015 -27.725)"/>
    </g>
  </g>
  <g id="グループ_445" data-name="グループ 445">
    <g id="グループ_444" data-name="グループ 444" clip-path="url(#clip-path)">
      <path id="パス_5859" data-name="パス 5859" d="M17.069,144.45a143.3,143.3,0,0,1-6.694-22.339c-1.347-5.009-3.365-9.817-4.849-14.784C3.229,99.9,1.018,92.213.072,84.556A218.8,218.8,0,0,1,6.96,106.912c1.4,4.988,2.313,10.119,3.908,15.053A148.708,148.708,0,0,1,15.6,136.784c.636,2.515,1.194,5.052,1.626,7.623a.08.08,0,0,1-.153.043" transform="translate(-0.015 -17.535)"/>
      <path id="パス_5860" data-name="パス 5860" d="M96.813,83.025c5.211.13,10.257-1.588,15.512-.865a2.186,2.186,0,0,1,2,2.025l-.017-.132C119.69,102,125.8,121.618,130.31,139.7c1.626,6.134,3.207,12.547,4.723,18.725a.275.275,0,0,1-.27.341l-2.116-.036a.288.288,0,0,1,0-.575,8.712,8.712,0,0,1,2.171.034.3.3,0,0,1-.052.6c-35.641.638-73.3.932-108.909.216a.307.307,0,0,1-.308-.24L23.526,149.5c-.025-.1.133-.132.155-.036l2.481,9.148-.307-.24c26.022-.625,55.49-.7,81.677-.507,9.076.052,18.153.23,27.228.316l-.052.6a7.485,7.485,0,0,0-2.015-.057l0-.575,2.07.055-.27.342c-.728-3.131-1.449-6.265-2.26-9.377-2.416-9.341-5.244-18.566-8.119-27.775-3.761-12.313-7.457-24.655-10.749-37.108a1.273,1.273,0,0,0-1.186-1.252,31.436,31.436,0,0,0-7.617-.071,47.451,47.451,0,0,1-7.757.215c-.1,0-.09-.167.009-.159" transform="translate(-4.878 -17.001)"/>
      <path id="パス_5861" data-name="パス 5861" d="M.934,83.211a246.1,246.1,0,0,1,31.709-.164c7.047.126,14.094-.426,21.139-.481,10.579-.22,21.139-.058,31.71.68a.079.079,0,0,1,0,.158c-10.564.73-21.132.881-31.709.654-7.046-.059-14.093-.618-21.141-.5-7.044.22-14.091.646-21.143.35-3.523-.09-7.046-.254-10.567-.54a.08.08,0,0,1,0-.159" transform="translate(-0.179 -17.103)"/>
      <path id="パス_5862" data-name="パス 5862" d="M163.523,175.548a131.314,131.314,0,0,1,22.208-6.137q3.738-.883,7.39-2.089l-.288.376-.114-2.237.5.5c-4.985.263-10.223.363-15.217.333-5.079-.074-10.152-.274-15.216-.756a.08.08,0,0,1,0-.159c6.327-.59,12.673-.795,19.021-.762,3.707.087,7.784.109,11.469.343a.475.475,0,0,1,.445.5l-.113,2.237,0,.041a.361.361,0,0,1-.286.334q-3.767.779-7.448,1.875a144.208,144.208,0,0,1-14.754,4.28c-2.5.573-5.011,1.079-7.555,1.472a.08.08,0,0,1-.041-.153" transform="translate(-33.744 -34.137)"/>
      <path id="パス_5863" data-name="パス 5863" d="M163.759,173.923a114.765,114.765,0,0,1,26.508-6.725,114.754,114.754,0,0,1-26.508,6.725" transform="translate(-33.959 -34.672)"/>
      <path id="パス_5864" data-name="パス 5864" d="M25.59,173.8a375.4,375.4,0,0,1,39.17-.178c8.705.124,17.41-.433,26.114-.489,13.063-.224,26.116-.067,39.17.667a.08.08,0,0,1,0,.159c-13.055.734-26.107.89-39.17.667-8.7-.056-17.408-.613-26.114-.489-8.7.222-17.4.651-26.113.357-4.352-.088-8.7-.25-13.057-.535-.093,0-.1-.157,0-.159" transform="translate(-5.292 -35.884)"/>
    </g>
  </g>
</svg>
