<svg xmlns="http://www.w3.org/2000/svg" xmlns:xlink="http://www.w3.org/1999/xlink" width="244" height="126" viewBox="0 0 244 126">
  <defs>
    <clipPath id="clip-path">
      <rect id="長方形_3883" data-name="長方形 3883" width="244" height="126" transform="translate(418 1742)" fill="none" stroke="#707070" stroke-width="1"/>
    </clipPath>
    <clipPath id="clip-path-2">
      <rect id="長方形_3778" data-name="長方形 3778" width="259.764" height="161.748" fill="none"/>
    </clipPath>
    <clipPath id="clip-path-3">
      <path id="パス_5981" data-name="パス 5981" d="M147.839,30.065v78.706H275.108V60.99a45.484,45.484,0,0,0-8.049.168,26.1,26.1,0,0,0-3.711.721,36.284,36.284,0,0,1-50.055,13.059l-3.561-2.431a36.289,36.289,0,0,1-11.407-42.442Z" transform="translate(-147.839 -30.065)" fill="none"/>
    </clipPath>
    <clipPath id="clip-path-4">
      <path id="パス_5980" data-name="パス 5980" d="M191.363,157.058c-.06,6.22,4.928,10.645,10.261,14.161a17.177,17.177,0,0,0,4.884,2.995,7.156,7.156,0,0,0,2.862.494,34.294,34.294,0,0,0,17.464,1.9,57.8,57.8,0,0,0,12.5-3.505c3.906-1.62,6.448-4.248,9.559-6.983a6.886,6.886,0,0,0,1.048-1.154l12.318,1.663-4.08,30.22-79.464-10.729,4.08-30.22Z" transform="translate(-178.718 -155.901)" fill="none"/>
    </clipPath>
    <clipPath id="clip-path-5">
      <path id="パス_6000" data-name="パス 6000" d="M217.833,39.114a29.836,29.836,0,0,0,58.547,8.115l.407-1.616a29.835,29.835,0,1,0-58.954-6.5" transform="translate(-217.833 -9.282)" fill="none"/>
    </clipPath>
    <clipPath id="clip-path-6">
      <rect id="長方形_3779" data-name="長方形 3779" width="127.268" height="102.002" fill="none"/>
    </clipPath>
  </defs>
  <g id="kaeru02" transform="translate(-418 -1742)" clip-path="url(#clip-path)">
    <g id="グループ_478" data-name="グループ 478" transform="translate(418.235 1742.126)">
      <g id="グループ_467" data-name="グループ 467" transform="translate(0 0)">
        <g id="グループ_466" data-name="グループ 466" clip-path="url(#clip-path-2)">
          <path id="パス_5957" data-name="パス 5957" d="M230.4,102.119a58.285,58.285,0,0,0,4.011-9.456c.789-3.037.143-8.911-.264-11.708-1.154-7.934-5.006-13.121-10.116-17.832a36.274,36.274,0,1,0-61.687-25.881c0,1.122.067,2.228.166,3.324-.447.137-.886.275-1.3.415a16.188,16.188,0,0,0,.041-3.652c-.635-6.337-4.722-11.118-9.127-10.676s-7.46,5.938-6.825,12.276a13.379,13.379,0,0,0,4.568,9.239C139.033,68,123.5,74.667,125.636,95.973a44.181,44.181,0,0,0,1.476,6.055l-3.512,0L0,102.219V149.8H241.822V102.219ZM168.788,37.241a29.832,29.832,0,1,1,58.954,6.5l-.408,1.615a29.815,29.815,0,0,1-8.235,13.57c-2.18-1.569-8.179-8.242-10.679-11.492,1.966-2.268,4.629-9.9,3.844-16.414-.82-6.807-5.319-15.055-13.644-15.391-4.424-.178-11.321,5.36-10.78,13.076.089,1.265.575,10.327.95,11.437-3.986-.514-9.772-1.23-14.239-.781a52.929,52.929,0,0,0-5.7.525c-.034-.582-.065-2.053-.065-2.644" transform="translate(0 -0.217)" fill="none"/>
        </g>
      </g>
      <g id="グループ_471" data-name="グループ 471" transform="translate(114.553 23.296)">
        <g id="グループ_470" data-name="グループ 470" clip-path="url(#clip-path-3)">
          <path id="パス_5958" data-name="パス 5958" d="M253.459,37.855c-.587-.467-1.379-1.02-2.01-.573a4.227,4.227,0,0,0-1.047,1.953,6.865,6.865,0,0,0-.482,2.652c0,1.382,1.272,3.715,2.586,3.729.38-.028.809-.673,1.058-1.439A12.7,12.7,0,0,0,254,38.9a.08.08,0,0,1,.071-.089,6.759,6.759,0,0,1,1.075,5.869c-.852,3.061-4.1,3.247-5.064.137a19.212,19.212,0,0,1-.653-2.869c-.267-1.429-.622-3.116.207-4.5.518-1.1,2.064-1.9,3.11-.986a2.54,2.54,0,0,1,.848,1.311.082.082,0,0,1-.129.085" transform="translate(-170.641 -31.415)"/>
          <path id="パス_5959" data-name="パス 5959" d="M251.789,32.611a2.071,2.071,0,0,1,.322,3.216,2.071,2.071,0,0,1-.322-3.216" transform="translate(-171.104 -30.638)"/>
          <path id="パス_5960" data-name="パス 5960" d="M256.324,34.525a2.014,2.014,0,0,1-2.011,2.459,2.014,2.014,0,0,1,2.011-2.459" transform="translate(-171.802 -31.069)"/>
          <path id="パス_5961" data-name="パス 5961" d="M247.554,35.451a1.977,1.977,0,0,1,2.43,1.987,1.976,1.976,0,0,1-2.43-1.987" transform="translate(-170.29 -31.267)"/>
          <path id="パス_5962" data-name="パス 5962" d="M277.576,86.747a9.579,9.579,0,0,0,.848,3.564,4.151,4.151,0,0,0,.887,1.671c1.4,1.264,3.626.99,5.281.525a6.311,6.311,0,0,0,3.061-1.929.083.083,0,0,1,.144.055c-.1,3.32-4.525,4.719-7.057,2.958a19.576,19.576,0,0,1-3.444-2.648,3.5,3.5,0,0,1,.136-4.251.084.084,0,0,1,.145.055" transform="translate(-176.839 -42.809)"/>
          <path id="パス_5963" data-name="パス 5963" d="M238.473,73.522a2.819,2.819,0,0,1-1.488,3.6,2.819,2.819,0,0,1,1.488-3.6" transform="translate(-167.867 -39.849)"/>
          <path id="パス_5964" data-name="パス 5964" d="M253.353,119.91c-21.332,12.043-67.743,16.445-85.746-3.031a24.835,24.835,0,0,1-6.058-13.717c-.079-.884-.188-2.951-.258-3.794.03-1.27.069-2.543.143-3.813.1-.528.391-2.7.474-3.156.115-.382.367-1.451.49-1.853a27.35,27.35,0,0,1,1.236-3.626,9.864,9.864,0,0,1,.509-1.171c3.983-8.368,10.792-14.965,16.049-22.467a86.431,86.431,0,0,0,5.336-8.354l.211,1c-4.7-3.863-5.874-10.768-4.075-16.358,1.1-3.756,4.94-7.464,9.118-6.059,5.735,2.015,7.732,9.118,6.925,14.623a.144.144,0,0,1-.28.027.137.137,0,0,1,.091-.182l2.512-.7a.078.078,0,0,1,.041.15l-2.46.828.09-.182-.28.027a15.655,15.655,0,0,0-2.7-10.508c-3.934-5.372-9.97-3.77-11.808,2.393-1.5,4.985-.331,11.3,3.788,14.7a.788.788,0,0,1,.211,1,104.31,104.31,0,0,1-11.571,16.492c-3.663,4.471-7.431,8.946-9.979,14.149-.538,1.033-.986,2.311-1.43,3.387-.283,1.083-.782,2.442-.953,3.549-5.8,31.988,27.417,37.017,51.644,35.342,13.231-.828,26.582-3.137,38.657-8.829.083-.046.158.094.072.137" transform="translate(-150.868 -30.773)"/>
          <path id="パス_5965" data-name="パス 5965" d="M213.991,45.472a56.77,56.77,0,0,1,11.517-2.166,62.358,62.358,0,0,1,11.768.125.64.64,0,0,1,.566.707.65.65,0,0,1-1.261.163,16.964,16.964,0,0,1-.911-5.8c-.072-9.7,9.445-15.658,15.141-5.808,2.593,5.026,2.777,11.785-.859,16.355l0-.365a80.744,80.744,0,0,0,7.518,7.487c7.893,7.135,17.76,12.738,22.834,22.479a30.5,30.5,0,0,1,3.19,10.39,24.778,24.778,0,0,1-7.631,22.278,38.723,38.723,0,0,1-6.413,4.841c-.081.054-.165-.077-.085-.129,5.678-4.056,10.658-9.594,12.329-16.47,1.318-5.031.538-10.428-.876-15.371-2.561-8.55-9.284-14.693-15.992-20.227a114.284,114.284,0,0,1-15.3-14.916.283.283,0,0,1,0-.365c2.406-2.821,3.07-6.85,2.507-10.452-.54-3.53-2.387-7.263-5.652-8.9-3.448-1.767-6.946.729-8.237,3.977a15.314,15.314,0,0,0-.332,10.558L236.546,44l.564.724a72.865,72.865,0,0,0-11.55-.516,74.443,74.443,0,0,0-11.532,1.415c-.09.023-.13-.128-.036-.15" transform="translate(-162.721 -29.519)"/>
          <path id="パス_5966" data-name="パス 5966" d="M198.571,43.361c2.239,2.138,2.452,6.362-.065,8.389-.92.779-2.252.235-2.965-.561a7.455,7.455,0,0,1-1.761-5.866,5.082,5.082,0,0,1,1.346-2.992,1.825,1.825,0,0,1,3.009.46.081.081,0,0,1-.114.105c-1.884-1.275-2.51,1.078-2.595,2.6-.26,1.434.306,7.475,2.765,5.862a3.611,3.611,0,0,0,.7-2.476,16.777,16.777,0,0,0-.455-5.441.081.081,0,0,1,.13-.084" transform="translate(-158.174 -32.692)"/>
          <path id="パス_5967" data-name="パス 5967" d="M196.838,38.123a2.071,2.071,0,0,1,.322,3.216,2.071,2.071,0,0,1-.322-3.216" transform="translate(-158.731 -31.879)"/>
          <path id="パス_5968" data-name="パス 5968" d="M192.545,40.969A2.014,2.014,0,0,1,195,42.98a2.014,2.014,0,0,1-2.459-2.011" transform="translate(-157.905 -32.51)"/>
          <path id="パス_5969" data-name="パス 5969" d="M201.321,40.042a1.977,1.977,0,0,1-1.987,2.43,1.977,1.977,0,0,1,1.987-2.43" transform="translate(-159.423 -32.311)"/>
          <path id="パス_5970" data-name="パス 5970" d="M179.856,96.232a3.5,3.5,0,0,1,.977,4.139,19.583,19.583,0,0,1-2.849,3.28c-2.131,2.228-6.746,1.736-7.5-1.5a.084.084,0,0,1,.131-.083c2.178,1.731,6.687,1.956,8.454-.28a4.155,4.155,0,0,0,.538-1.815,9.576,9.576,0,0,0,.123-3.661.084.084,0,0,1,.131-.083" transform="translate(-152.936 -44.959)"/>
          <path id="パス_5971" data-name="パス 5971" d="M205.839,134.574a76.567,76.567,0,0,0,22.02,1.268c7.356-.339,14.841-1.632,21.394-5.147,9.646-4.886,17.857-13.939,18.785-25.046.332-3.632-.3-7.532-2.59-10.389,4.406,3.444,4.348,11.1,2.994,16.11-3.749,13.758-16.527,20.52-29.465,23.6-7.223,1.918-14.766,3.027-22.248,2.234a41.521,41.521,0,0,1-10.936-2.485.078.078,0,0,1,.045-.148" transform="translate(-160.877 -44.744)"/>
          <path id="パス_5972" data-name="パス 5972" d="M178.58,105.757c-1.292,2.848-1.141,5.883-.826,8.867a19.194,19.194,0,0,0,.846,4.51c1.636,4.317,5.125,7.652,8.52,10.633,2.277,2.094,5.077,3.7,7.475,5.549a21.781,21.781,0,0,1-8.53-4.277c-3.814-2.994-6.178-7.3-7.933-11.723-1.356-2.874-2.407-6.083-1.759-9.318a7.833,7.833,0,0,1,2.082-4.334.079.079,0,0,1,.125.092" transform="translate(-154.219 -47.082)"/>
          <path id="パス_5973" data-name="パス 5973" d="M217.882,75.635a2.819,2.819,0,0,1,2.174,3.234,2.818,2.818,0,0,1-2.174-3.234" transform="translate(-163.6 -40.325)"/>
          <path id="パス_5974" data-name="パス 5974" d="M197.656,48.732c.18,1.789-.335,3.306-1.148,3.388s-1.619-1.3-1.8-3.092.334-3.306,1.148-3.388,1.618,1.3,1.8,3.092" transform="translate(-158.384 -33.571)"/>
          <path id="パス_5975" data-name="パス 5975" d="M252.607,43.22c.18,1.789-.335,3.306-1.148,3.388s-1.619-1.3-1.8-3.092.334-3.306,1.148-3.388,1.618,1.3,1.8,3.092" transform="translate(-170.756 -32.33)"/>
          <path id="パス_5976" data-name="パス 5976" d="M198.462,163.55c6.268,7.359,15.757,11.286,25.232,12.228a40.482,40.482,0,0,0,26.7-8.833,26.985,26.985,0,0,0,9.929-15.867,18.83,18.83,0,0,1-2.525,9.528c-6.61,11.937-21.218,16.379-34.131,15.674-6.532-.1-13.272-1.575-18.648-5.48a23.247,23.247,0,0,1-6.687-7.16c-.05-.078.073-.161.128-.088" transform="translate(-159.206 -57.311)"/>
          <path id="パス_5977" data-name="パス 5977" d="M194.381,154.646a19.372,19.372,0,0,0,1.447,7.384,20.141,20.141,0,0,1-2.991-7.237.778.778,0,1,1,1.544-.147" transform="translate(-157.967 -57.941)"/>
          <g id="グループ_469" data-name="グループ 469" transform="translate(23.927 97.504)">
            <g id="グループ_468" data-name="グループ 468" clip-path="url(#clip-path-4)">
              <path id="パス_5978" data-name="パス 5978" d="M191.313,178.591c-1.223-.447-2.438-.258-3.721-.618-2.051-.61-.937-2.6-.263-3.8,2.289-4.54,6.83-8.536,12.166-8.2,5.668.139,8.8,6.232,7.949,11.354a21.06,21.06,0,0,1-2.346,7.347c-.955,2.083-2.607,2.207-4.069.493a6.5,6.5,0,0,0-2.6-2.108c-.782-.294-1.7.129-2.592.143a2.979,2.979,0,0,1-2.6-1.588c-.3-.628-.337-1.247-.584-1.808l.134-.077c.663,1.082.859,2.2,2.241,2.517a2.427,2.427,0,0,0,1.576-.158c2.614-1.088,4.37,1.029,6.112,2.532.184.124.37.2.353.163a2.5,2.5,0,0,0,.564-.865c1.622-3.213,2.859-6.716,2.492-10.327-.341-5.387-5.082-8.786-10.135-6.3-3.283,1.587-5.645,4.458-7.62,7.5-.342.673-1.052,1.354-.948,2.033a.832.832,0,0,0,.464.383c1.022.452,2.419.537,3.5,1.254Z" transform="translate(-180.451 -158.164)"/>
              <path id="パス_5979" data-name="パス 5979" d="M264.682,173.92c-8.325-2.418-11.768,7.339-10.588,14.019.24.921.29,2.693,1.1,3.176.4.145.967-.184,1.447-.518a7.623,7.623,0,0,1,3.484-1.729c1.3-.275,2.442.889,3.515.835,1.289-.128,1.469-.807,2.236-1.915a4.606,4.606,0,0,1,3.974-1.541,9.439,9.439,0,0,0,2.327-.026c.15-.126.014-.576-.008-.766-.913-3.8-2.39-7.558-5.325-10.3l.093-.124a14.132,14.132,0,0,1,4.985,5.609,23.749,23.749,0,0,1,1.752,4.416,2.113,2.113,0,0,1-.707,2.577c-1.934.939-4.36-.584-5.9,1.117a10.538,10.538,0,0,1-1.224,1.54,3.368,3.368,0,0,1-3.315.567c-.837-.346-1.463-.964-2.347-.937-1.518-.028-2.7,1.145-4.09,1.654-2.138.729-2.11-2.26-2.5-3.55-1.137-4.816-.954-11.021,3.71-14.046a7.127,7.127,0,0,1,7.432-.2l-.059.143" transform="translate(-195.447 -159.713)"/>
            </g>
          </g>
        </g>
      </g>
      <g id="グループ_473" data-name="グループ 473" transform="translate(168.787 7.192)">
        <g id="グループ_472" data-name="グループ 472" clip-path="url(#clip-path-5)">
          <path id="パス_5982" data-name="パス 5982" d="M258.334,34.537c-.946-.716-2.043-1.585-3.1-.882a6.511,6.511,0,0,0-1.617,3.013,10.548,10.548,0,0,0-.746,4.1,7.3,7.3,0,0,0,2.752,5.308,1.727,1.727,0,0,0,1.241.45c.852-.186,1.314-1.353,1.634-2.222a19.648,19.648,0,0,0,.666-8.151.125.125,0,0,1,.109-.138,8.6,8.6,0,0,1,1.853,4.3c.383,2.359.242,5.109-1.42,7.1a3.418,3.418,0,0,1-5.417.043c-1.523-1.9-1.736-4.367-2.185-6.6-.428-2.287-.951-4.793.315-6.954.793-1.676,3.145-2.938,4.809-1.521a3.935,3.935,0,0,1,1.309,2.025.126.126,0,0,1-.2.132" transform="translate(-225.44 -14.344)"/>
          <path id="パス_5983" data-name="パス 5983" d="M255.752,26.438a3.2,3.2,0,0,1,.5,4.968,3.2,3.2,0,0,1-.5-4.968" transform="translate(-226.155 -13.145)"/>
          <path id="パス_5984" data-name="パス 5984" d="M262.758,29.393a3.109,3.109,0,0,1-3.106,3.8,3.11,3.11,0,0,1,3.106-3.8" transform="translate(-227.233 -13.81)"/>
          <path id="パス_5985" data-name="パス 5985" d="M249.213,30.823a3.051,3.051,0,0,1,3.753,3.068,3.051,3.051,0,0,1-3.753-3.068" transform="translate(-224.898 -14.116)"/>
          <path id="パス_5986" data-name="パス 5986" d="M295.584,110.055a14.992,14.992,0,0,0,1.309,5.5,6.407,6.407,0,0,0,1.371,2.582,4.693,4.693,0,0,0,2.672,1.261c3.869.408,7.391-.376,10.21-3.43a.128.128,0,0,1,.181-.011c.186,2.316-1.844,4.579-4.072,5.407a7.89,7.89,0,0,1-6.785-.741c-.962-.614-1.817-1.264-2.7-1.894a11.338,11.338,0,0,1-2.617-2.2,5.4,5.4,0,0,1,.208-6.566.131.131,0,0,1,.224.085" transform="translate(-235.014 -31.943)"/>
          <path id="パス_5987" data-name="パス 5987" d="M235.186,89.627a4.353,4.353,0,0,1-2.3,5.563,4.353,4.353,0,0,1,2.3-5.563" transform="translate(-221.155 -27.372)"/>
          <path id="パス_5988" data-name="パス 5988" d="M120.289,113.249c4.586-16.351,17.849-27.9,27.859-40.914,1.917-2.82,3.892-5.7,5.539-8.7a8.524,8.524,0,0,0,.994-2.006.877.877,0,0,0-.163-.262,23.613,23.613,0,0,1-7.246-18.285c.317-6.415,3.048-14.264,10.006-15.968,9.256-2.036,14.866,6.732,16,14.764a25.081,25.081,0,0,1,.056,8.434l-.489-.4c1.31-.328,2.618-.648,3.928-.945a.12.12,0,0,1,.071.228c-1.253.491-2.507.96-3.759,1.422a.365.365,0,0,1-.469-.216c.26-7.13-2.29-17.467-9.4-20.479a9.365,9.365,0,0,0-5.353-.314c-5.731,1.5-7.952,8.192-8.423,13.618a22.6,22.6,0,0,0,5.184,16.72,4.051,4.051,0,0,1,.973,1.5c.062,1.02-.816,1.793-1.2,2.6a234.2,234.2,0,0,1-20.488,28.66,132.315,132.315,0,0,0-8.469,11.6,71.741,71.741,0,0,0-4.93,9.023c-.05.132-.273.057-.225-.081" transform="translate(-195.869 -13.23)"/>
          <path id="パス_5989" data-name="パス 5989" d="M197.374,46.418a88.076,88.076,0,0,1,35.972-3.206l-1.138,1.39c-3.518-9.846.38-28.783,14.2-24.782,7.812,3.089,11.358,12.01,10.992,19.968a25.059,25.059,0,0,1-3.8,12.271V51.052a76.434,76.434,0,0,0,10.222,11.4c.8.471,2.139.573,2.99,1.419l.656.64c.894.874,5.444,5.336,6.422,6.293l-.16-.136C285.6,79.083,296.8,89.816,301.767,103.83a42.558,42.558,0,0,1,2.416,14.38.12.12,0,0,1-.119.119.122.122,0,0,1-.119-.109,47.837,47.837,0,0,0-3.443-13.906c-3.761-8.791-9.966-16.283-17.046-22.626A144.077,144.077,0,0,0,272.089,72.6l-5.033-5.136L265.8,66.178a3.662,3.662,0,0,0-1.022-.877c-.657-.273-2.158-.673-2.752-1.411a69.389,69.389,0,0,1-9.936-11.83.876.876,0,0,1,0-1.007,23.248,23.248,0,0,0,1.982-23.324c-1.842-3.056-4.474-5.98-7.936-7.1a8.9,8.9,0,0,0-9.476,2.827c-4.2,5.408-4.245,14.146-2.442,20.465a1.059,1.059,0,0,1-1.139,1.39,106.96,106.96,0,0,0-26.749-.022c-2.978.327-5.935.828-8.9,1.358-.139.033-.2-.2-.057-.232" transform="translate(-213.208 -11.532)"/>
          <path id="パス_5990" data-name="パス 5990" d="M173.551,43.034c3.462,3.3,3.788,9.825-.1,12.959-3.227,2.211-6.265-2.358-6.892-5.114a11.25,11.25,0,0,1,.225-7.227c.6-1.6,2.192-3.529,4.155-3.095a2.97,2.97,0,0,1,1.939,1.6.124.124,0,0,1-.175.163c-4.412-2.695-4.245,5.521-3.929,8.091.391,1.843.67,4.319,2.476,5.3,1.354.606,2.411-.86,2.6-2.094a27.15,27.15,0,0,0-.5-10.453.126.126,0,0,1,.2-.129" transform="translate(-206.179 -16.31)"/>
          <path id="パス_5991" data-name="パス 5991" d="M170.878,34.952a3.2,3.2,0,0,1,.5,4.968,3.2,3.2,0,0,1-.5-4.968" transform="translate(-207.045 -15.062)"/>
          <path id="パス_5992" data-name="パス 5992" d="M164.248,39.348a3.109,3.109,0,0,1,3.8,3.1,3.109,3.109,0,0,1-3.8-3.1" transform="translate(-205.768 -16.036)"/>
          <path id="パス_5993" data-name="パス 5993" d="M177.8,37.915a3.053,3.053,0,0,1-3.068,3.754,3.053,3.053,0,0,1,3.068-3.754" transform="translate(-208.113 -15.729)"/>
          <path id="パス_5994" data-name="パス 5994" d="M131.717,138.254c-.349.311-1.043.688-1.076.253.014-.2.2-.554.169-.68s-.184-.122-.427-.053c-.382.112-.736.126-.934-.139a1.52,1.52,0,0,1,.751-1.353,2.536,2.536,0,0,1,1.275-.209c.153.171.005.514-.13.81-.1.221-.123.385.007.394s.455-.2.623-.255c.388-.141-.01.994-.256,1.233" transform="translate(-197.93 -37.823)"/>
          <path id="パス_5995" data-name="パス 5995" d="M147.374,124.709a3.382,3.382,0,0,1,1.946,3.462c-.243.995-.944,1.806-1.047,2.831a6.451,6.451,0,0,1-2.007,4.538,4.761,4.761,0,0,1-3.887,1.072.141.141,0,0,1-.11-.167,21.441,21.441,0,0,1,2.836-3.33,20.6,20.6,0,0,0,2.408-2.381,2.772,2.772,0,0,0-.188-2.509,4.987,4.987,0,0,1-.188-1.536,9.961,9.961,0,0,1,.037-1.87.146.146,0,0,1,.2-.112" transform="translate(-200.819 -35.268)"/>
          <path id="パス_5996" data-name="パス 5996" d="M308.366,140.848a10.676,10.676,0,0,1-.8-4.524c.336-1.58.478-3.071-.54-4.46a19.084,19.084,0,0,1-3.4-8.509.136.136,0,0,1,.2-.129,9.716,9.716,0,0,1,4.386,7.033,16.3,16.3,0,0,0,.387,3.6c.222.77.724,1.5.958,2.277a5.684,5.684,0,0,1,.036,2.43,5.563,5.563,0,0,1-.983,2.318.139.139,0,0,1-.237-.032" transform="translate(-237.148 -34.933)"/>
          <path id="パス_5997" data-name="パス 5997" d="M203.382,92.891a4.353,4.353,0,0,1,3.358,5,4.353,4.353,0,0,1-3.358-5" transform="translate(-214.566 -28.107)"/>
          <path id="パス_5998" data-name="パス 5998" d="M172.142,51.339c.277,2.764-.517,5.107-1.773,5.233s-2.5-2.012-2.777-4.776.517-5.107,1.773-5.233,2.5,2.012,2.777,4.776" transform="translate(-206.509 -17.675)"/>
          <path id="パス_5999" data-name="パス 5999" d="M257.016,42.825c.277,2.764-.517,5.107-1.773,5.233s-2.5-2.012-2.777-4.776.517-5.107,1.773-5.233,2.5,2.012,2.777,4.776" transform="translate(-225.618 -15.758)"/>
        </g>
      </g>
      <g id="グループ_475" data-name="グループ 475" transform="translate(114.553 0)">
        <g id="グループ_474" data-name="グループ 474" clip-path="url(#clip-path-6)">
          <path id="パス_6001" data-name="パス 6001" d="M223.4,65.957c-20.713-15.157-19.179-46.709,2.81-59.89a37.792,37.792,0,0,1,40.074.79c16.534,10.606,21.405,33.86,10.557,50.272a36.625,36.625,0,0,1-33.322,16.716,35.7,35.7,0,0,1-16.552-5.45l.08-.133c16.357,9.506,38.48,4.079,48.447-11.994a36.019,36.019,0,0,0-.194-38.844C267.852,5.668,253.179-.943,239.444,1.741,220.861,4.8,207.6,23.815,210.311,42.261a36.937,36.937,0,0,0,13.182,23.574l-.095.122" transform="translate(-161.553 -0.159)"/>
          <path id="パス_6002" data-name="パス 6002" d="M276.361,47.02c-6.9,26.1-41.231,30.383-54.707,7.084-13.31-23.245,6.7-50.972,33.007-45.022,15.9,3.626,26.317,20.584,22.107,36.319l-.151-.035a31.316,31.316,0,0,0,.526-5.742c.115-13.433-9.715-26.1-22.864-28.934-15.049-3.808-31.334,5.918-35.19,21-4.376,15.375,5.472,31.74,20.948,35.363a30.074,30.074,0,0,0,30.689-10.027,31.8,31.8,0,0,0,5.486-10.046Z" transform="translate(-163.505 -1.861)"/>
          <path id="パス_6003" data-name="パス 6003" d="M261.308,114.621a14.028,14.028,0,0,1,8.578-1.343,10.842,10.842,0,0,1-8.578,1.343" transform="translate(-173.387 -25.462)"/>
          <path id="パス_6004" data-name="パス 6004" d="M266.412,94.8A272.87,272.87,0,0,1,272,127.325a.246.246,0,0,1-.205.287c-3.156.48-6.3,1.062-9.425,1.708a.374.374,0,0,1-.445-.318c-2.339-11.325-4.489-23.254-5.958-34.717a.559.559,0,0,1,.53-.659c1.417-.015,3.37-.11,4.765-.151,1.57-.235,3.143-.482,4.735-.688a.077.077,0,0,1,.089.063.081.081,0,0,1-.055.088,35.335,35.335,0,0,1-7.067,1.544l-2.411.276.53-.659c2.321,11.319,4.152,23.307,5.6,34.776l-.446-.318c3.17-.4,6.329-.869,9.471-1.437l-.205.287c-.987-5.409-2.328-10.761-3.14-16.2-.853-5.434-1.625-10.88-2.106-16.376-.012-.088.134-.119.153-.026" transform="translate(-172.182 -20.891)"/>
        </g>
      </g>
      <g id="グループ_477" data-name="グループ 477" transform="translate(0 0)">
        <g id="グループ_476" data-name="グループ 476" clip-path="url(#clip-path-2)">
          <path id="パス_6005" data-name="パス 6005" d="M0,131.334c27.341-.726,55.754-.757,83.126-.241,52.9.1,105.8-1.26,158.7.242v.154c-52.892,1.5-105.8.146-158.7.24-16.8.31-36.078.465-52.9.277-9.979-.251-20.549.056-30.228-.672" transform="translate(0 -29.41)"/>
          <path id="パス_6006" data-name="パス 6006" d="M85.894,105.85c.145.251,17.817-10.854,18.062-10.429.2.347-12.305,8.085-12.066,8.5.06.106,13.65-8.351,13.854-8,.181.313-13.564,7.65-13.369,7.987.21.363,13.977-8.61,14.211-8.2.187.324-11.32,7.668-11.265,7.763.24.416,12.048-7.147,12.131-7,.045.078-10.578,6.785-10.522,6.881.136.235,11.7-7.145,11.868-6.853.124.215-9.153,6.23-8.994,6.5.219.38,10.567-6.395,10.694-6.174.031.054-10.372,6.355-10.257,6.554s10.808-6.695,11-6.354c.12.207-9.146,6.3-9,6.559.163.283,9.567-6.041,9.791-5.653.135.233-8.537,5.706-8.441,5.873.163.281,9.8-5.737,9.835-5.678.106.184-9.4,5.332-9.323,5.471.176.3,9.357-5.886,9.566-5.523.1.169-9.239,5.322-9.077,5.6.036.064,9.629-5.843,9.752-5.63.062.108-8.424,6.024-8.344,6.165.178.308,9.073-5.389,9.138-5.276s-7.9,5.67-7.736,5.95,8.622-5.3,8.764-5.06c.108.187-7.671,5.246-7.533,5.484.16.277,8.858-5.5,9.025-5.21.107.185-9.241,5.014-9.061,5.326.1.174,8.926-5.584,9.113-5.261.029.05-8.055,5.447-7.9,5.711.184.318,8.977-5.481,9.106-5.257.161.278-7.838,5.638-7.735,5.814.063.11,8.125-4.795,8.17-4.717.121.208-6.471,5.013-6.4,5.133s7.644-4.756,7.793-4.5c.067.115-6.475,4.737-6.449,4.784.057.1,6.4-4.047,6.551-3.782.069.119-6.166,3.974-6.11,4.072s7.1-4.257,7.165-4.137c.112.2-6.544,4.121-6.484,4.227.105.182,6.537-4.042,6.654-3.842.053.093-6.4,4.137-6.313,4.286.067.117,7.169-4.352,7.261-4.193.069.121-7.088,4.543-7.041,4.626.163.281,6.857-4.065,6.9-3.985.064.11-6.214,4.4-6.192,4.434.117.2,7.118-4.378,7.234-4.177.046.081-7.832,4.637-7.8,4.686.122.213,7.107-4.465,7.264-4.194.1.166-5.768,4.2-5.715,4.288.106.184,6.885-4.084,6.933-4,.022.04-6.93,4.369-6.833,4.538.072.124,6.215-3.879,6.341-3.66.117.2-5.532,4.228-5.481,4.315.129.225,6.764-4.29,6.93-4,.1.171-6.671,3.637-6.562,3.825.029.051,6.874-4.05,6.909-3.988s-6.9,4.765-6.824,4.9c.04.07,6.969-4.3,7.088-4.092s-6.127,3.882-6.01,4.086c.082.143,5.921-3.682,6.035-3.485.043.074-5.662,4.194-5.609,4.285.1.18,7.03-4.288,7.129-4.116.137.236-6.391,4.513-6.308,4.657.115.2,5.632-3.56,5.766-3.329.106.185-5.69,4.008-5.608,4.148.056.1,6.615-3.926,6.661-3.846s-6.058,3.7-6.032,3.749c.095.163,5.564-3.4,5.646-3.26.061.105-6.895,3.9-6.761,4.135.052.09,7.827-4.7,7.907-4.565.09.157-7.038,4.636-6.943,4.8.148.256,6.547-3.986,6.637-3.832.1.177-6.547,4-6.44,4.187.068.117,7.232-4.523,7.383-4.262.056.1-6.073,4.541-6.052,4.579.05.085,5.622-3.526,5.743-3.316s-6.454,3.846-6.427,3.891c.129.222,7.316-4.39,7.388-4.265.033.057-6.61,4.84-6.567,4.916.072.124,6.291-3.872,6.395-3.692s-5.916,4.374-5.863,4.466c.095.164,6.613-4.1,6.734-3.888.059.1-6.665,3.811-6.532,4.042.073.125,5.852-3.615,5.954-3.437.043.074-4.984,4.055-4.882,4.232.092.16,5.729-3.625,5.866-3.388.033.056-6.024,3.564-5.966,3.667.112.2,6.046-3.549,6.071-3.505.051.088-6.251,5.012-6.154,5.181.054.093,7.065-4.277,7.15-4.128.106.184-5.547,4.52-5.444,4.7.051.088,5.691-3.433,5.754-3.323.04.07-6.775,3.819-6.64,4.053.025.043,7.017-4.26,7.108-4.1s-6.828,5-6.713,5.2c.16.276,6.8-4.224,6.928-4,.022.038-5.911,3.78-5.845,3.894.036.062,5.946-3.557,6-3.464.117.2-5.882,3.484-5.832,3.571.069.119,5.883-3.567,5.957-3.44.045.078-6.792,4.964-6.768,5.006.126.219,7.566-4.5,7.624-4.4.071.124-6.908,4.371-6.777,4.6.057.1,6.761-4.052,6.826-3.941.08.139-7.032,4.235-6.929,4.413.132.229,6.617-4.169,6.768-3.908.067.114-5.866,4.9-5.824,4.973.15.26,6.586-4.157,6.74-3.891.051.088-6.559,4.867-6.459,5.04.162.28,6.139-3.853,6.272-3.621.077.134-6.773,4.678-6.749,4.72.059.1,6.585-3.935,6.643-3.835.083.144-5.992,4.45-5.969,4.489.035.06,6.713-3.964,6.751-3.9.08.137-6.974,4.7-6.826,4.961.166.287,7.267-4.325,7.323-4.228.143.249-6.732,5.112-6.614,5.315.092.16,7.062-4.374,7.191-4.152.119.2-7.358,4.784-7.212,5.036.074.13,6.749-4.021,6.8-3.928.025.043-7.028,4.816-6.948,4.954s6.476-4.069,6.619-3.822c.087.15-6.324,3.617-6.214,3.808.164.284,6.915-4.105,6.964-4.021.032.055-7.8,4.682-7.708,4.838.129.223,6.86-4.111,6.926-4,.108.188-5.93,4.838-5.828,5.013s6.569-3.969,6.645-3.837c.062.108-7.852,4.534-7.819,4.592.1.172,7.45-4.431,7.506-4.334.026.043-7.322,4.114-7.179,4.363.047.081,7.07-4.449,7.23-4.174.081.14-6.7,5.142-6.672,5.2.075.129,6.527-4.05,6.648-3.839.093.16-7.629,4.222-7.48,4.482.12.208,8.4-4.957,8.449-4.878.136.235-7.681,5.566-7.642,5.635.147.256,6.953-4.369,7.108-4.1.063.109-6.394,5.116-6.367,5.164.121.209,6.124-3.661,6.179-3.567.1.173-5.151,2.958-5.047,3.136.069.121,5.788-3.66,5.926-3.421.077.134-3.559,3.41-3.511,3.493.035.06,2.462-1.528,2.507-1.448.007.012-1.509,1.3-1.488,1.34s2.347-1.4,2.366-1.366c.04.068-.914,2.06-.888,2.106s1.288-.8,1.311-.757-.742.735-.731.755c0,0,.721-.446.734-.424s-.387.42-.386.423.381-.234.387-.224" transform="translate(-19.339 -21.482)" fill="none" stroke="#000" stroke-linecap="round" stroke-linejoin="round" stroke-width="1"/>
          <path id="パス_6007" data-name="パス 6007" d="M67.593,99.681c.067.115,5.268-3.28,5.371-3.1.046.08-10.125,6.939-10.085,7.007.152.263,14.933-8.754,14.99-8.655.177.307-15.482,8.448-15.2,8.932.3.511,15.52-9.383,15.7-9.066.218.376-18.514,11.122-18.3,11.5.25.432,21.648-13.182,21.944-12.67.492.852-24.015,14.8-23.854,15.082.293.508,32-19.69,32.523-18.778.38.659-33.3,18.389-32.733,19.368.61,1.056,32.589-19.4,32.84-18.961.277.481-34.278,19.071-33.805,19.889.2.338,34.877-20.626,35.089-20.258.58,1-36.361,21.61-36.2,21.886.233.4,36.331-22.521,37-21.363.422.731-37.875,21.5-37.434,22.261C56.1,113.9,94.5,89.333,94.875,89.986c.566.981-40.351,22.953-39.8,23.908.659,1.142,39.073-22.973,39.252-22.663.164.284-40.966,22.83-40.42,23.776s40.96-24.326,41.253-23.818c.49.848-41.483,24.9-41.279,25.252.418.725,40.309-24.748,40.948-23.641.584,1.013-42.509,24.911-42.309,25.258.652,1.128,42.541-24.9,42.689-24.646.394.682-43.347,23.349-42.614,24.621.56.969,42.08-24.612,42.217-24.374.592,1.025-42.923,22.958-42.087,24.406.82,1.421,42.018-25.954,42.751-24.683.852,1.475-43.43,25.131-43.281,25.388.428.743,43.314-25.557,43.552-25.145.2.339-44.487,24.467-43.684,25.858.277.48,18.03-10.97,18.272-10.55.081.139-18.387,11.12-18.223,11.4.1.167,14.861-9.089,15.081-8.707.294.509-15.751,10.308-15.65,10.484.175.3,12.31-7.747,12.587-7.267.041.071-13.237,8.018-13.164,8.145.146.253,12.146-7.49,12.353-7.132.181.315-12.037,7.737-11.992,7.816.185.32,11.063-6.692,11.194-6.463.144.249-11.835,8.113-11.684,8.375.1.18,10.524-6.334,10.636-6.141.086.15-11.5,7.163-11.421,7.308.221.383,11.018-6.66,11.148-6.436.2.348-11.56,7.653-11.41,7.912.1.168,10.109-6.044,10.2-5.888.144.25-10.372,6.691-10.259,6.887.216.373,10.074-6.056,10.178-5.876.087.15-10.009,6.783-9.8,7.142.173.3,8.688-5.285,8.8-5.083.074.128-9.755,5.467-9.6,5.731.09.155,9.29-5.68,9.427-5.443.15.259-8.35,5.088-8.238,5.281.136.235,7.808-4.7,7.893-4.558.177.306-8.716,5.276-8.588,5.5.163.282,8.868-5.28,8.937-5.16.088.151-9.209,6.341-9.013,6.68.075.13,8.365-5.116,8.489-4.9.074.128-8.286,5.987-8.206,6.126s7.824-4.634,7.875-4.546c.166.287-8.756,6.313-8.613,6.561.039.066,8.049-5,8.2-4.736.052.089-7.773,4.827-7.747,4.871.04.068,7.312-4.421,7.4-4.271.029.05-6.781,4.583-6.707,4.711.157.272,6.468-3.821,6.5-3.756.091.158-5.309,3.647-5.229,3.786.093.161,5.8-3.536,5.883-3.4s-3.929,3.567-3.861,3.684,4.162-2.479,4.2-2.422-1.021,2.156-1.009,2.177c.022.038,1.007-.68,1.05-.606.016.028-.249,1.145-.239,1.162s.383-.231.387-.223" transform="translate(-11.093 -20.242)" fill="none" stroke="#000" stroke-linecap="round" stroke-linejoin="round" stroke-width="1"/>
          <path id="パス_6008" data-name="パス 6008" d="M93.116,90.138c0,.009.382-.236.389-.225s-.336,1.017-.331,1.027c.026.045.883-.556.9-.521,0,.006-.358.24-.356.243a13.092,13.092,0,0,0,1.262-.728c.012.022-1.372,1.333-1.341,1.386.014.025,2.248-1.318,2.257-1.3.041.071-2.133,1.364-2.115,1.395s1.967-1.279,2.029-1.171c.026.045-1.89,2.252-1.844,2.332a41.666,41.666,0,0,0,3.688-2.129c.057.1-4.271,2.371-4.2,2.5.1.178,4.115-2.541,4.187-2.418" transform="translate(-20.965 -20.244)" fill="none" stroke="#000" stroke-linecap="round" stroke-linejoin="round" stroke-width="1"/>
          <path id="パス_6009" data-name="パス 6009" d="M78.316,87.3c.239.415,22.492-13.846,22.864-13.2.076.132-17.085,10.9-17.02,11.011.18.311,17.991-10.544,18.059-10.426.2.349-17.652,9.61-17.334,10.161s17.36-10.489,17.563-10.14c.183.318-15.564,9.5-15.381,9.816.2.349,17.377-10.583,17.615-10.17.3.518-14.363,9.376-14.266,9.546.146.255,15.754-9.706,16.018-9.249.17.3-14.845,8.454-14.591,8.894.285.494,14.371-8.569,14.489-8.365s-14.441,8.246-14.24,8.592c.087.151,15.252-9.023,15.347-8.86.22.382-13.522,8.653-13.462,8.757.092.159,13.509-8.408,13.773-7.951.142.246-12.556,7.554-12.408,7.811.242.418,13.921-8.356,14.059-8.117.175.3-12.186,7.572-12.016,7.868.227.393,12.249-7.214,12.31-7.107.051.088-12.577,7.31-12.408,7.6.184.318,13.646-8.106,13.745-7.935.131.227-10.617,7.423-10.562,7.518.131.227,11.621-7.171,11.821-6.825.162.28-11.51,7.348-11.455,7.443.2.34,12.651-7.407,12.7-7.329.116.2-12.8,6.908-12.585,7.284.168.291,12.142-7.106,12.184-7.034.167.289-12.078,6.535-11.842,6.943.245.424,12.259-7.583,12.477-7.2.243.421-12.265,7.383-12.223,7.456.125.215,12.319-7.271,12.387-7.152.052.089-11.514,6.8-11.3,7.163.184.318,11.706-7.129,11.867-6.851.046.08-10.308,6.62-10.214,6.782.072.125,10.78-6.6,10.946-6.32.176.3-9.128,6.578-9.067,6.684.145.251,9.9-6.246,10.131-5.849.03.053-9.9,6.133-9.846,6.229.125.215,10.13-6.256,10.307-5.951.132.228-8.611,5.787-8.578,5.845.163.283,9.552-5.784,9.669-5.582.1.173-7.949,5.976-7.844,6.157s9.669-5.821,9.772-5.642c.074.127-9.672,6.135-9.6,6.258.208.361,10.377-6.273,10.5-6.062.162.28-9.206,6.36-9.085,6.569.095.163,9.787-5.852,9.874-5.7.125.216-8.881,5.866-8.784,6.036.213.368,9.935-5.973,10.037-5.8.072.125-8.169,5.8-8,6.1s8.766-5.333,8.883-5.129c.074.126-9.631,5.4-9.481,5.66.09.157,9.393-5.742,9.531-5.5s-7.893,4.838-7.788,5.021c.138.239,7.98-4.807,8.067-4.658.169.293-8.331,5.066-8.208,5.279.167.289,9.094-5.413,9.164-5.291s-7.969,5.681-7.8,5.978c.078.135,8.73-5.337,8.859-5.115.067.115-7.38,5.484-7.308,5.608s8.286-4.906,8.34-4.815c.15.26-7.831,5.811-7.7,6.035.04.07,8.556-5.315,8.719-5.033.053.091-7.955,4.93-7.927,4.975.042.072,7.824-4.727,7.914-4.569.029.05-6.8,4.593-6.723,4.721.17.293,7.164-4.231,7.205-4.16.115.2-6.738,4.425-6.638,4.6.119.205,7.795-4.736,7.9-4.559.13.226-7.368,5.439-7.252,5.641.142.246,8.584-5.1,8.646-4.992.112.194-7.062,5.567-7.016,5.646.093.16,7.962-5.02,8.145-4.7.126.218-7.5,5.23-7.419,5.365.116.2,6.908-4.229,7.012-4.049.07.122-7.19,3.882-7.064,4.1.074.126,8.189-4.8,8.22-4.746.095.163-6.879,5.216-6.738,5.46.082.142,7.256-4.49,7.387-4.265.081.141-8.07,4.376-7.927,4.624.169.292,7.908-4.884,8.045-4.645.076.13-7.543,5.126-7.439,5.305.088.154,7.934-4.655,7.965-4.6.066.113-7.269,5.4-7.172,5.567.181.312,7.105-4.5,7.28-4.2.113.2-6.215,3.856-6.183,3.912.079.137,6.869-4.379,7.047-4.07.055.1-7.345,4.606-7.266,4.743.1.174,8.141-4.914,8.234-4.754s-7.066,4.9-6.916,5.159c.111.193,6.756-3.973,6.787-3.918.127.219-7.66,4.348-7.537,4.562.165.287,8.221-4.806,8.247-4.761.057.1-6.924,5.188-6.8,5.407.106.184,7.691-4.716,7.81-4.509s-7.028,5.2-6.97,5.3c.116.2,7.339-4.367,7.4-4.269.076.131-7.552,5.119-7.48,5.244.045.078,7.566-4.592,7.662-4.424.081.14-8,4.495-7.861,4.739.1.176,7.508-4.625,7.634-4.407.054.093-5.871,4.563-5.765,4.747.14.243,7.288-4.472,7.4-4.274s-7.041,4.683-6.994,4.765c.138.239,6.78-4.2,6.9-3.985.11.189-7.425,4.331-7.347,4.466.043.074,7.191-4.239,7.229-4.174.077.135-6.585,4.539-6.553,4.595.146.253,7.5-4.7,7.657-4.421.131.227-8.195,4.594-8.091,4.774.077.136,7.452-4.606,7.583-4.379.025.043-7.193,5.095-7.166,5.142.084.145,7.349-4.4,7.417-4.282.077.133-6.148,4.035-6.1,4.117.174.3,6.679-4.088,6.78-3.914.053.093-6.908,4.97-6.814,5.133.036.064,7.335-4.627,7.5-4.332.094.163-6.138,4.983-6.054,5.129.108.188,6.976-4.119,7.015-4.05.074.128-7.886,4.706-7.735,4.966.088.152,7.38-4.583,7.519-4.341.079.136-6.923,4.888-6.836,5.039.115.2,7.528-4.639,7.655-4.419.047.082-7.187,4.853-7.094,5.012.121.209,6.719-4.211,6.862-3.962.032.055-6.212,4.856-6.116,5.023.115.2,6.82-4.083,6.884-3.974.126.219-7.189,4.489-7.051,4.727.159.276,7.641-4.706,7.768-4.485.045.077-7.444,4.356-7.384,4.462.128.222,7.728-4.59,7.784-4.494.1.165-8.024,4.581-7.919,4.763.085.147,7.8-4.813,7.933-4.58.045.077-7.713,4.717-7.581,4.945.069.119,7.223-4.514,7.373-4.256.081.141-7.066,3.982-6.973,4.142.046.082,7.061-4.4,7.2-4.157.071.123-6.643,4.636-6.6,4.717.15.26,7.046-4.358,7.171-4.14.054.093-7.342,4.447-7.219,4.659.143.249,6.41-4.07,6.57-3.793.135.234-7.567,4.292-7.452,4.493.126.218,8.132-4.811,8.182-4.724.109.188-7.6,5.141-7.463,5.371.15.26,6.874-4.1,6.931-4,.086.148-6.816,4.419-6.768,4.5.036.062,7.563-4.721,7.716-4.455.055.1-7.552,4.582-7.511,4.655.137.237,7.467-4.642,7.611-4.394.029.051-6.737,4.077-6.7,4.137.167.288,6.356-4.039,6.516-3.762.039.067-6.434,4.51-6.357,4.644s6.471-3.815,6.5-3.756c.086.15-7.437,4.739-7.393,4.816.164.284,8.04-4.934,8.167-4.715.053.092-6.816,5.27-6.686,5.5.089.155,6.849-4.25,6.977-4.028s-7.382,4.794-7.332,4.88c.163.284,7.526-4.632,7.651-4.417.141.245-7.93,5.415-7.777,5.679.026.045,7.335-4.357,7.389-4.266.022.039-6.918,4.259-6.87,4.341.077.133,7.292-4.514,7.424-4.286.083.144-7.632,4.9-7.607,4.938.06.1,8.4-5.027,8.478-4.9.117.2-8.125,6.117-8.04,6.265.068.118,8.406-4.944,8.445-4.876.1.175-7.824,4.818-7.7,5.024.036.062,7.793-4.883,7.96-4.595.088.152-8.285,5.291-8.188,5.461.17.293,7.666-4.644,7.76-4.48.109.19-7.342,4.758-7.3,4.833.171.3,7.772-4.748,7.885-4.552s-7.442,4.6-7.418,4.645c.178.308,7.607-4.565,7.683-4.435.119.207-7.636,4.922-7.518,5.127.143.249,7.129-4.489,7.29-4.209s-8.227,5.27-8.079,5.526c.065.114,8.5-5.293,8.67-5.006.116.2-7.836,5.405-7.731,5.586s7.59-4.5,7.64-4.411c.115.2-7.509,4.733-7.452,4.833.034.058,7.742-4.568,7.785-4.494.1.177-8.349,5.794-8.24,5.983.163.282,7.249-4.576,7.418-4.283.119.208-6.687,5.035-6.664,5.074.1.177,6.937-4.3,7.064-4.078.076.131-7.955,4.522-7.83,4.739.163.282,8.27-5.088,8.406-4.853.159.276-8.355,5.229-8.221,5.46.181.313,7.573-4.655,7.7-4.443.067.117-7.686,4.478-7.542,4.729.16.277,7.759-4.855,7.922-4.574.091.16-7.2,5.076-7.111,5.225.039.068,6.8-4,6.83-3.943.064.111-7.252,5.357-7.124,5.579.115.2,7.444-4.661,7.6-4.389.052.089-8.378,5-8.34,5.064s8.065-4.817,8.134-4.7c.113.2-8.017,5.541-7.854,5.825.119.206,8.051-4.72,8.082-4.666.045.078-8.13,5.794-7.981,6.052.047.083,8.4-5.245,8.567-4.947s-8.481,5.832-8.3,6.14,7.585-4.606,7.683-4.436c.018.031-5.542,4.28-5.505,4.345.075.13,5.633-3.489,5.735-3.312.032.055-6.125,3.647-6.09,3.707.077.133,6.06-3.554,6.084-3.512.051.088-3.588,2.948-3.569,2.982.063.108,4.273-2.7,4.373-2.524.019.033-3.864,2.483-3.846,2.514.061.105,3.889-2.388,3.951-2.281.016.028-3.554,2.6-3.538,2.631.04.07,2.744-1.69,2.79-1.61.027.046-2.6,1.63-2.562,1.691.07.121,3.357-2.092,3.424-1.977.035.06-1.757,1.854-1.742,1.881.036.062.89-.553.907-.524s-.8.636-.788.652c.034.059,1.118-.724,1.152-.665.013.022.1.834.1.845s.384-.229.387-.223" transform="translate(-17.633 -16.678)" fill="none" stroke="#000" stroke-linecap="round" stroke-linejoin="round" stroke-width="1"/>
          <path id="パス_6010" data-name="パス 6010" d="M54.272,83.061c.1.17,6.536-4.108,6.681-3.857.12.208-11.312,7.206-11.243,7.327.243.421,16.207-9.8,16.4-9.467.157.271-16.073,9.141-16,9.274.34.588,16.919-9.973,17.007-9.82.143.248-19.335,10.949-18.978,11.569.1.181,21.178-12.379,21.244-12.265.408.707-21.752,12.331-21.579,12.632S69.163,75.115,69.6,75.872c.255.442-24.872,14.6-24.425,15.37.515.893,27.771-16.318,27.895-16.1.383.664-29.09,15.782-28.6,16.625.556.962,28.376-17.267,28.758-16.6.583,1.009-30.28,17.34-29.956,17.9.49.85,31.111-19.1,31.6-18.247.231.4-32.141,17.927-31.741,18.621.613,1.062,31.928-19.663,32.461-18.741.543.941-32.849,17.691-32.24,18.747.55.952,33.22-19.72,33.454-19.315.517.894-34.9,19.916-34.578,20.481.2.354,35.021-21.907,35.751-20.641.638,1.1-38.916,22.342-38.216,23.555.823,1.425,40.837-24.2,41.1-23.732.117.2-40.407,22.807-40.1,23.331.605,1.048,39.66-23.87,40.081-23.141.215.373-42.576,23.433-41.845,24.7C39.42,99.4,81.556,73.45,81.84,73.942c.693,1.2-43.3,23.163-42.455,24.63.456.79,41.769-25.611,42.417-24.489.8,1.391-43.268,25.655-43,26.116.827,1.433,45.181-27.675,45.869-26.484.346.6-48.554,28.807-48.212,29.4.264.457,51.035-29.876,51.213-29.567.463.8-51.433,29.092-51.028,29.794C36.89,103.771,87,73,87.55,73.952c.471.815-51.9,29.135-51.458,29.906.951,1.647,51.427-30.2,51.647-29.819.652,1.13-52.471,28.524-51.469,30.261.842,1.458,52.546-30.955,52.813-30.492.68,1.179-54.845,30.995-53.991,32.475.359.621,20.154-11.994,20.309-11.725.318.55-21.077,12.592-20.837,13.007.185.321,17.942-10.718,18.1-10.448.1.167-18.415,11.169-18.272,11.416.345.6,15.767-9.806,16.071-9.279.106.183-16.3,9.4-16.225,9.517S49.908,98.9,50.263,99.517c.062.106-16.834,9.153-16.542,9.659.151.26,16.171-10.082,16.494-9.523.3.527-16.606,9.411-16.384,9.795.064.112,15.5-9.627,15.8-9.12.206.357-16.655,10.344-16.356,10.863.143.247,14.783-8.964,14.969-8.642.263.456-16.128,10.162-15.831,10.677.166.287,12.842-7.9,13.05-7.535.108.187-13.944,8.678-13.764,8.99.168.291,13.348-8.02,13.484-7.785.16.277-13.218,7.611-13.056,7.89.149.258,12.638-7.662,12.8-7.387.208.36-13.248,7.659-13.026,8.042.081.141,12.637-7.745,12.831-7.408.146.252-12.951,7.829-12.89,7.934.174.3,12.471-7.327,12.526-7.232.145.251-13.7,8.951-13.538,9.239.152.262,11.489-7.218,11.742-6.78.1.166-11.968,7.47-11.878,7.626.14.243,11.658-7.314,11.911-6.877.08.139-11.535,7.728-11.45,7.877.161.279,9.89-6.029,10.029-5.79.069.12-10.1,6.633-10,6.812.077.133,10.5-6.147,10.535-6.082.2.342-11.879,7.174-11.687,7.507.22.382,10.668-6.459,10.8-6.234.18.312-10.925,6.277-10.888,6.341.2.337,10.514-6.175,10.559-6.1.119.205-10.371,6.222-10.211,6.5.112.194,10.353-6.214,10.455-6.036.077.134-10.649,7.055-10.471,7.364.215.373,9.468-5.974,9.688-5.593.159.275-9.941,6.055-9.814,6.275s8.993-5.631,9.183-5.3c.033.057-9.641,6.1-9.465,6.4.084.144,9.84-5.909,9.938-5.739.075.13-9.132,6.117-9.089,6.191.148.256,9.225-5.541,9.318-5.38.1.182-9.477,6.172-9.386,6.33.064.11,8.748-5.18,8.8-5.084.1.165-9.919,6.333-9.8,6.534.085.149,9.376-5.837,9.559-5.519.167.29-9.072,5.754-8.991,5.893.189.328,8.1-5,8.238-4.756S29.869,129.5,30,129.737s8.354-5.182,8.509-4.913c.088.152-9.275,6.158-9.145,6.384.037.065,8.755-5.419,8.912-5.147.171.3-8.827,5.971-8.672,6.24.064.11,9.427-5.762,9.565-5.522.15.26-9.125,6.434-9.054,6.558.057.1,8.169-5.068,8.321-4.8.164.284-9.135,5.267-9.047,5.421.143.248,9.454-5.9,9.647-5.569.094.163-9.1,5.1-8.99,5.288.161.28,8.748-5.484,8.936-5.16.033.057-8.485,5.43-8.382,5.608.064.109,7.409-4.68,7.583-4.378.129.223-7.143,4.054-7.1,4.133.091.158,6.859-4.1,6.92-4,.086.149-7.057,3.764-6.918,4.006.129.224,7.716-4.821,7.874-4.547.053.091-6.633,4.183-6.555,4.318.117.2,5.868-3.63,5.973-3.448.069.119-4.8,3.907-4.775,3.942.067.115,4.534-2.725,4.58-2.645s-4.145,2.432-4.1,2.514c.1.172,4.253-2.684,4.352-2.513.009.016-1.627,2.289-1.614,2.311s1.547-1,1.592-.92c.015.026-1.846,1.161-1.83,1.19.038.065,1.951-1.195,1.981-1.144,0,0-.885.6-.868.629.029.049.536-.359.557-.322s.4.931.412.951.383-.232.387-.223" transform="translate(-6.612 -16.559)" fill="none" stroke="#000" stroke-linecap="round" stroke-linejoin="round" stroke-width="1"/>
          <path id="パス_6011" data-name="パス 6011" d="M95.5,123.427c.154.267,13.974-8.62,14.213-8.2.049.085-10.892,7.374-10.85,7.448.119.206,11.245-6.6,11.29-6.519.126.219-11.005,6.048-10.806,6.393.216.376,10.822-6.557,10.956-6.324.119.207-9.982,6.422-9.862,6.63.135.233,11.479-7,11.638-6.72.2.355-9.594,6.7-9.528,6.812.1.172,10.466-6.456,10.645-6.146.113.2-9.771,5.721-9.6,6.014.193.334,9.193-5.491,9.273-5.354s-9.466,5.531-9.335,5.761c.06.1,10.206-6.041,10.27-5.929.152.263-9.183,6.189-9.141,6.262.062.108,8.8-5.5,8.981-5.185.094.162-8.2,5.154-8.1,5.322.166.288,9.358-5.62,9.452-5.457.12.208-8.183,5.387-8.067,5.589.157.271,7.886-4.652,7.929-4.578s-8.451,5.054-8.336,5.252c.126.22,9.4-5.585,9.469-5.467.093.16-7.272,5.529-7.233,5.6.091.159,7.7-4.77,7.841-4.527.115.2-8.06,5.393-8.02,5.461.138.239,8.849-5.181,8.881-5.127.081.141-8.932,4.825-8.781,5.087.119.205,8.342-4.884,8.371-4.833.114.2-8.259,4.5-8.1,4.781.173.3,8.53-5.281,8.684-5.013.174.3-8.714,5.36-8.684,5.413.088.153,8.619-5.089,8.667-5,.037.064-8.144,4.99-7.993,5.253.131.226,8.149-4.968,8.263-4.772.033.057-7.232,4.906-7.166,5.023.052.089,7.381-4.534,7.5-4.33.13.225-6.569,5.137-6.523,5.215.105.183,6.761-4.29,6.928-4,.022.039-7.017,4.5-6.978,4.572.091.159,7.053-4.369,7.182-4.145.094.163-6.031,4.32-6.007,4.36.121.21,6.609-4.015,6.7-3.866.077.134-5.966,4.885-5.884,5.026s6.981-4.212,7.06-4.077c.057.1-7.4,4.861-7.344,4.954.16.276,7.82-4.73,7.913-4.568.133.231-7.439,5.391-7.34,5.562.074.128,7.442-4.453,7.509-4.335.1.174-7.129,4.9-7.049,5.034.168.292,7.767-4.672,7.848-4.531.062.108-6.96,5.157-6.811,5.415s6.895-4.2,6.991-4.036c.06.1-7.837,4.428-7.714,4.641.074.129,7.561-4.627,7.674-4.431s-6.378,4.009-6.293,4.158c.115.2,6.248-3.772,6.319-3.648.142.246-6.946,4.311-6.843,4.491.14.243,7.477-4.454,7.536-4.352.07.121-7.53,4.8-7.374,5.074.067.117,7.4-4.527,7.508-4.335" transform="translate(-21.501 -25.939)" fill="none" stroke="#000" stroke-linecap="round" stroke-linejoin="round" stroke-width="1"/>
          <path id="パス_6012" data-name="パス 6012" d="M79.2,116.893c.066.114,3.939-2.5,4.036-2.331.077.134-7.133,4.851-7.088,4.928.163.283,10.585-6.406,10.712-6.185.1.174-10.3,5.871-10.25,5.956.229.4,11.155-6.577,11.214-6.475.095.165-12.742,7.421-12.505,7.832.071.122,13.971-8.168,14.015-8.092.269.465-14.275,8.151-14.16,8.35s13.906-8.705,14.2-8.2c.166.287-15.989,9.827-15.7,10.331.344.6,17.918-10.535,18-10.392.25.433-18.955,10.322-18.637,10.871.37.642,18.447-11.239,18.7-10.8.38.658-19.654,11.465-19.442,11.831.326.565,20.293-12.474,20.622-11.906.15.26-20.821,11.716-20.561,12.167.407.705,20.7-12.768,21.053-12.155s-21.13,11.426-20.737,12.105c.364.632,21.694-12.884,21.85-12.615.339.587-22.848,13.213-22.634,13.585.136.234,22.969-14.379,23.452-13.54.422.73-25.459,15.122-25,15.922.542.938,26.745-15.85,26.922-15.543.075.131-26.017,14.748-25.822,15.086.4.688,25.406-15.307,25.682-14.827.14.243-27.62,15.388-27.144,16.211.274.475,27.638-16.387,27.824-16.064.447.774-27.912,14.972-27.366,15.918.3.517,26.829-16.47,27.254-15.735.511.885-27.326,16.675-27.156,16.968.539.933,28.826-17.677,29.274-16.9.223.386-31.057,18.985-30.836,19.368.17.3,32.873-19.244,32.988-19.045.3.514-32.89,18.723-32.63,19.172.159.276,31.97-19.274,32.324-18.662.3.52-33.073,18.635-32.789,19.127.613,1.06,32.739-19.231,32.881-18.984.412.714-33.082,18.181-32.448,19.279.54.937,33.337-19.643,33.508-19.346.432.749-34.625,20.041-34.082,20.981.236.408,12.742-7.592,12.844-7.415.2.346-13.09,8.186-12.938,8.447.124.215,11.6-6.94,11.708-6.76.062.107-11.593,7.35-11.5,7.508.235.406,10.1-6.31,10.309-5.952.068.118-10.442,6.075-10.4,6.152s10.106-6.393,10.347-5.973c.04.069-11.005,6.02-10.814,6.351.1.178,10.653-6.658,10.873-6.277.2.343-10.759,6.214-10.615,6.464.044.077,10.161-6.329,10.361-5.982.133.231-10.508,7.04-10.315,7.374.1.173,10.025-6.086,10.154-5.863.177.308-10.6,7.2-10.4,7.544.128.222,9.538-5.879,9.7-5.6.079.138-10.168,6.606-10.035,6.836.157.271,12.419-7.463,12.546-7.243.147.255-12.151,7.024-12,7.282s12.511-7.587,12.668-7.314c.2.353-12.947,7.5-12.731,7.872.088.151,13.651-8.365,13.86-8,.146.253-13.006,7.862-12.945,7.966.191.331,13.761-8.084,13.821-7.979.129.223-12.116,8.077-11.969,8.333.174.3,13.323-8.362,13.613-7.86.1.171-12.323,7.669-12.23,7.83.164.284,13.77-8.633,14.066-8.121.077.135-11.211,7.546-11.127,7.691.194.337,12.422-7.559,12.59-7.269.073.126-10.668,6.946-10.56,7.134.1.165,13.344-7.813,13.391-7.731.221.383-13.312,7.95-13.1,8.321.278.482,13.7-8.288,13.864-8,.229.4-13.9,7.97-13.85,8.051.246.427,13.579-7.972,13.636-7.872.14.243-12.334,7.287-12.144,7.615.143.248,13.539-8.12,13.671-7.893.083.143-11.407,7.466-11.217,7.8.282.489,12.909-8.121,13.2-7.62.2.34-12.362,7.383-12.2,7.655s12.577-7.845,12.829-7.407c.04.067-11.595,7.15-11.385,7.512.112.2,13.626-8.175,13.76-7.944.091.158-11.257,7.322-11.2,7.411.2.353,13.183-7.906,13.31-7.685s-11.851,7.492-11.738,7.688c.088.153,12.87-7.61,12.948-7.476.119.207-12.539,7.777-12.393,8.029.121.21,13.583-8.44,13.842-7.992.222.384-12.136,7.463-12.03,7.648.27.466,12.421-7.627,12.618-7.285s-12.127,7.065-11.936,7.4,12.739-7.871,12.962-7.484c.111.192-11.832,7.557-11.668,7.841.055.1,13.278-8.195,13.506-7.8.216.375-11.324,7.317-11.128,7.657.146.253,22.182-13.54,22.5-12.99s-19.829,12.435-19.68,12.693c.122.212,19.114-11.781,19.436-11.221.357.618-20.012,11.306-19.819,11.641.3.52,20.078-12.526,20.482-11.826.2.355-19.893,11.033-19.656,11.446.337.583,19.243-12.012,19.633-11.335.072.124-19.132,11.291-18.9,11.684.142.246,17.949-11.266,18.34-10.589.324.561-17.97,10.145-17.854,10.344.205.356,17.55-10.452,17.688-10.213.219.38-18.042,9.607-17.687,10.223.292.505,18.289-11.384,18.646-10.765.135.233-17.53,10.19-17.329,10.538.285.494,16.638-10.2,16.893-9.753.209.362-15.762,10.143-15.7,10.25.2.349,15.64-9.355,15.781-9.111.174.3-15.473,8.679-15.3,8.981.309.536,15.276-9.535,15.586-9,.05.088-12.924,8.678-12.854,8.8.081.141,12.851-7.928,13.072-7.546.1.181-13.426,7.618-13.31,7.817.2.348,13.324-8.057,13.482-7.784.037.065-12.6,6.872-12.37,7.27.161.28,11.958-7.184,12.08-6.974.2.351-10.778,7.13-10.632,7.382.21.365,10.5-6.411,10.648-6.148.141.245-7.978,6.077-7.916,6.184.082.143,8.668-5.229,8.765-5.061.042.071-7.549,5.014-7.419,5.24.091.158,7.231-4.3,7.285-4.207.089.154-4.274,3.716-4.249,3.759.04.07,4.574-2.687,4.594-2.652s-3.628,2.311-3.583,2.387c.091.159,3.192-1.917,3.224-1.861.012.02-3.705,2.247-3.681,2.289.067.118,3.477-2.147,3.537-2.043.04.069-1.368,2.16-1.34,2.207.017.029,1.991-1.168,2-1.155.019.033-1.681,1.015-1.671,1.034.031.053,1.06-.662,1.082-.625,0,0-.342.777-.336.788.02.035.071-.071.084-.048,0,0,.484.115.488.124s.38-.231.385-.222" transform="translate(-15.311 -25.243)" fill="none" stroke="#000" stroke-linecap="round" stroke-linejoin="round" stroke-width="1"/>
        </g>
      </g>
    </g>
  </g>
</svg>
