<svg id="グループ_465" data-name="グループ 465" xmlns="http://www.w3.org/2000/svg" xmlns:xlink="http://www.w3.org/1999/xlink" width="130" height="200.94" viewBox="0 0 130 200.94">
  <defs>
    <clipPath id="clip-path">
      <rect id="長方形_3776" data-name="長方形 3776" width="130" height="200.94" fill="none"/>
    </clipPath>
    <clipPath id="clip-path-2">
      <path id="パス_5926" data-name="パス 5926" d="M69.276,0a19.291,19.291,0,0,0-4.67.727A28.975,28.975,0,0,0,54.481,4.976,9.933,9.933,0,0,0,51.1,8.858c-1.246,2.843-.444,6.126.439,9.1,2.776,9.361,6.181,18.526,9.82,27.587,1.858,4.625,5.223,8.987,6.6,13.779a25.766,25.766,0,0,0,1.916,4.8,1.624,1.624,0,0,0,.614.746,1.7,1.7,0,0,0,.8.125A53.037,53.037,0,0,1,84.74,66.723a.959.959,0,0,0,.672.012c.352-.178.342-.673.312-1.065a11.335,11.335,0,0,1,.968-5.038,7.891,7.891,0,0,1,1.27-2.261,9.6,9.6,0,0,1,1.515-1.323c1.274-.964,2.5-1.928,3.776-2.892,3.358.089,6.165,2.947,7.137,6.162s.46,6.688-.373,9.942a10.172,10.172,0,0,0-.506,3.37,8.075,8.075,0,0,0,2.672,4.7c4.137,4.2,9.625,7.257,12.417,12.447,2.9,5.384,2.262,11.991.588,17.871a23.222,23.222,0,0,1-4.625,8.761.794.794,0,0,0-1.115-.388,2.488,2.488,0,0,0-.9.99,19.263,19.263,0,0,1-11.007,8.128c-.92.254-1.978.528-2.405,1.381a3.08,3.08,0,0,0-.189,1.558c.173,3.064.594,6.108,1.016,9.147.379,2.739.759,5.482,1.369,8.179a97.984,97.984,0,0,0,3.778,11.9,13.751,13.751,0,0,0,5.5,7.817l4.095,3.368a12.9,12.9,0,0,0,3.466,2.274,6.459,6.459,0,0,0,2.606.418,3.08,3.08,0,0,0,2.2-.866,3.635,3.635,0,0,0,.636-1.217c2.8-7.833.494-16.643,2.444-24.729a42.392,42.392,0,0,0,1.275-5.408c.441-4.18-1.465-8.224-3.479-11.914-1.083-1.985-2.248-4.083-2.13-6.341.25-4.817,6.112-8.022,6.093-12.846-.028-6.947.557-13.643-2.916-19.659-3.632-6.29-9.849-10.94-12.7-17.62-2.1-4.922-2.3-10.793-5.8-14.841A11.7,11.7,0,0,0,94.627,52.7a59.357,59.357,0,0,1-5.118-14.389c-.316-1.626-.53-3.27-.79-4.905a91.353,91.353,0,0,0-5.859-20.74,29.091,29.091,0,0,0-4.681-8.181A12.424,12.424,0,0,0,70.086.032C69.818.011,69.549,0,69.281,0Z" transform="translate(-50.459 -0.001)" fill="none"/>
    </clipPath>
    <clipPath id="clip-path-4">
      <path id="パス_5956" data-name="パス 5956" d="M22.789,233.674l56.66,17.86,6.792-21.548-8.783-2.768a5.127,5.127,0,0,1-.91.71c-2.617,1.6-4.8,3.2-7.86,3.892a42.818,42.818,0,0,1-9.57.982,25.418,25.418,0,0,1-12.511-3.591,5.317,5.317,0,0,1-2.026-.722,12.713,12.713,0,0,1-3.188-2.8c-3.45-3.24-6.533-7.1-5.7-11.634l-6.106-1.925Z" transform="translate(-22.789 -212.127)" fill="none"/>
    </clipPath>
  </defs>
  <g id="グループ_458" data-name="グループ 458">
    <g id="グループ_457" data-name="グループ 457" clip-path="url(#clip-path)">
      <path id="パス_5913" data-name="パス 5913" d="M104.344,169.815a26.608,26.608,0,0,1,.622-9.741,13.841,13.841,0,0,0,.775-4.695,10.95,10.95,0,0,0-1.084-3.341l-3.566-7.95c.562-.243.867-.4,1.172-.554q-2.708-8.2-5.592-16.332a2.371,2.371,0,0,1,.816-.593l-1.869-5.949a21.014,21.014,0,0,0,2.843-4.73c.959-2.118,1.169-6.46,1.225-8.554.359-13.44-11.142-18.356-19.019-31.836A9.907,9.907,0,0,0,83.852,68.6c.336-4.707-2.044-8.712-5.316-8.946a4.346,4.346,0,0,0-2.047.371L75.19,56.5,78.17,55.46C74.682,44.592,69.19,28.738,65.6,18.009c-.849-2.537-1.85-5.291-2.7-7.827L59.847,11.3l-.533-1.627a7.6,7.6,0,0,0-4.76-1.605c-6.327-.452-11.082,2.656-14.056,7.319a1.962,1.962,0,0,0-.3.631,2.115,2.115,0,0,0,.175,1.121c1.554,4.432,14.835,43.254,17.583,51.349a47.446,47.446,0,0,0-6.476.5,11.99,11.99,0,0,0,.49-2.661c.336-4.707-2.044-8.712-5.316-8.945s-6.2,3.393-6.531,8.1A9.907,9.907,0,0,0,42.294,72.8C31.881,85.914,19.7,88.824,18.571,104.647c-.669,9.38,5.25,16.248,14.844,20.619a15.316,15.316,0,0,0,1.452,7.492c-2.277.427-4.92,1.965-7.489,5.3-1.171,1.517.645,1.668,2,2.285a3.323,3.323,0,0,1,.65.378l.841,1.08c.28.768.056,1.479.951,2.17,1.3,1,2.046-.29,3.6.908,1.274.983,1.872,3.668,3.248,1.885,1.936-2.51,2.89-3.865,3.166-5.83,1.53.467,3.886,3.683,13.727,4.981a70.155,70.155,0,0,0,9.925-.408c-1.254,1.863-2.041,4.684-1.7,8.635.192,2.244,2.147.309,3.751.171,1.955-.168,1.881,1.324,3.518,1.183s1.311-1.6,3.265-1.765c1.6-.138,3.86,1.436,3.667-.808-.337-3.93-1.58-6.57-3.122-8.195l-1.436-1.186a6.369,6.369,0,0,0-1.3-.626c.609-.343,1.145-.679,1.584-.987,1.608-1.13,3.313-2.6,3.313-2.6a22.053,22.053,0,0,0,2.9-3.629,19.517,19.517,0,0,0,1.671-3.84c1.2,4.84,4.218,12.547,5.447,16.807l1.378-.5c.477,2.981,1.1,6,1.8,9a9.714,9.714,0,0,0,.745,2.281,8.558,8.558,0,0,0,2.063,2.4c1.671,1.463,3.51,2.74,5.037,4.352a22.533,22.533,0,0,1,3.179,4.453.789.789,0,0,1,.139.417c-.013.2-.176.362-.277.539a1.245,1.245,0,0,0,.506,1.584,2.406,2.406,0,0,0,1.781.2l-4.161-12.445a2.409,2.409,0,0,0-.309-.681c-.386-.525-1.2-.768-1.286-1.414-.076-.58.526-1.022,1.089-1.184a1.436,1.436,0,0,1,1.238.1,1.172,1.172,0,0,1,.23,1.452,1.851,1.851,0,0,0-.3.676,1.183,1.183,0,0,0,.09.455l4.333,12.791a1.534,1.534,0,0,0,.91-2.293c-.269-.369-.71-.613-.881-1.036" transform="translate(-7.888 -3.417)" fill="none"/>
      <path id="パス_5914" data-name="パス 5914" d="M179.442,287.04c.022.039,3.21-2.039,3.291-1.9s-6.941,4.76-6.837,4.938c.008.014.587-.353.593-.342.022.039-1.328,1.179-1.305,1.218.006.01.484-.285.486-.281.021.036-.946.873-.934.893,0,0,.117-.073.119-.069" transform="translate(-74.424 -121.445)" fill="none" stroke="#000" stroke-linecap="round" stroke-linejoin="round" stroke-width="0.992"/>
      <path id="パス_5915" data-name="パス 5915" d="M186.771,285.461c.041.072,4.418-2.611,4.445-2.566s-1.235,1.384-1.208,1.43c.042.073,2.765-1.7,2.811-1.623.021.037-1.55,1.2-1.519,1.256.053.091,2.886-1.806,2.947-1.7.027.047-1.469,1.576-1.436,1.632s3.078-1.842,3.106-1.793-2.191,1.651-2.184,1.663c.055.1,2.51-1.494,2.53-1.46s-1.426,1.112-1.409,1.141c.043.075,2.071-1.334,2.131-1.23.008.013-1.894,1.433-1.854,1.5s2.663-1.563,2.673-1.544-.743,1.413-.723,1.448a15.575,15.575,0,0,0,1.808-1.043c.025.043-1.5.983-1.493,1,.057.1,1.249-.77,1.27-.733.006.01-.432,1.009-.413,1.042A14.519,14.519,0,0,0,199.78,283c.017.03-1.107.664-1.1.676.055.1.98-.6.994-.573.029.051-1.583,1.109-1.568,1.134.055.095,1.892-1.222,1.948-1.125.006.011-.219.826-.209.843.033.056,1.378-.836,1.4-.806.007.014-.782,1.39-.756,1.435s1.7-1.007,1.708-.986-1.27,1.357-1.238,1.412,2.46-1.452,2.473-1.428c.024.041-1.547.979-1.537,1s.9-.58.927-.535c.013.022-.439.951-.431.963.025.044,1.711-1.09,1.756-1.013.015.026-.977,1.416-.953,1.457.04.069,1.374-.892,1.416-.818.006.011-1.072,1.262-1.045,1.309s.924-.641.97-.56c.01.017-.329.834-.324.842.027.047,1.512-.981,1.559-.9.011.019-1.431,1.629-1.42,1.649s2.079-1.256,2.1-1.214c.007.013-1.8,1.115-1.778,1.158a8.328,8.328,0,0,0,1.018-.588c0,.007-.622,1.262-.6,1.3s1.626-.979,1.643-.948-1.561,1.163-1.537,1.2,2.009-1.209,2.031-1.172c.009.016-1.963,1.453-1.921,1.525.019.033,1.427-.875,1.45-.837.006.011-1.115,1.238-1.093,1.278.011.018,1.446-.9,1.473-.851.011.02-1.15,1.85-1.142,1.862s1.318-.829,1.348-.778c.018.031-.549.881-.537.9.051.088,1.608-1.042,1.657-.957.024.042-1.623,1.68-1.611,1.7a17.067,17.067,0,0,0,1.7-.982c.014.024-2.013,1.6-1.969,1.676a12.673,12.673,0,0,0,1.467-.847c.024.041-1.385,1.26-1.361,1.3s1.919-1.14,1.932-1.115-1.37.933-1.361.949.917-.564.932-.538-.87,1.056-.858,1.075,1.073-.75,1.13-.652c.028.049-1.76,1.034-1.754,1.044.038.065,1.841-1.137,1.873-1.082.018.031-1.479.936-1.452.983a17.328,17.328,0,0,1,1.7-.983c.036.062-2.139,1.967-2.1,2.042.059.1,1.987-1.21,2.014-1.163.049.085-2.253,2.25-2.234,2.282.061.106,2.049-1.329,2.112-1.219.022.037-2.041,1.49-2.009,1.545s1.929-1.159,1.948-1.125c.037.063-2.188,1.765-2.155,1.823.014.025,2.364-1.488,2.417-1.4.01.017-2.705,2.051-2.652,2.144.065.113,2.412-1.5,2.459-1.42.01.018-2.6,2.187-2.564,2.249.012.021,2.506-1.588,2.567-1.482.041.071-2.653,2.665-2.63,2.706.061.106,2.446-1.517,2.492-1.439s-3.673,2.8-3.6,2.926c.041.072,3.564-2.215,3.632-2.1.041.071-4.111,3.373-4.053,3.473.089.154,3.554-2.24,3.635-2.1s-3.789,2.253-3.715,2.381,3.753-2.325,3.822-2.206-5.358,3.754-5.25,3.94c.061.106,5.092-3.024,5.129-2.961.049.086-5.24,3.164-5.19,3.251.085.147,5.071-3.071,5.133-2.963.161.279-8.025,5.345-7.988,5.41.114.2,7.563-4.447,7.6-4.387" transform="translate(-79.55 -120.15)" fill="none" stroke="#000" stroke-linecap="round" stroke-linejoin="round" stroke-width="0.992"/>
      <path id="パス_5916" data-name="パス 5916" d="M24.181,326.436c.14.242,12.637-7.539,12.742-7.357.049.085-9.052,5.308-8.883,5.6s9.731-6.116,9.946-5.742c.1.166-8.82,5.286-8.776,5.361.18.313,9.871-5.971,9.989-5.767.077.134-7.39,4.71-7.338,4.8.2.342,9.212-5.668,9.363-5.406.072.125-6.317,4.355-6.288,4.406.14.241,7.716-4.642,7.8-4.5.055.1-4.567,3.424-4.509,3.524.113.2,7.2-4.463,7.33-4.232.065.112-7.131,4.267-7.092,4.335.087.15,7.141-4.322,7.226-4.172.037.063-4.9,3.539-4.885,3.571.085.147,6.841-4.285,6.987-4.033.055.1-4.042,3.346-4.006,3.407s6.236-3.842,6.34-3.66c.056.1-6.133,3.647-6.087,3.726.119.207,6.842-4.05,6.885-3.975.062.108-7.063,3.859-6.926,4.1.09.156,6.217-3.9,6.352-3.668.029.05-5.728,3.528-5.7,3.573.09.156,6.384-3.884,6.47-3.735s-5.626,3.28-5.536,3.435,5.756-3.546,5.853-3.379c.113.2-6.067,3.415-5.955,3.608.072.123,6.42-3.843,6.479-3.74.033.057-5.078,3.4-4.974,3.577.042.073,6.3-3.691,6.325-3.652.063.109-4.2,3.1-4.164,3.172.092.159,5.358-3.408,5.494-3.172.088.152-5.306,3.076-5.23,3.208.127.219,5.6-3.372,5.657-3.267.073.127-4.734,3.066-4.662,3.19.107.185,5.817-3.594,5.919-3.417.064.11-4.525,3.562-4.506,3.594s5.8-3.417,5.832-3.367-4.749,3.364-4.735,3.389c.11.19,5.993-3.607,6.056-3.5.014.024-3.238,2.846-3.17,2.964.051.089,5.418-3.238,5.465-3.155.037.063-4.713,3.435-4.649,3.547.1.178,5.954-3.727,6.079-3.51.079.138-3.812,3.09-3.736,3.223s4.365-2.71,4.447-2.568c.063.109-3.505,2.63-3.481,2.672.049.086,5.126-3.008,5.147-2.972.054.094-4.118,3.276-4.075,3.35.083.144,5.552-3.456,5.66-3.268.068.118-4.28,3.381-4.236,3.458s4.96-3.1,5.061-2.922c.038.066-3.18,2.69-3.16,2.725s4.64-2.817,4.7-2.713c.091.158-5.065,2.847-4.977,3,.105.182,5.358-3.2,5.4-3.12.071.123-3.662,3.217-3.644,3.248.077.133,5.175-3.07,5.211-3.009s-3.914,3.065-3.864,3.152c.023.04,4.5-2.866,4.614-2.664.018.031-3.378,2.992-3.358,3.027.057.1,5.395-3.3,5.476-3.161.026.046-4.6,3.077-4.535,3.183.075.13,4.932-2.983,4.991-2.882.044.077-4.691,2.638-4.607,2.783s4.457-2.745,4.531-2.616-2.983,2.773-2.921,2.881c.04.068,5.036-3.037,5.092-2.94.09.156-4.457,2.975-4.408,3.06.025.044,4.134-2.619,4.235-2.445.016.027-3.465,2.42-3.42,2.5.064.111,4.353-2.588,4.385-2.532.085.148-4.221,2.642-4.148,2.768.063.11,4.895-2.979,4.961-2.864.043.073-3.772,2.938-3.738,3,.073.127,4.273-2.682,4.366-2.521.054.094-2.816,2.55-2.78,2.613s4.794-2.823,4.818-2.782c.071.123-4.573,2.9-4.5,3.026s4.8-3.024,4.911-2.835c.041.07-3.9,3.367-3.869,3.419.074.127,4.924-3.092,5.032-2.905.024.041-3.261,2.913-3.215,2.991.075.13,4.2-2.647,4.295-2.48.047.08-3.52,2.429-3.479,2.5.018.032,4.2-2.491,4.232-2.443.079.138-4.1,2.543-4.028,2.664.088.152,4.448-2.823,4.559-2.632.016.028-4.105,2.819-4.093,2.84.065.113,5.323-3.118,5.342-3.084.1.168-4.963,3.342-4.923,3.409.092.161,4.908-3.048,5-2.887.033.058-3.552,2.446-3.519,2.5.049.086,3.8-2.26,3.83-2.211.013.022-3.277,2.537-3.211,2.652.033.057,4.978-2.957,5.013-2.894s-4.26,2.864-4.214,2.944c.071.122,4.3-2.747,4.418-2.55.02.033-3.759,2.611-3.734,2.655s4.075-2.579,4.174-2.409c.035.06-3.04,2.543-2.986,2.637.107.187,4.528-2.746,4.585-2.647.024.042-4.661,3.12-4.591,3.242.038.067,4.6-2.751,4.64-2.679.022.038-2.592,2.685-2.578,2.709.061.107,3.862-2.295,3.891-2.246s-3.174,2.245-3.148,2.289c.11.191,3.474-2.157,3.54-2.044.013.023-2.924,2.54-2.867,2.638.09.157,3.99-2.464,4.06-2.344.033.059-3.516,2.313-3.457,2.415.023.039,4.267-2.711,4.374-2.525.037.065-3.83,2.789-3.811,2.821.063.109,4.85-2.963,4.92-2.841.023.04-4.372,2.743-4.318,2.835.021.037,4.057-2.5,4.124-2.381s-3.3,2.415-3.245,2.507c.069.12,3.907-2.347,3.946-2.279.066.114-3.955,2.469-3.94,2.5.086.148,4.365-2.585,4.393-2.536.083.144-4.263,2.887-4.229,2.947.025.043,4.527-2.815,4.614-2.664.054.093-3.5,2.248-3.446,2.338s3.621-2.175,3.658-2.112c.05.087-2.849,2.454-2.82,2.5.093.161,4.2-2.544,4.254-2.456.034.059-3.822,2.384-3.746,2.514.092.159,4.558-2.684,4.581-2.644s-4.034,2.694-3.988,2.774c.095.164,3.645-2.237,3.7-2.138.033.057-3.31,2.369-3.292,2.4.062.107,4.538-2.849,4.637-2.677.088.153-4.785,2.635-4.7,2.779s4.528-2.808,4.612-2.663c.029.051-4.565,3.04-4.55,3.066.1.175,4.4-2.661,4.453-2.571s-3.467,2.268-3.431,2.33,4.3-2.531,4.321-2.495c.079.137-5.062,2.788-4.97,2.946.038.067,4.8-2.888,4.849-2.8.067.115-3.133,2.806-3.084,2.892.1.168,4.711-2.9,4.788-2.765s-5.02,2.866-4.986,2.925c.025.044,4.9-2.952,4.95-2.858.038.067-4.168,2.373-4.094,2.5.1.165,4.161-2.659,4.272-2.466.069.12-3.521,2.971-3.451,3.093.084.146,4.411-2.625,4.444-2.566s-3.818,2.313-3.773,2.391c.022.038,4.16-2.482,4.194-2.422.047.081-3.287,2.9-3.273,2.924.075.13,4.44-2.617,4.463-2.577.049.086-3.92,2.621-3.841,2.76s4.99-2.963,5.025-2.9c.073.126-3.827,2.921-3.808,2.953.1.173,5.108-3.04,5.147-2.971s-4.051,3.467-4.035,3.494c.029.049,5.121-3.249,5.248-3.03.035.061-4.145,3.4-4.073,3.523.057.1,6.085-3.736,6.181-3.568.054.093-5.522,3.5-5.455,3.619.124.214,6.674-3.995,6.736-3.889.04.069-5.132,3.662-5.05,3.8.138.238,5.88-3.633,5.984-3.455.026.045-5.348,3.209-5.262,3.358.055.094,5.837-3.536,5.908-3.411.054.093-5.06,3.632-5.034,3.677.092.16,6.231-3.879,6.353-3.668.079.138-5.308,3.567-5.236,3.692.127.219,6.7-4.119,6.807-3.93.091.157-6.368,3.692-6.288,3.831.059.1,7.056-4.179,7.1-4.1.02.034-5.538,3.992-5.508,4.044.067.115,7.573-4.531,7.642-4.412.1.172-6.634,4.454-6.494,4.7.081.14,8.28-4.928,8.344-4.818s-7.738,4.381-7.625,4.577c.16.277,8.3-5.255,8.5-4.91.146.253-7.069,4.649-6.953,4.85.094.164,11.167-6.851,11.341-6.548s-11.2,6.23-11,6.579c.069.12,21.469-13.347,21.881-12.634.119.206-21.418,12.317-21.1,12.869.215.372,20.929-12.735,21.211-12.246.187.323-19.027,10.863-18.646,11.523.364.63,17.966-11.146,18.3-10.566.21.364-16.283,10.346-16.231,10.436.154.266,14.038-8.789,14.334-8.275.093.161-11.472,7.348-11.42,7.438.214.371,10.506-6.522,10.7-6.179.086.149-9.3,5.531-9.145,5.805.1.179,6.9-4.2,6.995-4.039.036.062-7.05,4-7,4.081.1.175,7.441-4.454,7.509-4.335s-4.973,2.975-4.884,3.13c.06.1,2.917-1.847,2.988-1.724" transform="translate(-10.299 -134.624)" fill="none" stroke="#000" stroke-linecap="round" stroke-linejoin="round" stroke-width="0.992"/>
      <path id="パス_5917" data-name="パス 5917" d="M10.573,330.2c.091.157,6.28-3.8,6.354-3.669.094.162-8.165,4.861-8.135,4.912s10-6,10.1-5.829S8.356,331.7,8.448,331.855c.261.452,11.673-6.918,11.75-6.784s-13.827,7.867-13.638,8.2c.228.4,15.879-9.369,15.966-9.218.189.327-19.43,12.1-19.314,12.3.036.062,1.762-1.088,1.793-1.035s-2.332,1.574-2.3,1.626c.018.031.1-.1.119-.068s-.68.427-.674.437.378-.266.4-.23S.912,338.38.93,338.411c.006.01.285-.175.289-.167" transform="translate(-0.396 -138.02)" fill="none" stroke="#000" stroke-linecap="round" stroke-linejoin="round" stroke-width="0.992"/>
    </g>
  </g>
  <g id="グループ_460" data-name="グループ 460" transform="translate(28.967 0.001)">
    <g id="グループ_459" data-name="グループ 459" clip-path="url(#clip-path-2)">
      <path id="パス_5918" data-name="パス 5918" d="M111.681,176.065c-6.2-17.128-12.335-34.712-17.783-52.1l-2.463-7.49-.057-.176.173-.057c5.628-1.874,11.227-3.836,16.821-5.81l.293-.1.106.3c4.839,13.554,10.758,30.9,15.322,44.617l4.877,14.95.133.408c-4.443,1.4-12.969,4.1-17.42,5.465m.051-.1c4.154-1.537,12.541-4.534,16.7-6.034l-.264.533c-2.612-7.4-7.729-22.306-10.224-29.742-1.632-4.924-5.833-17.627-7.373-22.406l-2.4-7.488.4.2c-5.647,1.816-11.291,3.645-16.9,5.562l.115-.232c1.268,3.7,3.852,11.1,5.176,14.776,5.224,14.676,10.077,29.941,14.774,44.833" transform="translate(-67.888 -46.991)"/>
      <path id="パス_5919" data-name="パス 5919" d="M154.883,215l1.455,6.112L153.8,215.37Z" transform="translate(-94.473 -91.576)"/>
      <path id="パス_5920" data-name="パス 5920" d="M146.206,227.256a79.986,79.986,0,0,1,3.414,8.692c-1.421.516-2.887.9-4.349,1.292a89.108,89.108,0,0,0-11.374,4l-.459.168-.176-.483a128.954,128.954,0,0,1-5.147-16.652l.108-.037c.527,1.132,1.243,2.838,1.717,4.018,1.084,2.7,2.087,5.423,2.974,8.19l1.3,4.16-.635-.315c2.563-.782,5.186-1.384,7.721-2.257,2.543-.844,4.963-2.049,7.507-2.891l-.323.652a77.82,77.82,0,0,1-2.384-8.5l.108-.037" transform="translate(-83.535 -95.509)"/>
      <path id="パス_5921" data-name="パス 5921" d="M160.478,259.346a1.453,1.453,0,0,1-.39,1.531l.056-.212c.939,2.164,1.757,4.372,2.537,6.594.716,1.926,1.474,4.762,2.02,6.768l-.359-.159a2.352,2.352,0,0,0,.767-.469c.86-.8.343-1.635-.6-2.008l-.083-.038a28.4,28.4,0,0,1-.54-3.513c-.363-3.447.588-6.939,1.416-10.224a4.564,4.564,0,0,0-.314-2.984l-1.34-3.133c-3.387-8.3-3.339-8.5.893-.415.743,1.6,1.774,3.076,2.081,4.882a8.772,8.772,0,0,1-.595,3.588,43.054,43.054,0,0,0-1.208,4.922,17.944,17.944,0,0,0-.06,6.718l-.1-.127a3.093,3.093,0,0,1,.878.591,1.44,1.44,0,0,1-.107,2.042,3.789,3.789,0,0,1-1.111.788c.049.142-1.408-3.541-1.426-3.574a93.812,93.812,0,0,1-3.154-10.264,1.337,1.337,0,0,0,.637-1.267Z" transform="translate(-97.002 -104.414)"/>
      <path id="パス_5922" data-name="パス 5922" d="M155.989,276.557a13.138,13.138,0,0,1,4.5,5.683c-.3.5-.692,1.188-.352,1.587a1.7,1.7,0,0,0,1.613.415l-.13.237c-.684-2.254-1.824-4.351-2.6-6.571a58.048,58.048,0,0,1-2.182-6.714l.4.309a1.816,1.816,0,0,1-1.4-.948,1.372,1.372,0,0,1,.262-1.561,1.769,1.769,0,0,1,.892-.39l.037.109a1.832,1.832,0,0,0-.65.53.9.9,0,0,0,.289,1.187,1.775,1.775,0,0,0,.909.17l.13.3a66.028,66.028,0,0,1,3.272,10.071,29.86,29.86,0,0,0,1.071,3.582,2.639,2.639,0,0,1-2.357-.269,1.906,1.906,0,0,1-.17-2.315l-.009.445c-.475-.884-1.138-2.1-1.671-2.936-.593-.962-1.26-1.881-1.925-2.843Z" transform="translate(-95.284 -114.404)"/>
      <path id="パス_5923" data-name="パス 5923" d="M140.2,252.46a16.042,16.042,0,0,1,1.443,4.628,14.35,14.35,0,0,0,1.821,6.806c1.507,1.729,3.7,2.916,5.022,4.98l-.077.085a47.076,47.076,0,0,1-4.094-2.587,5.444,5.444,0,0,1-2.413-4.4c-.066-2.475-1.468-4.6-1.677-7.05a13.722,13.722,0,0,1-.138-2.442Z" transform="translate(-88.627 -107.529)"/>
      <path id="パス_5924" data-name="パス 5924" d="M56.876,14.055A6.988,6.988,0,0,1,60.4,10.231a15.374,15.374,0,0,0,2.213-1.4c3.358-2.382,9.27-2.187,12.85-.288l.166.091.068.2c4.867,14.276,14.6,43.047,19.379,57.348l.185.551-.549.183-19.19,6.4-.485.161-.16-.48C71.7,63.406,63.672,39.143,60.651,29.878L55.966,15.487l.109-.037L61.06,29.74c3.173,9.106,11.552,33.506,14.784,42.927l-.644-.319,19.144-6.53-.364.734C89.119,52.262,79.446,23.492,74.675,9.178l.234.291c-3.7-1.968-8.212-1.639-12.05-.2a5.674,5.674,0,0,0-2.073,1.468,32.911,32.911,0,0,1-3.81,3.377Z" transform="translate(-52.805 -3.016)"/>
      <path id="パス_5925" data-name="パス 5925" d="M108.584,56.714c-1.02.4-2.119.846-3.22,1.257-.747-1.92-1.438-3.86-2.146-5.794C98.3,39.127,94.8,25.6,89.912,12.541l-.105-.288.3-.11,3.031-1.1.36-.131.137.378c5.419,14.954,10.373,30.23,14.947,45.429m-.1-.051c-4.175-11.289-8.244-22.458-11.956-33.856Q94.671,17.2,92.893,11.536l.5.247-3.08.956.2-.4c4.018,13.355,9.427,26.234,13.412,39.6.587,1.9,1.192,3.8,1.744,5.716l-.249-.123Z" transform="translate(-67.218 -4.646)"/>
    </g>
  </g>
  <g id="グループ_462" data-name="グループ 462">
    <g id="グループ_461" data-name="グループ 461" clip-path="url(#clip-path)">
      <path id="パス_5927" data-name="パス 5927" d="M89.567,233.108c.039.067,1.88-1.194,1.927-1.112.024.042-1.14,1.189-1.121,1.221s1.194-.729,1.211-.7c.007.013.172.656.179.668.021.036.529-.364.554-.32.016.027-.7.575-.689.59s.735-.479.759-.438c.011.02.662.71.67.723s.294-.223.317-.183c.008.014-.169.445-.166.45.013.022.176-.149.2-.113,0,0,.107.131.11.135s.038-.068.058-.033c0,0,.521.062.529.075.017.03.164-.138.183-.106.005.009-.329.866-.325.873s.452-.286.463-.268.032.493.039.506.174-.123.184-.106.25.879.262.9.163-.135.181-.1.25.484.258.5c.021.036.16-.13.177-.1,0,.006-.335.533-.326.55.024.041.194-.146.208-.121,0,0-.188.214-.185.219.017.028.2-.137.213-.123s-.585.914-.58.922a3.893,3.893,0,0,0,.379-.219l.235-.038c.025.043.295-.219.316-.182,0,.007-.463,1.2-.45,1.223s.343-.211.348-.2c.015.026,0,.891.009.91s.473-.277.475-.274-.276.276-.27.286.262-.161.266-.153" transform="translate(-38.149 -98.811)" fill="none" stroke="#000" stroke-linecap="round" stroke-linejoin="round" stroke-width="1"/>
      <path id="パス_5928" data-name="パス 5928" d="M89.8,231.22c0,.008.265-.155.266-.153s-.277.3-.272.31.5-.31.512-.3" transform="translate(-38.245 -98.417)" fill="none" stroke="#000" stroke-linecap="round" stroke-linejoin="round" stroke-width="1"/>
      <path id="パス_5929" data-name="パス 5929" d="M82.944,232.943c.045.078.657-.412.671-.388s-.545.35-.536.367,1.46-.885,1.478-.854c.033.057-3.354,2.378-3.285,2.5.108.187,5.245-3.108,5.28-3.048.071.122-5.679,4.1-5.632,4.178.035.061,1.363-.859,1.394-.8.016.028-1.152,1.266-1.134,1.3.006.012.239-.164.25-.144s-.832.785-.824.8.371-.252.388-.224-.259,1.163-.253,1.175c.017.029.743-.467.759-.439.007.013-.235.775-.226.791s.263-.158.266-.154" transform="translate(-34.332 -98.609)" fill="none" stroke="#000" stroke-linecap="round" stroke-linejoin="round" stroke-width="1"/>
      <path id="パス_5930" data-name="パス 5930" d="M87.18,229.749c.054.093,2.436-1.432,2.447-1.413s-1.107.911-1.088.944c.042.074,1.623-1.036,1.666-.962.01.018-.5.944-.49.969.033.059,1.536-.94,1.559-.9s-.13,1.2-.111,1.231c.006.009.764-.463.773-.447s-.024.277-.022.282.579-.347.584-.338c.015.026.014.924.02.935s.3-.215.316-.182c.01.018.874.709.877.715.023.04.468-.288.476-.275s-.134.175-.133.177.421-.284.439-.253-.583.75-.579.758.921-.579.942-.544c.007.012-.544,1.45-.537,1.462s1.061-.646,1.076-.621-.036,1.105-.025,1.123c.021.037.274-.19.288-.166s-.421.918-.41.937,1.059-.627,1.066-.615.063,1.05.066,1.055c.025.043.147-.141.171-.1,0,0,0,.488,0,.5s.016-.04.029-.017-.518.885-.514.893c.026.045.552-.378.578-.334,0,0-.119.814-.114.823s.41-.264.421-.243c0,0-.079.466-.072.479.02.034.3-.211.315-.181.006.011-.772.92-.758.944s.431-.308.456-.264c.008.014-.017.792,0,.816s.242-.2.269-.155c.013.022.01.908.025.935,0,0,.26-.162.266-.153" transform="translate(-37.132 -97.244)" fill="none" stroke="#000" stroke-linecap="round" stroke-linejoin="round" stroke-width="1"/>
      <path id="パス_5931" data-name="パス 5931" d="M79.914,229.574c.053.091,1.042-.64,1.059-.611s-.993.591-.975.621,1.915-1.154,1.936-1.118c.039.067-4.038,2.744-3.957,2.885.111.192,5.391-3.194,5.426-3.133.075.13-6.06,4.311-6.011,4.4s2.547-1.578,2.594-1.5c.03.052-2.5,2.008-2.464,2.065.009.016.8-.5.817-.472.028.048-1.468,1.14-1.455,1.163s.854-.542.875-.505-.969,1.564-.959,1.582c.021.037,1.12-.7,1.142-.659s-1.061,1.6-1.041,1.635.717-.451.733-.423-1.067.762-1.06.776a5.057,5.057,0,0,0,.468-.27c0,.006.006.547.01.555s.579-.352.586-.338-.274.352-.272.357.264-.156.265-.153" transform="translate(-32.615 -97.203)" fill="none" stroke="#000" stroke-linecap="round" stroke-linejoin="round" stroke-width="1"/>
      <path id="パス_5932" data-name="パス 5932" d="M90.214,237.562a14.618,14.618,0,0,0,1.345-.777c0,.006-.383.517-.375.532.029.049.77-.51.8-.461.007.013-.173.762-.162.78.023.04.884-.547.9-.52s-.239,1.257-.218,1.293c0,.007.336-.211.343-.2s.238.126.241.13.188-.118.192-.111c.018.03-.224,1.059-.217,1.072s.079-.084.1-.055l.085-.034c.021.036.362-.225.369-.213" transform="translate(-38.424 -100.852)" fill="none" stroke="#000" stroke-linecap="round" stroke-linejoin="round" stroke-width="1"/>
      <path id="パス_5933" data-name="パス 5933" d="M85.958,236.561c.036.061.187-.134.2-.114,0,0-.042.079-.041.081s.919-.564.933-.539c.025.044-2.527,1.936-2.474,2.029.073.126,3.416-2.027,3.439-1.986.047.08-3.57,2.917-3.539,2.97s1.044-.666,1.071-.619c.011.02-.681,1.006-.668,1.028s.084-.073.095-.055-.511.605-.505.615c.018.032.651-.42.67-.387s1.114.37,1.121.382c.024.041,1.315-.815,1.339-.773.008.014.478.736.488.753.028.049,1.1-.681,1.12-.646s-1.2.835-1.188.85c.02.035.874-.523.882-.509s-.326.732-.319.745c.037.064,2.467-1.522,2.509-1.449.028.047-.691,1.542-.681,1.56s.541-.335.551-.318.5.452.5.462.326-.2.331-.191-.257.193-.255.2.253-.151.255-.148" transform="translate(-35.977 -100.513)" fill="none" stroke="#000" stroke-linecap="round" stroke-linejoin="round" stroke-width="1"/>
      <path id="パス_5934" data-name="パス 5934" d="M121.768,107.216c-.369-.415-.878-.919-1.4-.672a3.138,3.138,0,0,0-1.011,1.293,5.086,5.086,0,0,0-.686,1.875c-.173,1.009.459,2.873,1.417,3.048.281.028.675-.39.954-.917a9.411,9.411,0,0,0,.981-3.8.06.06,0,0,1,.063-.056,5.007,5.007,0,0,1,.044,4.42c-1.008,2.127-3.4,1.853-3.714-.538a14.325,14.325,0,0,1-.115-2.177,4.723,4.723,0,0,1,.719-3.26,1.554,1.554,0,0,1,2.4-.328,1.89,1.89,0,0,1,.453,1.064.06.06,0,0,1-.105.046" transform="translate(-50.386 -45.005)"/>
      <path id="パス_5935" data-name="パス 5935" d="M122.118,102.218a1.535,1.535,0,0,1-.17,2.389,1.535,1.535,0,0,1,.17-2.389" transform="translate(-51.731 -43.537)"/>
      <path id="パス_5936" data-name="パス 5936" d="M125.844,104.929a1.492,1.492,0,0,1-1.778,1.541,1.492,1.492,0,0,1,1.778-1.541" transform="translate(-52.843 -44.682)"/>
      <path id="パス_5937" data-name="パス 5937" d="M117.755,104.276a1.464,1.464,0,0,1,1.523,1.757,1.464,1.464,0,0,1-1.523-1.757" transform="translate(-50.144 -44.413)"/>
      <path id="パス_5938" data-name="パス 5938" d="M138.154,159.94a7.105,7.105,0,0,0,.169,2.709,3.083,3.083,0,0,0,.437,1.332c.863,1.1,2.522,1.181,3.788,1.05a4.674,4.674,0,0,0,2.478-1.023.062.062,0,0,1,.1.059c-.494,2.411-3.9,2.874-5.525,1.27a14.539,14.539,0,0,1-2.18-2.368,2.591,2.591,0,0,1,.635-3.087.063.063,0,0,1,.1.059" transform="translate(-58.423 -68.092)"/>
      <path id="パス_5939" data-name="パス 5939" d="M101.65,140.315a2.089,2.089,0,0,1-1.541,2.442,2.088,2.088,0,0,1,1.541-2.442" transform="translate(-42.621 -59.763)"/>
      <path id="パス_5940" data-name="パス 5940" d="M82.994,164.82c-17.093,6.1-51.533,3.458-62.218-13.033a18.4,18.4,0,0,1-2.691-10.779c.054-.655.234-2.177.29-2.8.183-.924.371-1.849.586-2.766.136-.374.626-1.92.745-2.245.131-.263.451-1.013.591-1.291a20.253,20.253,0,0,1,1.36-2.492,7.38,7.38,0,0,1,.519-.79c3.964-5.605,9.767-9.563,14.552-14.377a64.032,64.032,0,0,0,4.95-5.426l.027.759c-2.941-3.412-2.93-8.6-.91-12.456,1.277-2.6,4.548-4.826,7.421-3.273,3.933,2.2,4.494,7.633,3.211,11.55a.107.107,0,0,1-.208-.016.1.1,0,0,1,.089-.122l1.923-.2a.057.057,0,0,1,.011.114l-1.9.293.089-.121-.208-.016a11.6,11.6,0,0,0-.644-8.012c-2.194-4.419-6.8-4.01-8.922.257-1.728,3.448-1.668,8.21.91,11.207a.584.584,0,0,1,.028.759,77.275,77.275,0,0,1-10.528,10.58,69.273,69.273,0,0,0-7.968,7.624c-.341.476-1.337,1.687-1.618,2.195-.251.448-.709,1.1-.957,1.544-.273.591-.72,1.451-.991,2.042-8.681,22.866,14.909,30.885,33.091,32.746,9.763,1.065,19.8,1.064,29.336-1.567.067-.024.1.088.036.109" transform="translate(-7.689 -39.754)"/>
      <path id="パス_5941" data-name="パス 5941" d="M82.094,106.612a42.11,42.11,0,0,1,8.681-.128,46.227,46.227,0,0,1,8.576,1.576.474.474,0,0,1,.324.588.482.482,0,0,1-.941-.04,12.558,12.558,0,0,1,.065-4.346c1.172-7.094,8.872-10.24,11.787-2.33,1.258,4,.54,8.954-2.691,11.831l.048-.266a59.832,59.832,0,0,0,4.544,6.414c4.862,6.2,11.359,11.541,13.834,19.293a22.594,22.594,0,0,1,1.018,7.988,18.346,18.346,0,0,1-8.382,15.3,28.637,28.637,0,0,1-5.292,2.725c-.065.03-.111-.077-.045-.105,4.657-2.244,8.991-5.659,11.079-10.469,1.6-3.506,1.708-7.545,1.3-11.332-.791-6.565-4.924-11.9-9.123-16.784a84.758,84.758,0,0,1-9.291-12.821.211.211,0,0,1,.048-.266,9.724,9.724,0,0,0,3.149-7.314c.052-2.645-.826-5.6-3-7.21-2.295-1.726-5.163-.344-6.516,1.864a11.351,11.351,0,0,0-1.574,7.666l-.94-.064.32.6a53.939,53.939,0,0,0-8.367-1.834,55.091,55.091,0,0,0-8.6-.422c-.069.005-.079-.11-.008-.115" transform="translate(-34.945 -41.438)"/>
      <path id="パス_5942" data-name="パス 5942" d="M66.509,103.329c1.365,1.843.987,4.954-1.106,6.117a1.637,1.637,0,0,1-2.094-.784,5.519,5.519,0,0,1-.546-4.5,3.767,3.767,0,0,1,1.36-2.014,1.352,1.352,0,0,1,2.138.716.06.06,0,0,1-.1.063c-1.214-1.168-1.969.47-2.222,1.572-.371,1.015-.72,5.5,1.279,4.629a2.676,2.676,0,0,0,.826-1.719,12.412,12.412,0,0,0,.355-4.03.06.06,0,0,1,.106-.045" transform="translate(-26.631 -43.384)"/>
      <path id="パス_5943" data-name="パス 5943" d="M67.032,98.29a1.535,1.535,0,0,1-.171,2.389,1.535,1.535,0,0,1,.171-2.389" transform="translate(-28.268 -41.864)"/>
      <path id="パス_5944" data-name="パス 5944" d="M62.612,100.345a1.492,1.492,0,0,1,1.541,1.778,1.492,1.492,0,0,1-1.541-1.778" transform="translate(-26.658 -42.739)"/>
      <path id="パス_5945" data-name="パス 5945" d="M70.715,101a1.464,1.464,0,0,1-1.757,1.523A1.464,1.464,0,0,1,70.715,101" transform="translate(-29.37 -43.006)"/>
      <path id="パス_5946" data-name="パス 5946" d="M37.767,153.082a2.589,2.589,0,0,1,.191,3.145,14.5,14.5,0,0,1-2.494,2.035c-1.836,1.357-5.144.416-5.289-2.041a.061.061,0,0,1,.106-.044c1.372,1.539,4.635,2.272,6.207.862a3.08,3.08,0,0,0,.622-1.257,7.1,7.1,0,0,0,.552-2.658.063.063,0,0,1,.106-.044" transform="translate(-12.852 -65.194)"/>
      <path id="パス_5947" data-name="パス 5947" d="M57.811,190.382a56.756,56.756,0,0,0,15.916,3.705c5.412.681,11.041.681,16.269-1.059,7.659-2.35,14.8-7.922,16.875-15.915a10.729,10.729,0,0,0-.58-7.911c2.783,3.071,1.774,8.653.153,12.139-4.461,9.562-14.667,12.9-24.49,13.514a45.737,45.737,0,0,1-16.524-1.176,30.815,30.815,0,0,1-7.671-3.194.058.058,0,0,1,.052-.1" transform="translate(-24.59 -72.067)"/>
      <path id="パス_5948" data-name="パス 5948" d="M36.536,161.878a12.367,12.367,0,0,0-1.722,6.37,14.2,14.2,0,0,0,.049,3.4c.65,3.357,2.776,6.232,4.879,8.838,1.4,1.816,3.239,3.342,4.757,4.994a16.148,16.148,0,0,1-5.689-4.2,20.087,20.087,0,0,1-4.312-9.56,11.191,11.191,0,0,1-.109-7.024,5.81,5.81,0,0,1,2.068-2.9.059.059,0,0,1,.079.083" transform="translate(-14.424 -68.908)"/>
      <path id="パス_5949" data-name="パス 5949" d="M81.615,138.809a2.088,2.088,0,0,1,1.179,2.636,2.088,2.088,0,0,1-1.179-2.636" transform="translate(-34.711 -59.122)"/>
      <path id="パス_5950" data-name="パス 5950" d="M67.213,109.369c-.095,1.329-.661,2.372-1.265,2.328s-1.017-1.156-.923-2.485.661-2.372,1.265-2.328,1.017,1.156.923,2.485" transform="translate(-27.69 -45.524)"/>
      <path id="パス_5951" data-name="パス 5951" d="M122.3,113.3c-.095,1.329-.661,2.372-1.265,2.328s-1.017-1.156-.923-2.485.661-2.371,1.265-2.328,1.017,1.156.923,2.485" transform="translate(-51.152 -47.196)"/>
      <path id="パス_5952" data-name="パス 5952" d="M46.926,224.744c3.647,6.163,10.079,10.228,16.878,12.111a29.993,29.993,0,0,0,20.609-3.079,19.994,19.994,0,0,0,9.251-10.332,13.953,13.953,0,0,1-3.046,6.637c-6.332,7.882-17.557,9.281-26.9,7.136-4.756-.9-9.49-2.825-12.923-6.354a17.224,17.224,0,0,1-3.978-6.071.058.058,0,0,1,.1-.048" transform="translate(-19.941 -95.17)"/>
      <path id="パス_5953" data-name="パス 5953" d="M44.637,212.462a14.353,14.353,0,0,0,.125,5.574,14.931,14.931,0,0,1-1.27-5.662.576.576,0,1,1,1.145.088" transform="translate(-18.524 -90.208)"/>
    </g>
  </g>
  <g id="グループ_464" data-name="グループ 464" transform="translate(13.083 121.777)">
    <g id="グループ_463" data-name="グループ 463" clip-path="url(#clip-path-4)">
      <path id="パス_5954" data-name="パス 5954" d="M36.275,233.377c-.836-.481-1.747-.5-2.638-.921-1.42-.7-.355-2.016.288-2.8,2.243-3.026,6.063-5.37,9.917-4.455,4.12.816,5.64,5.661,4.371,9.293a15.626,15.626,0,0,1-2.64,5.068c-.6.917-1.694,1.448-2.558.467-.492-.536-.811-1.214-1.229-1.734a2.589,2.589,0,0,0-.879-.754c-.534-.313-1.26-.121-1.911-.223a2.207,2.207,0,0,1-1.7-1.488c-.141-.5-.088-.953-.2-1.393l.108-.039c.347.873.349,1.714,1.319,2.12a1.8,1.8,0,0,0,1.171.083c2.045-.464,3.06,1.3,4.143,2.62.118.114.246.19.237.163a1.857,1.857,0,0,0,.521-.56,14.036,14.036,0,0,0,3.122-7.225c.432-3.975-2.6-7.055-6.6-5.879a14.724,14.724,0,0,0-6.508,4.511c-.336.448-.94.856-.95,1.365a.616.616,0,0,0,.29.338,14.972,14.972,0,0,1,2.4,1.358Z" transform="translate(-27.11 -217.608)"/>
      <path id="パス_5955" data-name="パス 5955" d="M107.023,243.527c-5.772-2.816-9.517,3.873-9.5,8.9.059.7-.128,2,.4,2.458.273.156.729-.012,1.122-.2a5.645,5.645,0,0,1,2.761-.822c.994-.034,1.669.957,2.46,1.052.958.069,1.175-.4,1.874-1.115a3.41,3.41,0,0,1,3.1-.623,6.986,6.986,0,0,0,1.7.274c.125-.073.083-.418.091-.56a14.85,14.85,0,0,0-2.588-8.189l.083-.079a10.474,10.474,0,0,1,2.932,4.724,17.6,17.6,0,0,1,.722,3.445c.148,1.277-.525,2.037-1.8,1.868-1.2-.146-2.47-.809-3.491,0a7.777,7.777,0,0,1-1.088.97,2.5,2.5,0,0,1-2.492,0c-.567-.358-.946-.889-1.595-.98a4.984,4.984,0,0,0-2.493.5,1.819,1.819,0,0,1-1.511.064,1.744,1.744,0,0,1-.5-1.4,17.672,17.672,0,0,1,.593-6.939c.941-2.667,3.692-5.129,6.707-4.6a5.622,5.622,0,0,1,2.563,1.164Z" transform="translate(-54.456 -224.933)"/>
    </g>
  </g>
</svg>
