<svg xmlns="http://www.w3.org/2000/svg" xmlns:xlink="http://www.w3.org/1999/xlink" width="248.161" height="151.072" viewBox="0 0 248.161 151.072">
  <defs>
    <clipPath id="clip-path">
      <rect id="長方形_3773" data-name="長方形 3773" width="248.161" height="151.072" fill="none"/>
    </clipPath>
    <clipPath id="clip-path-2">
      <rect id="長方形_3774" data-name="長方形 3774" width="62.195" height="35.161" fill="none"/>
    </clipPath>
    <clipPath id="clip-path-3">
      <path id="パス_5889" data-name="パス 5889" d="M169.835,126.417c.623-1.6,1.637.236,2.781.681,1.394.543,1.66-.564,2.828-.109s.615,1.45,2.009,1.993l2.143.306c2.179-2.332,5.163-7.472,5.163-10.558l-43.294.768c0,2.317,1.454,5.407,2.736,7.34a7.8,7.8,0,0,0,2.894.262c1.144-.445,2.158-2.281,2.781-.681.834,2.143.685,5.507.514,6.967a22.74,22.74,0,0,0,11.742,3.044,30.089,30.089,0,0,0,8.108-1.451,11.639,11.639,0,0,1-.407-8.559" transform="translate(-141.466 -118.729)" fill="none"/>
    </clipPath>
  </defs>
  <g id="kaeru03" transform="translate(-900 -2498.464)">
    <g id="グループ_456" data-name="グループ 456" transform="translate(-0.003 0.964)">
      <g id="グループ_455" data-name="グループ 455" transform="translate(900.003 2497.5)">
        <g id="グループ_448" data-name="グループ 448">
          <g id="グループ_447" data-name="グループ 447" clip-path="url(#clip-path)">
            <path id="パス_5865" data-name="パス 5865" d="M200.574,75.642c.1-12.7.217-25.681-.031-38.379H183.489c-6.14,0-12.6-.232-18.742-.179-1.591-9.282-9.568-12.575-16.027-22.014a7.553,7.553,0,0,0,2.047-5.45c0-3.6-2.027-6.515-4.528-6.515s-4.528,2.917-4.528,6.515a9.156,9.156,0,0,0,.229,2.05,36.23,36.23,0,0,0-15.77,0,9.155,9.155,0,0,0,.228-2.05c0-3.6-2.027-6.515-4.528-6.515s-4.528,2.917-4.528,6.515a7.555,7.555,0,0,0,2.047,5.45c-6.5,9.5-14.539,12.773-16.057,22.193h-.053c-5.533-.105-7.242-.144-12.146,0,.009,9.776.018,19.481.027,29.185.21,12.418.243,24.7.02,36.981,8.021,3.057,16.024,5.8,24.028,8.551l-10.059-8.171c31.891-.189,63.6-.246,95.3-.3.15-6.677.006-13.3.061-20.022q.032-3.922.064-7.845" transform="translate(-51.243 -1.745)" fill="#fff"/>
            <path id="パス_5866" data-name="パス 5866" d="M94.273,296.133c-.049-10.881-.242-22.637-.046-33.516a7.834,7.834,0,0,1,.639-3.214c.467-.931,1.533-1.044,2.7-1.124,0,0,164.968.106,165.2.16,1.194-.193,2.9-.194,3.65.751.919,1.152.841,3.215.841,5.817,0,10.346.113,20.949-.089,31.294Z" transform="translate(-52.935 -145.229)" fill="#fff"/>
            <path id="パス_5867" data-name="パス 5867" d="M36.309,255.449c-9.4.032-18.957-.056-28.358-.024-7.948.027-6.485-.257-6.485.6,0,5.4.027,11.454-.044,16.853a.667.667,0,0,0,.135.506.665.665,0,0,0,.471.119c8.446-.042,16.892,0,25.338,0h3.886s1.647.916,2.684,1.446l6.113,3.123-3.427-3.994a2,2,0,0,1-.4-.6,1.617,1.617,0,0,1-.085-.6c.193-5.635.174-11.412.174-17.429" transform="translate(-0.765 -143.61)" fill="#fff"/>
            <path id="パス_5868" data-name="パス 5868" d="M365.888,169.506a66.474,66.474,0,0,0-5.453,6.465c3.91-2.221,7.819-4.442,11.995-6.6,13.012-.105,26.026-.063,39.14-.057a35.345,35.345,0,0,1,.132-6.82c.078-1.479.065-2.961.052-4.441l-.063-7.276c-.015-1.711-.03-3.423-.165-5.161-5.6-.033-11.2-.067-16.861-.1,3.239-1.927,6.557-3.721,10.092-5.537,9.117.486,37.023.252,42.388.262.038-8.034.076-16.068.049-24.027-18.728.378-36.793.1-56.264.22-.216,7.964-.081,15.99-.091,23.78,2.274-.009,4.549.1,6.827.288a11.028,11.028,0,0,1-1.145,1.235c-1.236,1.2-2.471,2.407-3.83,3.669-12.5.046-25.006.091-37.279.094.172,7.935-.572,15.883.076,23.979l3.308-.122a45.552,45.552,0,0,1,7.091.144" transform="translate(-199.737 -65.35)" fill="#fff"/>
          </g>
        </g>
        <g id="グループ_452" data-name="グループ 452" transform="translate(52.035 0.357)">
          <g id="グループ_451" data-name="グループ 451" clip-path="url(#clip-path-2)">
            <path id="パス_5869" data-name="パス 5869" d="M158.294,11.86a1.16,1.16,0,0,1,2.206-.406,3.6,3.6,0,0,1,.369,2.518,5.311,5.311,0,0,1-.554,2.481,1.252,1.252,0,0,1-1.973.182,3.226,3.226,0,0,1-.776-2.533,3.627,3.627,0,0,1,.478-1.609.045.045,0,0,1,.062-.015,7.986,7.986,0,0,0,.562,2.982c.183.416.46.755.675.749.236.035.632-.337.874-.761.715-1.117.253-2.528-.363-3.563-.422-.745-.962-.524-1.484.016a.046.046,0,0,1-.077-.041" transform="translate(-140.629 -6.425)"/>
            <path id="パス_5870" data-name="パス 5870" d="M161.018,7.313a1.17,1.17,0,0,1,0,1.826,1.17,1.17,0,0,1,0-1.826" transform="translate(-142.328 -4.469)"/>
            <path id="パス_5871" data-name="パス 5871" d="M156.838,9.7a1.137,1.137,0,0,1,1.268,1.268A1.137,1.137,0,0,1,156.838,9.7" transform="translate(-140.221 -5.81)"/>
            <path id="パス_5872" data-name="パス 5872" d="M164.639,9.7a1.116,1.116,0,0,1-1.254,1.254A1.116,1.116,0,0,1,164.639,9.7" transform="translate(-143.902 -5.809)"/>
            <path id="パス_5873" data-name="パス 5873" d="M134.217,63.68a1.975,1.975,0,0,1,.316,2.382,11.066,11.066,0,0,1-1.786,1.683c-1.323,1.132-3.889.6-4.133-1.265a.047.047,0,0,1,.078-.039c1.127,1.1,3.648,1.476,4.768.32a2.355,2.355,0,0,0,.4-.99,5.417,5.417,0,0,0,.275-2.051.048.048,0,0,1,.078-.039" transform="translate(-124.353 -36.157)"/>
            <path id="パス_5874" data-name="パス 5874" d="M178.535,46.721a1.592,1.592,0,0,1,1.04,1.941,1.592,1.592,0,0,1-1.04-1.941" transform="translate(-152.392 -26.628)"/>
            <path id="パス_5875" data-name="パス 5875" d="M144.814,54.683c10.374,3.575,22.686,3.556,33.378,1.438,11.415-2.465,19.645-9.257,15.791-21.765-.174-.464-.463-1.142-.643-1.607-.161-.352-.469-.871-.644-1.226-.19-.394-.865-1.37-1.111-1.757a52.9,52.9,0,0,0-5.647-6.23,58.9,58.9,0,0,1-7.433-8.617.445.445,0,0,1,.062-.576c2.124-2.14,2.428-5.755,1.3-8.474-1.363-3.332-4.856-3.943-6.772-.679a8.841,8.841,0,0,0-.924,6.058h-.159l.061.1-1.43-.327c-.054-.006-.041-.1.015-.086l1.452.254a.077.077,0,0,1,.061.1c-.01.09-.147.081-.159,0-.765-3.05-.041-7.153,3.068-8.61,2.27-1.019,4.635.839,5.466,2.892,1.326,3.038,1.054,6.989-1.368,9.423l.062-.576a48.886,48.886,0,0,0,3.47,4.4c3.093,3.552,6.763,6.643,9.521,10.5.109.192.856,1.349.956,1.528.124.226.365.741.487.968a9.1,9.1,0,0,1,.575,1.323,11.991,11.991,0,0,1,.469,1.363c2.6,9.88-1.911,16.584-11,20.39-8.8,3.617-18.652,3.981-28,2.814a41.389,41.389,0,0,1-10.942-2.934c-.051-.02-.017-.1.033-.081" transform="translate(-133.431 -1.699)"/>
            <path id="パス_5876" data-name="パス 5876" d="M154.062,10.825a39.815,39.815,0,0,0-13.024.8l.276-.439-.718,0a8.652,8.652,0,0,0-.782-5.916c-.91-1.747-3.014-2.964-4.855-1.771a6.659,6.659,0,0,0-2.675,5.32,7.414,7.414,0,0,0,2,5.734.161.161,0,0,1,.022.205A64.594,64.594,0,0,1,126.543,24c-3.457,3.488-6.892,7.322-7.848,12.271a16.633,16.633,0,0,0,.374,8.688c1.328,3.77,4.438,6.6,7.859,8.562.049.024.007.1-.041.078a21.872,21.872,0,0,1-3.877-2.36,13.986,13.986,0,0,1-5.545-12.091,17.253,17.253,0,0,1,1.207-6.02c2.3-5.762,7.533-9.467,11.567-13.923a45.6,45.6,0,0,0,3.8-4.632l.022.2c-2.3-2.364-2.579-6.171-1.405-9.144,2.632-5.839,8.324-3.073,8.838,2.411a9.571,9.571,0,0,1-.186,3.309.367.367,0,0,1-.443.271.372.372,0,0,1,0-.72,35.25,35.25,0,0,1,6.608-.734,32.08,32.08,0,0,1,6.6.568.044.044,0,0,1-.012.087" transform="translate(-118.063 -1.695)"/>
            <path id="パス_5877" data-name="パス 5877" d="M213.539,12a9.462,9.462,0,0,0,.051,3.084,2.04,2.04,0,0,0,.535,1.352c1.473.768,1.451-2.659,1.224-3.451-.134-.851-.618-2.14-1.606-1.316a.045.045,0,0,1-.07-.053,1.086,1.086,0,0,1,.647-.653c1.079-.288,1.76,1.011,1.943,1.83a4.209,4.209,0,0,1-.659,3.4,1.248,1.248,0,0,1-1.634.483,3.29,3.29,0,0,1-.509-4.712.046.046,0,0,1,.078.04" transform="translate(-171.636 -6.497)"/>
            <path id="パス_5878" data-name="パス 5878" d="M216.244,7.313a1.17,1.17,0,0,1,0,1.826,1.17,1.17,0,0,1,0-1.826" transform="translate(-173.381 -4.469)"/>
            <path id="パス_5879" data-name="パス 5879" d="M219.906,9.7a1.137,1.137,0,0,1-1.268,1.268A1.137,1.137,0,0,1,219.906,9.7" transform="translate(-174.971 -5.81)"/>
            <path id="パス_5880" data-name="パス 5880" d="M212.121,9.7a1.116,1.116,0,0,1,1.254,1.254A1.116,1.116,0,0,1,212.121,9.7" transform="translate(-171.306 -5.809)"/>
            <path id="パス_5881" data-name="パス 5881" d="M236.313,63.72a5.417,5.417,0,0,0,.275,2.051,2.348,2.348,0,0,0,.4.99c1.121,1.156,3.637.777,4.767-.32a.047.047,0,0,1,.078.039c-.245,1.86-2.81,2.4-4.133,1.265a11.07,11.07,0,0,1-1.786-1.683,1.974,1.974,0,0,1,.316-2.382.048.048,0,0,1,.078.039" transform="translate(-184.545 -36.158)"/>
            <path id="パス_5882" data-name="パス 5882" d="M170.813,91.549c-5.73,2.856-12.424,3.047-18.638,2.012-7.445-1-15.011-4.086-17.892-11.605-1.044-2.711-1.5-7.088.779-9.22a8.122,8.122,0,0,0-.875,5.981c1.149,6.192,6.273,10.815,11.971,13.019a28.175,28.175,0,0,0,12.315,1.687,43.259,43.259,0,0,0,12.306-1.955c.047-.019.082.06.034.081" transform="translate(-127.058 -41.255)"/>
            <path id="パス_5883" data-name="パス 5883" d="M231.846,72.725c2.177,1.884,1.887,5.216.952,7.655a15.313,15.313,0,0,1-3.8,7.037,11.942,11.942,0,0,1-4.56,2.873,51.723,51.723,0,0,0,3.9-3.529c2.339-2.447,4.7-5.463,4.411-9.04a9.44,9.44,0,0,0-.964-4.938c-.028-.038.028-.09.065-.059" transform="translate(-178.236 -41.244)"/>
            <path id="パス_5884" data-name="パス 5884" d="M198.371,46.721a1.593,1.593,0,0,1-1.04,1.941,1.592,1.592,0,0,1,1.04-1.941" transform="translate(-162.961 -26.628)"/>
            <path id="パス_5885" data-name="パス 5885" d="M214.962,17.536c0,1.016.374,1.84.836,1.84s.836-.824.836-1.84S216.26,15.7,215.8,15.7s-.836.823-.836,1.839" transform="translate(-172.907 -9.183)"/>
            <path id="パス_5886" data-name="パス 5886" d="M159.994,18.44c0,1.016.374,1.84.836,1.84s.836-.824.836-1.84-.374-1.84-.836-1.84-.836.824-.836,1.84" transform="translate(-141.999 -9.691)"/>
            <g id="グループ_450" data-name="グループ 450" transform="translate(9.885 51.612)">
              <g id="グループ_449" data-name="グループ 449" clip-path="url(#clip-path-3)">
                <path id="パス_5887" data-name="パス 5887" d="M182.722,131.383c-2.371,5.194-8.058,7.993-13.527,8.534-7.217,1.125-15.681-.549-20.068-6.886a10.5,10.5,0,0,1-1.95-5.214,15.163,15.163,0,0,0,6.469,8.36c5.984,3.857,14.137,5.056,20.663,1.8a22.335,22.335,0,0,0,4.627-2.719,17.633,17.633,0,0,0,3.709-3.92c.025-.044.1,0,.077.042" transform="translate(-144.677 -123.839)"/>
                <path id="パス_5888" data-name="パス 5888" d="M231,122.644a11.379,11.379,0,0,1-1.273,4.232,10.945,10.945,0,0,0,.4-4.232.439.439,0,1,1,.875,0" transform="translate(-191.093 -120.661)"/>
              </g>
            </g>
            <path id="パス_5890" data-name="パス 5890" d="M212.186,137.432c.715.172,1.384-.013,2.128.107,1.19.21.693,1.4.392,2.113-.991,2.7-3.281,5.231-6.3,5.39-3.189.288-5.342-2.929-5.194-5.859a11.909,11.909,0,0,1,.843-4.275c.4-1.231,1.321-1.407,2.252-.539a3.67,3.67,0,0,0,1.595,1.015c.458.115.948-.183,1.446-.248a1.683,1.683,0,0,1,1.563.723c.21.333.269.678.444.977l-.07.052c-.442-.564-.624-1.18-1.42-1.268a1.371,1.371,0,0,0-.875.191c-1.4.779-2.519-.3-3.594-1.026-.111-.058-.221-.086-.208-.068a1.412,1.412,0,0,0-.26.521,10.7,10.7,0,0,0-.731,5.957c.538,3,3.419,4.6,6.094,2.881a11.225,11.225,0,0,0,3.792-4.7c.149-.4.5-.828.4-1.2a.47.47,0,0,0-.285-.185,11.429,11.429,0,0,1-2.047-.478Z" transform="translate(-166.298 -75.608)"/>
            <path id="パス_5891" data-name="パス 5891" d="M142.186,145.075c4.828.819,6.13-4.879,5.036-8.551-.194-.5-.337-1.493-.824-1.711-.234-.055-.531.166-.779.384a4.305,4.305,0,0,1-1.844,1.195c-.716.239-1.427-.341-2.026-.241-.715.155-.772.548-1.131,1.219a2.6,2.6,0,0,1-2.131,1.121,5.345,5.345,0,0,0-1.3.165c-.076.081.029.324.054.43a11.323,11.323,0,0,0,3.653,5.435l-.044.076a7.99,7.99,0,0,1-3.16-2.826,13.428,13.428,0,0,1-1.268-2.365c-.383-.9-.054-1.6.912-1.753.912-.152,1.98.061,2.555-.748a5.928,5.928,0,0,1,.587-.944,1.905,1.905,0,0,1,1.824-.532c.492.141.883.446,1.377.374a3.8,3.8,0,0,0,1.715-.9c.862-.668,1.466-.467,1.757.548a13.469,13.469,0,0,1,1.057,5.2c-.115,2.153-1.6,4.546-3.917,4.809a4.284,4.284,0,0,1-2.125-.3Z" transform="translate(-128.655 -75.991)"/>
          </g>
        </g>
        <g id="グループ_454" data-name="グループ 454">
          <g id="グループ_453" data-name="グループ 453" clip-path="url(#clip-path)">
            <path id="パス_5892" data-name="パス 5892" d="M28.612,273.067a94.223,94.223,0,0,1-17.445.205A94.4,94.4,0,0,0,.7,273.5a.476.476,0,0,1-.5-.5c-.127-3.009-.189-6.018-.2-9.029,0-3.028.1-6.053.263-9.077A.417.417,0,0,1,.7,254.5c.812.042,1.625.1,2.438.158s1.625.125,2.437.217a.067.067,0,0,1,.058.073.066.066,0,0,1-.058.058c-1.623.167-3.247.285-4.875.376l.441-.441q.383,6.766.195,13.543c-.038,1.5-.061,3.01-.139,4.514l-.5-.5c2.326.122,4.652.288,6.978.295,2.028.058,4.928-.162,6.978-.283,2.326-.147,4.652-.11,6.978-.043s4.652.193,6.978.463a.066.066,0,0,1,0,.131" transform="translate(0 -143.105)"/>
            <path id="パス_5893" data-name="パス 5893" d="M17.079,254.7a141.981,141.981,0,0,1,21.027-.235c2.336.11,4.673.123,7.009.07a.226.226,0,0,1,.231.231c.221,5.916.488,12.129.471,18.058l-.179-.468c1.462,1.624,2.888,3.28,4.3,4.945a.6.6,0,0,1-.728.94c-3.1-1.716-6.18-3.478-9.185-5.359a.066.066,0,0,1,.06-.117c.823.336,1.632.7,2.446,1.05,2.435,1.067,4.841,2.2,7.234,3.352l-.728.941c-1.5-1.589-2.995-3.188-4.451-4.819a.705.705,0,0,1-.176-.465c0-1.5.02-3.009.043-4.514.029-4.38.289-9.192.427-13.544l.231.231c-2.336-.053-4.673-.039-7.009.07a137.773,137.773,0,0,1-14.018.182c-2.336-.084-4.673-.194-7.009-.418-.075,0-.078-.129,0-.131" transform="translate(-9.571 -142.924)"/>
            <path id="パス_5894" data-name="パス 5894" d="M193.894,80.792c2.2-.067,4.406-.112,6.609-.158a.219.219,0,0,1,.223.223c.056,2.08.119,6.212.144,8.287.3,18.427.259,39.565-.1,58.008a.265.265,0,0,1-.268.268q-6-.07-12.011-.07l-12.011.058c-19.751.275-40.3.441-60.055.446l-12.011-.045.387-1.19c0,.006,12.349,9.139,12.353,9.145a.521.521,0,0,1-.485.908c-4.276-1.534-8.532-3.127-12.8-4.687-3.162-1.185-9.611-3.564-12.77-4.771a.066.066,0,0,1,.043-.124c3.258,1.04,9.709,3.19,12.95,4.258,4.306,1.449,8.623,2.867,12.92,4.342l-.478.913-12.507-8.918a.656.656,0,0,1,.386-1.19l12.011-.046c23.728-.048,48.326.377,72.065.505q6.006,0,12.011-.07l-.267.267L200,130.578c-.182-14.32-.012-31.23.193-45.578l.087-4.143.223.223c-2.2-.045-4.406-.091-6.609-.158-.084,0-.079-.135,0-.131" transform="translate(-51.203 -45.34)"/>
            <path id="パス_5895" data-name="パス 5895" d="M157.442,80.277c22.587-.9,45.486-.9,68.074,0-22.587.9-45.486.9-68.074,0" transform="translate(-88.529 -44.76)"/>
            <path id="パス_5896" data-name="パス 5896" d="M90.234,144.655c-.824-10.732-.429-21.455-.136-32.185.046-5.364-.29-10.728-.37-16.092s-.188-10.738-.1-16.107a.666.666,0,0,1,.668-.655c5.993.03,13.44.207,19.463.365,2.163.077,4.325.137,6.488.239a.066.066,0,0,1,0,.131c-2.163.1-4.325.162-6.488.239-6.036.177-13.459.315-19.463.365l.669-.669c.214,10.732-.382,21.46-.467,32.185,0,5.364.45,10.728.387,16.092-.038,5.365-.145,10.729-.523,16.093a.066.066,0,0,1-.131,0" transform="translate(-50.38 -44.768)"/>
            <path id="パス_5897" data-name="パス 5897" d="M491.191,115.9c2.114-.143,4.229-.241,6.345-.319a.373.373,0,0,1,.385.385q.1,2.989.152,5.979c.165,5.758-.064,12.149-.281,17.936a.251.251,0,0,1-.257.257q-5.424-.133-10.849.04c-10.765.353-21.793.537-32.546.276l.281-.074c-3.178,1.684-6.367,3.347-9.588,4.949l-.091-.348q1.1.049,2.193.121a.066.066,0,0,1,.062.069.066.066,0,0,1-.062.062q-1.1.07-2.193.121a.184.184,0,0,1-.192-.176.187.187,0,0,1,.1-.174c1.518-.966,3.054-1.9,4.59-2.838,1.491-.852,3.38-2.182,4.872-2.857,3.626-.076,7.251-.137,10.877-.129,7,.02,14.673.162,21.7.4q5.424.165,10.849.041l-.257.256c-.358-7.875-.436-16.059-.128-23.915l.385.385c-1.057-.039-2.115-.077-3.172-.137s-2.115-.1-3.172-.182c-.082,0-.076-.131,0-.131" transform="translate(-249.967 -64.988)"/>
            <path id="パス_5898" data-name="パス 5898" d="M435.807,135.84c-.418-5.011-.538-10.184-.517-15.209.022-1.69.112-3.38.185-5.07a.379.379,0,0,1,.392-.4q5.859.341,11.718.1c9.757-.419,19.524-.579,29.281-.107,1.952.083,3.9.19,5.856.344a.066.066,0,0,1,0,.131c-7.8.555-15.613.735-23.425.58-7.809-.04-15.616-.779-23.425-.248l.4-.4c.073,1.69.163,3.38.185,5.07.023,3.274-.049,6.856-.19,10.139-.078,1.69-.183,3.38-.327,5.07,0,.075-.13.079-.131,0" transform="translate(-244.76 -64.587)"/>
            <path id="パス_5899" data-name="パス 5899" d="M426.128,175.412a15.735,15.735,0,0,1,6.491-.32l-.271.112c2.142-1.4,3.38-3.687,5.139-5.48l.464,1.128c-.6.027-1.209.059-1.814.045a26.5,26.5,0,0,1-5.442-.638.068.068,0,0,1,0-.131,26.154,26.154,0,0,1,7.255-.594.646.646,0,0,1,.464,1.128c-.468.416-.934.836-1.414,1.24a30.626,30.626,0,0,0-2.909,2.4,12.124,12.124,0,0,0-1.2,1.454.235.235,0,0,1-.153.093,15.756,15.756,0,0,1-6.61-.3.069.069,0,0,1,0-.131" transform="translate(-239.582 -95.305)"/>
            <path id="パス_5900" data-name="パス 5900" d="M397.852,206.245c-8.837.433-17.688.561-26.535.5l.277-.072c-4.077,2.2-8.222,4.279-12.307,6.463a.238.238,0,0,1-.293-.366q3.072-3.325,6.037-6.745l.169.377c-3.142.046-7.634.155-10.818.235a.452.452,0,0,1-.462-.462c-.053-1.993-.072-3.986-.109-5.979-.028-2.978-.1-8.979-.122-11.957,0-.006-.009-5.979-.009-5.984a.7.7,0,0,1,.7-.7c4.076-.015,9.992.131,14.13.186,2.355.037,4.71.123,7.065.182s4.71.158,7.065.267a.066.066,0,0,1,0,.131q-3.533.164-7.065.267c-4.085.105-9.985.259-14.13.3-2.355.042-4.71.043-7.065.067l.7-.7-.008,5.979c-.047,5.564-.108,12.405-.231,17.936l-.462-.462c3.207.06,7.661.211,10.818.235a.226.226,0,0,1,.169.377q-3.056,3.339-6.02,6.76l-.292-.366c2.009-1.152,3.991-2.354,5.989-3.527s3.981-2.372,6-3.515a.548.548,0,0,1,.277-.071c6.634-.058,13.269.038,19.9.231,2.212.073,4.423.156,6.634.272.078,0,.081.131,0,.131" transform="translate(-198.872 -102.091)"/>
            <path id="パス_5901" data-name="パス 5901" d="M454.189,182.349a79.922,79.922,0,0,1,13.131-.414.455.455,0,0,1,.48.48c-.639,6.018.081,11.922.175,17.936.041,1.993.074,3.986.018,5.979a.664.664,0,0,1-.674.674q-3.913-.076-7.823-.364c-.869-.077-1.739-.141-2.608-.244a.066.066,0,0,1-.058-.074,92,92,0,0,1,10.488-.666l-.674.674c-.074-3.988.024-7.974.234-11.957a71.748,71.748,0,0,0-.04-11.957l.48.48c-2.188.146-4.376.123-6.565.051s-4.377-.193-6.566-.465c-.073,0-.077-.127,0-.131" transform="translate(-255.356 -102.241)"/>
            <path id="パス_5902" data-name="パス 5902" d="M190.649,257.079c10.784-.322,22.071-.437,32.846-.485,19.108.1,38.362.591,57.484.058,12.377-.135,25.113-.193,37.469-.027a4.066,4.066,0,0,1,3.538,2.143l.065.12.005.156c.18,6.05.1,12.1-.026,18.15l-.535,18.119h-.131c-.147-5.2-.273-12.837-.282-18.128-.027-6.034-.114-12.068-.366-18.094l.07.276A2.894,2.894,0,0,0,318.7,258c-3.007-.007-9.994-.081-13.088-.112-15.271-.1-34.079-.579-49.266-.562-16.424.168-32.845.691-49.272.3-4.629-.079-11.807-.222-16.424-.418v-.131" transform="translate(-107.201 -144.241)"/>
            <path id="パス_5903" data-name="パス 5903" d="M93.605,295.182c-.455-6.224-.611-12.456-.506-18.691.1-2.771.274-6.619.321-9.347.017-1.558.014-3.116-.016-4.673-.01-.783-.038-1.549-.057-2.346a3.292,3.292,0,0,1,2.937-3.378c5.54-.392,11.106-.481,16.656-.453,6.236.085,12.454.329,18.687.653l0,.131c-10.594.865-22.059.544-32.7.544-.951.005-1.925,0-2.88,0a1.913,1.913,0,0,0-.463.1c-1.958.722-1.707,3.029-1.74,4.743q-.083,4.675.155,9.346c.236,4.52.291,9.517.162,14.018-.069,3.115-.2,6.231-.431,9.347Z" transform="translate(-52.332 -144.11)"/>
            <path id="パス_5904" data-name="パス 5904" d="M424.995,267.141c3.4-.064,6.738-.358,10.136-.488a39.312,39.312,0,0,1,10.182.942,4.658,4.658,0,0,1,1.731,1.451,2.1,2.1,0,0,1,.221,1.128l.066,1.054.305,4.227a155.692,155.692,0,0,1,.041,16.924c-.137,2.816-.322,5.629-.59,8.447h-.131c-.909-9.848-.312-19.722-.115-29.583-.018-.39.014-1.433-.044-1.784-.223-.621-1.2-1.244-1.562-1.446a27.824,27.824,0,0,0-5.029-.3c-2.986.059-7.179.193-10.134.1a31.056,31.056,0,0,1-5.088-.536Z" transform="translate(-238.965 -149.914)"/>
            <path id="パス_5905" data-name="パス 5905" d="M107.619,300.72c-.324-8.7-.467-17.587-.573-26.3l-.02-2.631c-.025-1.606-.227-4.057,1.772-4.616.509-.126,2.855-.078,3.417-.112,1.752-.034,3.505-.039,5.258-.056,27.726.355,56.52-.7,84.17-.573,13.944.2,28.39-.013,42.081.732-36.812,1.415-73.644-.021-110.46.45-7.087.2-16.6.552-23.665.668-1.794-.14-1.37,2.333-1.433,3.506,0,1.679-.022,6.155-.036,7.889-.072,7.013-.158,14.026-.379,21.041Z" transform="translate(-60.171 -149.807)"/>
            <path id="パス_5906" data-name="パス 5906" d="M201.971,143.222c.158.273,9.536-5.684,9.613-5.55.115.2-9.846,5.575-9.78,5.689.172.3,9.823-5.906,9.925-5.73.026.046-7.149,4.627-7.063,4.775s7.451-4.59,7.576-4.374c.064.112-7.121,3.837-6.98,4.082.1.182,7.174-4.231,7.213-4.164.021.037-5.81,4.112-5.76,4.2.027.046,6.326-3.752,6.37-3.677.029.051-5.5,3.2-5.418,3.348.135.233,6.261-3.8,6.342-3.661.063.11-6.236,3.735-6.188,3.817.1.175,5.956-3.679,6.06-3.5.08.138-5.59,3.4-5.521,3.516s5.991-3.627,6.064-3.5c.051.088-6.251,3.576-6.225,3.622s6.182-3.733,6.253-3.61c.041.07-4.214,3.324-4.2,3.351.092.16,4.97-3.018,5.035-2.906.034.058-4.967,3.132-4.887,3.271s5.111-3.03,5.146-2.971c.095.164-4.659,3.011-4.6,3.117.073.126,4.988-2.96,5.022-2.9s-4.239,2.721-4.224,2.747c.085.148,4.495-2.657,4.521-2.611.074.128-3.836,2.971-3.821,3,.066.115,5.01-3,5.055-2.918.072.125-4.514,2.811-4.425,2.964.032.056,4.506-2.757,4.574-2.64.015.027-3.964,2.645-3.951,2.667.075.13,4.321-2.6,4.365-2.52s-3.892,2.888-3.831,2.993,4.292-2.527,4.313-2.491c.055.1-4.231,2.333-4.17,2.44s4.188-2.589,4.262-2.46c.063.11-3.314,2.561-3.284,2.614.063.11,3.694-2.341,3.784-2.185.039.068-3.572,2.609-3.545,2.656.038.066,4.31-2.645,4.378-2.528s-3.584,2.629-3.53,2.725c.083.144,3.752-2.358,3.835-2.214.028.049-3.86,2.563-3.815,2.639.06.105,4.409-2.6,4.434-2.56.014.025-3.773,2.846-3.758,2.87.052.09,4.116-2.414,4.132-2.386.027.047-3.849,2.613-3.816,2.67.079.137,4.177-2.487,4.21-2.431s-3.644,2.314-3.581,2.423,3.218-1.891,3.232-1.866-3.141,1.793-3.109,1.848c.045.077,3.564-2.168,3.612-2.085.018.032-3.48,2.272-3.412,2.389s3.169-1.959,3.225-1.862-3.324,2.227-3.286,2.292c.017.028,3.754-2.28,3.8-2.2.015.025-3.734,2.493-3.664,2.615.046.079,3.97-2.338,3.99-2.3s-3.208,2.462-3.2,2.482c.063.109,3.53-2.148,3.578-2.066.063.109-3.655,2.045-3.585,2.166s3.967-2.429,4.027-2.325c.03.051-3.829,2.186-3.8,2.23.071.123,3.072-1.918,3.134-1.809.013.022-3.046,2.246-2.992,2.34.014.024,3.828-2.4,3.912-2.259.057.1-3.421,2.776-3.391,2.828s3.443-2.168,3.522-2.033c.053.093-3.31,2.072-3.29,2.107s3.342-2.1,3.414-1.971c.054.094-3.164,1.914-3.115,2,.072.125,3.007-1.915,3.085-1.781.018.032-2.692,1.858-2.639,1.949.019.033,3.449-2.077,3.486-2.012.066.114-3.729,2.835-3.7,2.881s3.823-2.394,3.9-2.254c.064.11-3.124,2.094-3.06,2.206.077.133,3.059-1.834,3.088-1.783.063.109-3.071,2.159-3.017,2.253.066.113,3.472-2.2,3.556-2.053.028.047-3.611,2.571-3.593,2.6.049.084,3.916-2.442,3.995-2.306.041.071-4.118,2.539-4.043,2.669s3.673-2.266,3.736-2.157c.012.021-3.39,2.6-3.338,2.691.028.048,3.93-2.462,4.014-2.318.072.125-3.478,2.618-3.44,2.684.071.124,3.327-1.977,3.352-1.935.045.078-3.165,2.336-3.146,2.37s3.516-2.072,3.534-2.041c.038.066-2.879,2.35-2.833,2.428s2.9-1.806,2.954-1.705c.029.05-3.536,1.925-3.467,2.045.048.082,3.966-2.34,3.988-2.3.063.108-3.506,2.078-3.45,2.175s3.22-1.97,3.268-1.887c.027.047-3.5,2.246-3.469,2.3s3.523-2.1,3.551-2.05-2.914,2.511-2.87,2.587c.084.147,3.093-1.942,3.161-1.825.042.073-3.736,2.16-3.713,2.2.053.091,3.92-2.341,3.954-2.283.074.129-3.788,2.282-3.724,2.391s3.431-2.08,3.475-2.006c.028.049-3.411,2.171-3.379,2.226.072.125,3.163-1.935,3.211-1.854.066.115-3.343,1.859-3.309,1.918.08.138,3.782-2.224,3.8-2.194s-3.7,2.2-3.661,2.269c.019.034,3.507-2.1,3.539-2.043.058.1-3.483,2.438-3.43,2.529.084.144,3.193-2.029,3.273-1.89.041.07-2.939,2.332-2.912,2.378s3.225-2.024,3.3-1.9-3.69,2.2-3.664,2.245c.064.111,3.759-2.312,3.82-2.206s-3.052,2.3-3,2.393c.075.13,2.891-1.751,2.926-1.69.02.035-3.178,2.663-3.136,2.735s3.752-2.216,3.774-2.179c.036.063-3.818,2.848-3.738,2.987.05.086,3.587-2.148,3.621-2.09.019.032-3.126,2.022-3.092,2.081.061.106,3.164-1.888,3.19-1.842.062.107-3.425,2-3.359,2.113s3.14-2.017,3.228-1.864c.038.065-3.084,1.8-3.068,1.83.05.088,3.5-2.057,3.513-2.029.07.12-4,2.786-3.984,2.811.077.134,4.025-2.485,4.1-2.364.049.084-3.752,2.68-3.739,2.7.056.1,3.634-2.137,3.651-2.108.074.127-3.654,2.34-3.624,2.394.06.1,3.765-2.361,3.847-2.221.066.115-4.062,2.457-4.03,2.513.075.131,3.638-2.24,3.7-2.136.025.044-3.766,2.331-3.69,2.463.088.152,3.5-2.09,3.527-2.036.074.13-3.837,2.925-3.789,3.009.02.035,4.182-2.462,4.2-2.427.051.089-3.935,2.3-3.867,2.416.028.049,3.8-2.247,3.822-2.207s-3.6,2.182-3.541,2.287c.094.162,3.949-2.321,3.967-2.29.068.118-4.641,2.841-4.6,2.918.031.053,4.21-2.568,4.269-2.465.049.084-3.889,2.137-3.825,2.248.023.039,3.38-2.154,3.467-2,.019.032-2.3,2.046-2.262,2.109s2.8-1.689,2.83-1.634c.018.032-2.217,1.577-2.2,1.612.049.086,2.09-1.28,2.122-1.225.022.039-.969,1.261-.958,1.28.027.047.573-.4.6-.349,0,.006-.246.475-.242.483.025.044.548-.368.57-.329.009.015.01.549.016.558s.32-.193.323-.186-.218.184-.217.186.213-.132.217-.126" transform="translate(-113.473 -77.386)" fill="none" stroke="#000" stroke-linecap="round" stroke-linejoin="round" stroke-width="0.992"/>
            <path id="パス_5907" data-name="パス 5907" d="M176.324,138.586c.065.113,2.979-1.807,3.017-1.742.105.182-5.606,3.886-5.553,3.978s9.3-5.769,9.472-5.469c.216.374-11.188,6.689-11.014,6.991s11.986-7.209,12.11-6.992c.068.119-13.33,8.185-13.2,8.416.118.2,17.876-10.824,18.094-10.447.355.615-18.317,10.406-18.144,10.706.374.647,18.474-11.066,18.647-10.766.077.133-19.232,11.051-18.918,11.594.394.682,20.02-11.964,20.2-11.66.315.546-20.791,11.594-20.571,11.974s20.564-12.093,20.66-11.928c.365.633-21.229,11.477-20.842,12.147.426.738,20.814-12.441,21-12.123.092.159-21.81,13.089-21.7,13.283s20.829-12.891,21.2-12.242c.252.435-21.868,12.669-21.681,12.994.334.579,21.47-13.066,21.76-12.563.378.656-21.778,12.481-21.524,12.921.165.286,21.194-13.22,21.62-12.482.158.274-22.242,12.9-22.05,13.234.123.212,22.312-13.684,22.659-13.082.377.653-23.136,13.886-22.99,14.139.119.207,7.651-4.634,7.745-4.472.109.19-8.056,4.742-8.026,4.792.07.122,7.588-4.6,7.683-4.435.137.238-7.644,4.487-7.5,4.744.112.194,6.842-4.131,6.921-4,.152.263-7.26,4.978-7.215,5.055.031.054,5.815-3.63,5.933-3.425.074.128-6.277,3.957-6.257,3.992.128.222,5.948-3.619,6.028-3.481.114.2-6.159,4-6.071,4.152.062.108,5.294-3.222,5.365-3.1.046.08-5.394,2.991-5.336,3.092.116.2,5.39-3.155,5.409-3.123.111.193-5.338,3.644-5.318,3.68.077.133,4.842-2.848,4.865-2.808.09.155-5.372,3.9-5.321,3.99.11.191,4.789-2.952,4.87-2.812.055.095-5.226,2.964-5.173,3.055.077.134,5.358-3.147,5.381-3.107.1.168-4.855,3.542-4.835,3.579.062.106,4.031-2.442,4.081-2.356.063.109-4.294,3.026-4.215,3.164.064.111,4.241-2.677,4.339-2.505.069.12-4.348,3.238-4.318,3.291.1.165,4.092-2.5,4.152-2.4s-4.24,2.741-4.224,2.769c.07.121,4.009-2.5,4.09-2.361.043.075-4.474,2.737-4.459,2.764.071.123,4.349-2.634,4.4-2.542s-4.145,2.284-4.08,2.4c.094.162,3.748-2.354,3.83-2.211.037.063-3.928,2.893-3.859,3.011.028.049,3.844-2.3,3.879-2.239.026.045-3.22,2.68-3.174,2.76.069.119,3.164-1.914,3.2-1.849.021.037-2.582,1.961-2.554,2.008.04.07,2.316-1.374,2.332-1.346.037.064-1.848,1.346-1.822,1.392s1.967-1.244,2.014-1.163c.008.014-.912.773-.9.787.021.037,1.143-.717,1.168-.674.013.023,0,.822,0,.829s-.008-.018,0,0-.085.243-.081.249.213-.132.217-.125" transform="translate(-94.002 -74.891)" fill="none" stroke="#000" stroke-linecap="round" stroke-linejoin="round" stroke-width="0.992"/>
            <path id="パス_5908" data-name="パス 5908" d="M208.163,133.14c0,.007.215-.131.218-.126s.156.473.161.481.45-.281.459-.265-.351.738-.338.762c.036.062,1.581-.935,1.59-.918.04.07-2.034,1.528-2,1.592.051.089,2.382-1.5,2.438-1.408" transform="translate(-117.049 -74.793)" fill="none" stroke="#000" stroke-linecap="round" stroke-linejoin="round" stroke-width="0.992"/>
            <path id="パス_5909" data-name="パス 5909" d="M193.37,125.4c.228.394,12.037-7.254,12.169-7.026.154.267-8.4,5.439-8.318,5.574.049.086,9.789-6.072,9.971-5.757.167.289-8.608,5.289-8.472,5.523s8.589-5.17,8.681-5.012c.036.063-6.869,4.6-6.8,4.721.054.094,8.038-4.873,8.139-4.7.147.254-7.515,4.4-7.444,4.529.163.282,7.758-4.653,7.834-4.523.026.045-6.231,4.026-6.126,4.208.148.256,6.995-4.19,7.06-4.076.11.191-7.251,4.106-7.174,4.239s7.175-4.224,7.21-4.163c.125.216-7.216,3.976-7.085,4.2.154.265,7.155-4.284,7.221-4.17.027.046-6.075,4.188-6.043,4.244s6.3-3.924,6.422-3.708c.07.12-5.875,3.749-5.823,3.839.106.183,6.344-3.875,6.436-3.716s-5.22,3.363-5.157,3.472c.05.087,5.667-3.571,5.8-3.346.039.067-5.281,3.443-5.234,3.524.035.061,5.716-3.529,5.815-3.357.08.139-4.6,3.45-4.571,3.5.092.159,5.757-3.492,5.829-3.366s-5.862,3.493-5.841,3.531c.056.1,5.894-3.575,5.969-3.446.095.164-5.193,3.179-5.091,3.356.092.16,5.541-3.349,5.606-3.237.1.171-4.559,3.455-4.53,3.5s5.072-3.171,5.177-2.989c.059.1-4.969,3.211-4.953,3.239.117.2,5.362-3.264,5.435-3.138.088.151-4.659,3.181-4.592,3.3.059.1,4.923-3,4.991-2.881.043.074-5,2.774-4.947,2.867.109.188,5.02-2.939,5.037-2.908.088.153-4.18,2.985-4.164,3.013.074.128,4.624-2.72,4.646-2.682.07.12-4.047,3.163-4.008,3.232.11.19,4.75-2.928,4.83-2.789.053.093-5.107,2.9-5.055,2.987.077.133,5.327-3.129,5.35-3.089.08.14-3.963,3.035-3.945,3.065.063.108,4.111-2.49,4.161-2.4s-3.623,2.665-3.555,2.783,4.4-2.774,4.5-2.6c.06.105-3.752,2.9-3.725,2.948.1.172,4.314-2.635,4.376-2.526s-4.165,2.7-4.149,2.726c.074.127,4.251-2.65,4.336-2.5.044.077-4.552,2.781-4.536,2.808.074.129,4.6-2.784,4.653-2.687s-4.363,2.4-4.3,2.521c.1.17,4-2.508,4.083-2.357.033.057-3.5,2.662-3.438,2.769.029.051,4.116-2.461,4.152-2.4s-3.524,2.847-3.474,2.933c.087.151,4.2-2.537,4.251-2.454.033.056-4.148,2.831-4.106,2.9.066.115,4.248-2.513,4.274-2.467.078.136-4.146,2.6-4.09,2.7.039.067,4.432-2.775,4.526-2.613.029.049-3.7,2.336-3.674,2.386.053.091,4.058-2.484,4.118-2.378.078.135-3.788,2.97-3.767,3.006.095.164,4.253-2.644,4.334-2.5.027.046-4.241,2.776-4.17,2.9.021.036,4.362-2.713,4.446-2.567.031.054-4.021,3.106-3.975,3.186s3.967-2.454,4.038-2.332c.032.055-3.34,2.709-3.3,2.783.063.11,4.054-2.532,4.137-2.388.067.115-3.974,2.3-3.905,2.417.045.078,4.233-2.572,4.289-2.476.014.025-3.715,2.752-3.647,2.871.094.163,3.485-2.149,3.544-2.046s-3.663,2.362-3.61,2.454c.039.068,4.12-2.466,4.157-2.4.052.089-3.713,2.834-3.645,2.95.018.031,3.976-2.333,3.992-2.3s-3.332,2.177-3.314,2.208c.076.131,3.489-2.048,3.5-2.023.071.123-3.329,2.362-3.307,2.4.082.141,3.829-2.308,3.871-2.235s-4.1,2.328-4.046,2.428,3.847-2.312,3.886-2.244c.062.107-3.73,2.83-3.7,2.876.015.027,3.811-2.324,3.864-2.231s-3.227,2.236-3.158,2.354c.078.135,3.335-1.994,3.365-1.943s-3.457,2.049-3.39,2.167c.029.05,3.674-2.306,3.754-2.167s-3.517,2.814-3.468,2.9c.028.048,4.241-2.591,4.3-2.484.039.067-3.683,2.243-3.618,2.356.081.14,3.65-2.257,3.715-2.145.05.087-4.141,2.513-4.093,2.6.016.027,3.991-2.336,4-2.312.077.133-4.086,2.268-4.023,2.377s3.99-2.442,4.05-2.338c.017.029-3.977,2.6-3.926,2.688.065.113,3.957-2.454,4.03-2.327.049.084-3.517,2.209-3.464,2.3.038.067,3.865-2.411,3.943-2.277.026.045-3.874,3-3.847,3.049s3.961-2.36,3.992-2.305-3.8,2.736-3.759,2.8c.092.159,3.986-2.376,4.019-2.32s-3.26,2.566-3.213,2.647,3.151-2,3.23-1.865c.017.029-3.179,2.565-3.148,2.618.048.083,3.626-2.272,3.7-2.138.063.109-3.517,2.737-3.475,2.81.062.107,3.822-2.249,3.84-2.217.053.092-3.88,2.923-3.846,2.982.085.148,3.791-2.23,3.809-2.2.057.1-3.322,1.933-3.3,1.979.055.095,3.657-2.231,3.709-2.141.071.123-3.349,2.4-3.281,2.513.057.1,3.215-2.038,3.294-1.9.044.077-3.226,2.153-3.187,2.221.082.142,3.823-2.249,3.841-2.218.045.078-4.028,2.755-3.968,2.86.048.082,3.932-2.414,3.995-2.306s-3.9,2.861-3.871,2.917c.045.077,3.565-2.094,3.58-2.067.063.108-3.178,2.655-3.153,2.7s4.112-2.42,4.132-2.385c.047.081-4.349,3.048-4.316,3.105.072.125,3.919-2.3,3.937-2.273.038.065-3.46,2.13-3.393,2.245.081.141,3.537-2.2,3.606-2.082.045.078-3.878,2.884-3.865,2.906.074.129,4.229-2.62,4.306-2.486.026.046-4.371,2.695-4.312,2.8s4.428-2.748,4.511-2.6c.052.089-4.249,2.958-4.188,3.063.025.043,4.325-2.7,4.414-2.548.047.081-3.9,2.682-3.852,2.77.035.06,3.524-2.214,3.6-2.08.027.047-4.295,2.585-4.243,2.674.036.063,4.541-2.714,4.581-2.645s-4.239,2.338-4.176,2.447c.079.137,3.857-2.333,3.9-2.254.013.022-3.608,2.092-3.566,2.165.022.039,3.841-2.374,3.909-2.257.05.087-4.3,2.51-4.279,2.553.034.059,4.225-2.521,4.261-2.46s-4.213,2.559-4.135,2.693c.067.116,3.882-2.368,3.937-2.273s-4.087,2.825-4.018,2.946c.035.06,4.378-2.6,4.409-2.545.046.081-3.949,2.439-3.934,2.466s4.01-2.418,4.055-2.341c.016.028-4.019,2.446-3.956,2.557.073.126,3.895-2.45,3.982-2.3s-4.328,3.135-4.242,3.283c.032.056,3.784-2.3,3.834-2.213s-3.927,2.575-3.846,2.716c.055.1,4.275-2.544,4.308-2.487.024.042-4.515,2.742-4.482,2.8.021.036,4.116-2.43,4.139-2.39s-4.177,2.761-4.131,2.841c.067.117,4.395-2.663,4.449-2.569.075.13-4.206,2.633-4.135,2.757s3.818-2.255,3.84-2.217c.041.07-4.047,3.083-4.033,3.107.088.152,4.543-2.787,4.614-2.664.02.034-4.125,2.944-4.054,3.067.093.162,3.542-2.273,3.641-2.1.05.087-4.021,3.021-3.963,3.121.081.14,4.451-2.695,4.505-2.6.09.155-4.2,3.185-4.143,3.276.071.123,3.985-2.424,4.038-2.331.035.06-3.243,2.554-3.212,2.609s3.219-1.979,3.272-1.889c.035.061-2.126,1.975-2.076,2.062.038.066,2-1.182,2.009-1.16.028.048-1.156,1.251-1.146,1.269s.946-.568.955-.552-.375.46-.371.466.784-.47.791-.457.031.6.034.6.216-.126.217-.125" transform="translate(-108.731 -66.454)" fill="none" stroke="#000" stroke-linecap="round" stroke-linejoin="round" stroke-width="0.992"/>
            <path id="パス_5910" data-name="パス 5910" d="M161.759,122.565c.088.152,3.678-2.255,3.735-2.156.042.072-6.346,4.068-6.273,4.2.1.175,8.876-5.311,8.957-5.172.187.325-10.8,6.318-10.589,6.68.224.388,13.08-7.695,13.142-7.587.274.473-15.017,8.7-14.765,9.138.289.5,15.838-9.873,16.153-9.326s-16.933,9.862-16.747,10.185c.337.585,17.636-10.7,17.861-10.312.358.621-18.162,9.977-17.856,10.506.36.623,18.508-10.92,18.61-10.744.065.112-20.264,11.931-19.985,12.415.133.229,21.785-13.158,22.036-12.723.084.147-23.185,13.8-23.008,14.11.282.489,24.2-14.321,24.348-14.057.441.764-25.013,14.652-24.863,14.911.168.291,25.421-15.034,25.575-14.766.366.634-26.1,14.279-25.746,14.89.389.674,25.67-15.753,26.073-15.054.29.5-26.659,15.461-26.456,15.813.469.813,26.552-16.247,26.949-15.559.321.556-26.947,15.825-26.828,16.031.437.758,27.6-16.341,27.773-16.035.153.264-28.629,16.424-28.369,16.876.162.281,10.995-6.844,11.209-6.472.111.192-11.7,7.106-11.657,7.183.056.1,10.041-6.166,10.2-5.889.2.352-10.109,5.808-9.914,6.147.06.1,8.45-5.062,8.529-4.924.172.3-9.058,5.515-8.98,5.651.112.194,8.253-4.959,8.337-4.813.131.228-9,5.9-8.914,6.05s7.1-4.486,7.268-4.2c.039.068-7.4,4.384-7.3,4.55.071.123,7.123-4.273,7.193-4.153.13.225-7.586,4.378-7.486,4.552.056.1,7.435-4.386,7.476-4.316.1.167-7.847,4.817-7.707,5.06s6.538-3.967,6.621-3.823c.092.16-6.831,4.111-6.806,4.153.034.059,6.77-4.1,6.854-3.957.095.165-6.588,4.284-6.525,4.394.1.181,6.053-3.827,6.2-3.578.119.205-6.833,4.743-6.8,4.8.079.137,6.092-3.754,6.195-3.576.023.04-6.394,3.622-6.335,3.724.049.085,6.054-3.707,6.146-3.548.028.05-5.81,3.485-5.731,3.622.048.084,5.391-3.161,5.412-3.124.044.077-5.853,3.784-5.765,3.937.118.2,5.556-3.276,5.586-3.225.085.148-5.647,4.071-5.614,4.127.091.157,5.554-3.338,5.611-3.239.073.126-6.243,4.168-6.222,4.205.1.175,5.206-3.077,5.237-3.023.07.121-5.172,2.958-5.1,3.085.112.194,5.214-3.147,5.273-3.044s-5.106,3.183-5.081,3.226c.12.208,5.136-3.075,5.184-2.993.074.128-5,2.736-4.919,2.884.067.116,4.771-2.949,4.855-2.8.067.116-5.4,3.506-5.286,3.7.1.167,5.371-3.184,5.407-3.121.066.113-5.528,3.82-5.435,3.981.1.177,5.153-3.044,5.183-2.993s-5.1,3.495-4.993,3.673c.071.123,4.347-2.7,4.431-2.558.073.126-5,3.548-4.949,3.629.028.048,4.616-2.891,4.714-2.722.07.121-4.486,3.183-4.458,3.229.09.156,4.18-2.554,4.241-2.449.046.079-4.175,2.775-4.156,2.807s4.779-2.867,4.826-2.786c.085.148-4.759,3.131-4.7,3.225.071.124,4.637-2.729,4.659-2.691s-5.056,2.918-4.983,3.044c.023.04,4.688-2.925,4.782-2.761.037.064-4.486,2.7-4.434,2.788.1.168,3.969-2.452,4.039-2.332.078.136-4.254,2.581-4.206,2.664.066.113,4.485-2.652,4.512-2.605.055.095-3.66,2.282-3.623,2.346.063.109,3.328-2.01,3.366-1.944.066.113-3.269,1.985-3.217,2.075s3.393-2.106,3.457-2c.014.024-2.761,1.884-2.708,1.977.038.067,2.626-1.6,2.663-1.538.023.04-.766,1.342-.756,1.359.031.053.844-.563.877-.506,0,.008-.753.686-.745.7s.762-.488.783-.452c.005.009-.5.635-.488.658s.62-.376.628-.362-.218.355-.215.362.214-.131.217-.126" transform="translate(-83.429 -66.156)" fill="none" stroke="#000" stroke-linecap="round" stroke-linejoin="round" stroke-width="0.992"/>
            <path id="パス_5911" data-name="パス 5911" d="M209.484,161.7c.146.253,7.506-4.529,7.59-4.382.1.172-5.291,3.71-5.241,3.8.033.057,6.382-3.964,6.5-3.755s-5.794,3.763-5.7,3.923,5.538-3.339,5.6-3.232c.024.042-4.478,3.272-4.43,3.354.037.063,5.319-3.229,5.387-3.11.1.168-4.922,2.964-4.875,3.046.111.191,5.107-3.067,5.158-2.978.017.03-4.038,2.841-3.968,2.962.1.175,4.541-2.726,4.586-2.648.074.127-4.818,2.761-4.767,2.849s4.734-2.789,4.757-2.747c.084.144-4.8,2.681-4.71,2.834.105.183,4.748-2.846,4.793-2.767.019.032-4.173,3.111-4.15,3.151s4.094-2.563,4.181-2.414c.047.082-3.935,2.667-3.9,2.728.074.128,4.229-2.59,4.293-2.479s-3.378,2.349-3.337,2.421,3.657-2.322,3.748-2.164c.027.046-3.539,2.472-3.507,2.528s3.79-2.35,3.861-2.229c.058.1-3.186,2.653-3.163,2.692.067.115,3.975-2.415,4.027-2.325s-4.148,2.518-4.133,2.544c.04.069,4.134-2.511,4.188-2.418.067.117-3.646,2.354-3.573,2.48s3.852-2.333,3.9-2.252c.076.132-3.4,2.8-3.373,2.837s3.537-2.222,3.615-2.087c.044.076-3.64,2.453-3.629,2.474.088.151,3.878-2.365,3.933-2.27.068.118-3.55,2.575-3.5,2.666s3.548-2.167,3.6-2.078c.031.053-3.6,2-3.562,2.067.083.144,3.633-2.129,3.647-2.105.068.119-3.173,2.412-3.16,2.434.057.1,3.345-1.97,3.362-1.941.059.1-3.356,2.778-3.323,2.836.088.152,3.647-2.254,3.712-2.143.042.073-4.022,2.3-3.981,2.367.061.106,4.225-2.482,4.243-2.45.07.121-3.388,2.709-3.373,2.735.051.089,3.169-1.927,3.211-1.855s-3.19,2.431-3.129,2.536,3.629-2.3,3.716-2.145c.054.094-3.68,2.149-3.657,2.191.087.15,3.641-2.227,3.7-2.134" transform="translate(-117.791 -88.459)" fill="none" stroke="#000" stroke-linecap="round" stroke-linejoin="round" stroke-width="0.992"/>
            <path id="パス_5912" data-name="パス 5912" d="M190.824,156.444c.059.1,2.258-1.391,2.3-1.326.027.046-3.942,2.742-3.895,2.824.068.117,5.537-3.322,5.592-3.229.119.207-6.77,4.168-6.637,4.4.15.26,8.545-5.03,8.587-4.957.182.314-9.88,5.93-9.713,6.221.193.334,10.369-6.472,10.58-6.108.2.347-10.924,6.543-10.8,6.753.224.388,11.392-6.924,11.542-6.664.23.4-11.61,6.447-11.414,6.786.238.413,11.958-7.059,12.025-6.942.042.073-13.049,7.991-12.867,8.305.087.151,14.189-8.573,14.354-8.287.055.1-14.986,9.212-14.87,9.412.184.319,15.63-9.253,15.729-9.081.285.493-16.055,9.6-15.958,9.769.109.189,16.257-9.618,16.358-9.444.235.406-16.741,9.168-16.515,9.56.252.436,16.565-10.168,16.827-9.715.187.323-17.078,10.1-16.947,10.322.3.524,16.894-10.345,17.15-9.9.2.349-16.848,10.1-16.773,10.227.281.486,17.322-10.263,17.436-10.066.1.166-17.968,10.492-17.8,10.776.106.183,6.9-4.308,7.041-4.065.07.122-7.314,4.61-7.286,4.659.037.064,6.526-4.013,6.633-3.829.128.221-6.277,3.764-6.155,3.977.041.07,5.258-3.159,5.311-3.067.108.187-5.611,3.592-5.562,3.677.077.133,5.354-3.223,5.412-3.124.085.148-5.659,4.043-5.6,4.139s4.619-2.937,4.736-2.734c.025.044-4.694,2.9-4.632,3.009.05.087,4.762-2.862,4.811-2.777.087.151-5.082,3.007-5.014,3.124.04.07,5.249-3.1,5.278-3.047.067.116-5.38,3.49-5.282,3.66.121.209,5.775-3.506,5.85-3.377s-5.981,3.627-5.959,3.664c.032.056,6.513-3.948,6.594-3.807s-5.682,3.78-5.628,3.875c.115.2,6.732-4.251,6.89-3.978.1.175-5.764,4.137-5.736,4.185.091.158,7.12-4.383,7.238-4.179.026.046-7.315,4.134-7.248,4.251.057.1,7.109-4.349,7.216-4.166.031.053-6.264,3.733-6.178,3.881.057.1,6.563-3.846,6.587-3.8.044.077-5.839,3.775-5.75,3.929.143.248,6.919-4.078,6.955-4.016.081.139-5.313,3.883-5.283,3.936.114.2,7.157-4.3,7.229-4.174s-6.705,4.432-6.682,4.471c.13.225,6.961-4.111,7-4.042.091.156-6.693,3.787-6.6,3.951.146.252,6.993-4.215,7.07-4.082.067.115-6.362,3.895-6.331,3.948.158.273,6.977-4.173,7.04-4.065.1.174-6.811,3.708-6.695,3.909.088.151,6.61-4.072,6.721-3.88.075.13-6.086,3.873-5.962,4.089s7.356-4.359,7.4-4.275c.07.123-6,4.077-5.9,4.251.141.245,7.291-4.3,7.332-4.233.031.054-5.848,3.9-5.731,4.1.1.173,6.589-4.079,6.708-3.873.085.148-5.921,4.064-5.866,4.159.04.069,6.96-4.343,7.1-4.1.088.152-5.736,3.889-5.7,3.948.132.228,6.618-4.026,6.707-3.872.064.111-5.941,3.778-5.916,3.822.059.1,11.649-6.973,11.756-6.788.19.33-10.874,6.508-10.753,6.717.156.271,10.853-6.377,10.9-6.294s-11.094,6.206-10.935,6.48c.049.086,10.591-6.583,10.794-6.232.083.144-10.165,5.83-10.049,6.03.2.351,9.582-5.867,9.728-5.616.179.311-9.9,5.7-9.794,5.89.141.244,10.117-5.976,10.175-5.874.138.239-9.379,5.456-9.287,5.616.144.248,9.016-5.408,9.1-5.256.179.309-9.1,5.142-8.956,5.388.111.193,9.1-5.61,9.254-5.343.041.071-8.667,5.049-8.507,5.325.105.183,8.46-5.12,8.562-4.943.122.211-6.711,4.676-6.659,4.767.138.239,6.808-4.271,6.956-4.016.035.06-6.885,4.106-6.825,4.21.039.068,6.784-4.2,6.906-3.987.046.08-6.116,3.636-6,3.839s5.975-3.643,6.059-3.5c.018.032-5.013,3.464-4.964,3.549.085.148,4.446-2.771,4.534-2.618.057.1-4.275,2.615-4.234,2.685.057.1,4.195-2.474,4.217-2.435.062.108-3.3,2.289-3.267,2.348.018.032,3.656-2.188,3.689-2.13s-3.907,2.241-3.877,2.291c.081.14,3.578-2.253,3.66-2.113.015.027-2.2,1.828-2.183,1.862.05.086,2.321-1.376,2.337-1.349.049.086-2.519,1.658-2.468,1.747s2.628-1.555,2.644-1.526-1.156,1.319-1.126,1.371c.021.036.919-.567.934-.54s-.835.645-.828.657c.024.042.953-.571.962-.556s-.578.426-.571.439c.017.03.226-.173.244-.141.007.011.4.3.409.3s.211-.131.215-.124" transform="translate(-103.844 -86.679)" fill="none" stroke="#000" stroke-linecap="round" stroke-linejoin="round" stroke-width="0.992"/>
          </g>
        </g>
      </g>
      <text id="Homepage" transform="translate(975 2639)" fill="#333" font-size="20" font-family="PlayfairDisplay-Bold, Playfair Display" font-weight="700" letter-spacing="0.05em"><tspan x="0" y="0">Homepage</tspan></text>
      <text id="Graphic" transform="translate(1094 2565)" fill="#333" font-size="13" font-family="PlayfairDisplay-Bold, Playfair Display" font-weight="700"><tspan x="0" y="0">Graphic</tspan></text>
      <text id="SEO" transform="translate(906 2623.5)" fill="#333" font-size="13" font-family="PlayfairDisplay-Bold, Playfair Display" font-weight="700"><tspan x="0" y="0">SEO</tspan></text>
      <text id="web_marketing" data-name="web marketing" transform="translate(947 2594)" fill="#333" font-size="14" font-family="PlayfairDisplay-Bold, Playfair Display" font-weight="700"><tspan x="0" y="0">web marketing</tspan></text>
      <text id="HTML" transform="translate(1060 2595.5)" fill="#333" font-size="16" font-family="PlayfairDisplay-Bold, Playfair Display" font-weight="700"><tspan x="0" y="0">HTML</tspan></text>
    </g>
  </g>
</svg>
