<svg id="logo_100th" xmlns="http://www.w3.org/2000/svg" xmlns:xlink="http://www.w3.org/1999/xlink" width="89.178" height="62.243" viewBox="0 0 89.178 62.243">
  <defs>
    <clipPath id="clip-path">
      <rect id="長方形_3066" data-name="長方形 3066" width="89.178" height="62.243" fill="none"/>
    </clipPath>
  </defs>
  <g id="グループ_298" data-name="グループ 298" clip-path="url(#clip-path)">
    <path id="パス_859" data-name="パス 859" d="M173.637,85.334l-1.479,2.623h1.253l-.636,1.109h-1.234l-3.119,5.595a3.9,3.9,0,0,0-.368.791.255.255,0,0,0,.027.218.191.191,0,0,0,.166.091.706.706,0,0,0,.372-.135,8.1,8.1,0,0,0,1.343-1.176l.277.212a7.471,7.471,0,0,1-1.916,1.7,3.5,3.5,0,0,1-1.706.54,1.119,1.119,0,0,1-.919-.334.9.9,0,0,1-.129-.844,6.887,6.887,0,0,1,.639-1.437l2.931-5.218h-1.3l.385-.713a11.873,11.873,0,0,0,2.355-1.061,19.832,19.832,0,0,0,2.56-1.958Z" transform="translate(-93.43 -48.167)" fill="#d6000f"/>
    <path id="パス_860" data-name="パス 860" d="M187.094,80.552l-4.851,8.69q1.814-1.919,2.581-2.594a9.187,9.187,0,0,1,1.855-1.317,3.064,3.064,0,0,1,1.294-.342.829.829,0,0,1,.736.371,1.178,1.178,0,0,1,.08.989,6.034,6.034,0,0,1-.583,1.3l-2.333,4.108a4.137,4.137,0,0,0-.359.724.19.19,0,0,0,.024.159.151.151,0,0,0,.133.072.464.464,0,0,0,.256-.1,4.793,4.793,0,0,0,.861-.771q.122-.135.388-.405l.315.212a9.18,9.18,0,0,1-2.071,1.881,3.158,3.158,0,0,1-1.536.511,1.03,1.03,0,0,1-.845-.309.817.817,0,0,1-.125-.771,5.888,5.888,0,0,1,.558-1.206l2.3-4.108a3.4,3.4,0,0,0,.282-.617.211.211,0,0,0-.03-.189.19.19,0,0,0-.164-.081,2.316,2.316,0,0,0-1.1.578,19.634,19.634,0,0,0-3.5,3.723l-1.631,2.865h-2.372l6.1-10.9a5.467,5.467,0,0,0,.461-.993.342.342,0,0,0-.089-.376,1,1,0,0,0-.724-.155l.172-.385,3.341-.569Z" transform="translate(-100.054 -45.468)" fill="#d6000f"/>
    <path id="パス_861" data-name="パス 861" d="M109,45.347s5.746,12.866,21.349-5.852c4.892-5.869,6.571-12.209,6.417-15.509-.323-6.939-9.869-7.607-18.365.33,4.206-6.268,16.413-11.547,21.774-8s6.1,12.206-1.649,24-19.657,19.629-27.41,16.165c-4.743-2.119-5.086-8.412-5.086-8.412Z" transform="translate(-59.851 -8.564)" fill="#d6000f"/>
    <path id="パス_862" data-name="パス 862" d="M43.051,0,19.905,40.1a28.87,28.87,0,0,0-2.076,3.982,2.687,2.687,0,0,0,.058,1.745,1.836,1.836,0,0,0,.933,1.163,19.268,19.268,0,0,0,4.044.476l-.76,1.3H0l.76-1.3a16.433,16.433,0,0,0,4.782-.6A7.212,7.212,0,0,0,8.2,45.14,27.888,27.888,0,0,0,11.62,40.1L25.349,16.28q3.139-5.427,3.3-5.744a10.417,10.417,0,0,0,.73-1.726,2.945,2.945,0,0,0-.109-2.52,2.474,2.474,0,0,0-2.251-.934q-.809,0-3.291.281l.145-1.3L41.691,0Z" fill="#d6000f"/>
    <path id="パス_863" data-name="パス 863" d="M47.656,47.852s.489,4.979,4.088,6.9a9.782,9.782,0,0,0,7.334.421c5.69-1.77,10.619-4.536,16.9-11.9,5.311-6.224,8.852-16.045,7.812-21.749-.633-3.472-2.3-5.676-10.425-5.254C84.41,13.374,87.5,18.6,85.7,27.986c-1.869,9.753-8.486,18.827-16.467,24.559-7.508,5.394-13.207,5.4-16.3,4.721-2.084-.455-5.76-2.051-5.283-9.413" transform="translate(-26.876 -8.733)" fill="#f7564d"/>
    <path id="パス_864" data-name="パス 864" d="M52.435,47.781S50.442,57.013,58,56.829c6.912-.169,15.061-6.238,21.018-14.612s10.2-25.655-5.058-20.2c7.222-1.068,11.184,1.489,7.98,11.156a36.83,36.83,0,0,1-4.338,8.2,40.944,40.944,0,0,1-7.452,8.205c-4.571,4.088-9.662,5.914-13.33,5.564-3.595-.343-4.131-3.653-4.384-7.362" transform="translate(-29.463 -11.837)" fill="#f7564d"/>
    <path id="パス_865" data-name="パス 865" d="M65.784,37.722S52.07,57.034,62.749,55.032a19.683,19.683,0,0,0,9.34-5.193,33.882,33.882,0,0,0,5.26-6.048c2.579-3.815,5.818-8.813,5.4-12.757-.506-4.721-7.576-3.653-16.961,6.688,12.139-15.736,20.938-11.957,17.742-2.607C80.885,42.843,73.6,52.39,65.953,55.537c-6.653,2.74-15.623.956-.169-17.815" transform="translate(-32.315 -15.244)" fill="#f7564d"/>
    <path id="パス_866" data-name="パス 866" d="M4.74,130.452H2.091l-.315.73a1.626,1.626,0,0,0-.155.6.5.5,0,0,0,.254.464,2.126,2.126,0,0,0,.736.133v.2H.117v-.2a1.116,1.116,0,0,0,.664-.335,4.457,4.457,0,0,0,.641-1.131L4.1,124.934h.1l2.7,6.149a3.738,3.738,0,0,0,.636,1.1.864.864,0,0,0,.531.2v.2H4.452v-.2H4.6a1.137,1.137,0,0,0,.614-.122.3.3,0,0,0,.122-.254.688.688,0,0,0-.033-.2q-.012-.05-.166-.415Zm-.188-.409-1.117-2.582-1.15,2.582Z" transform="translate(-0.066 -70.52)" fill="#d6000f"/>
    <path id="パス_867" data-name="パス 867" d="M23.018,125.289l3.7,4.65v-3.224a1.525,1.525,0,0,0-.193-.912,1.068,1.068,0,0,0-.89-.31v-.2h2.477v.2a1.876,1.876,0,0,0-.639.158.632.632,0,0,0-.254.315,2.149,2.149,0,0,0-.091.749v6.243h-.188l-5.071-6.243v4.767a1.053,1.053,0,0,0,.3.874,1.087,1.087,0,0,0,.678.226h.177v.2H20.359v-.2a1.205,1.205,0,0,0,.862-.254,1.19,1.19,0,0,0,.243-.846V126.19l-.161-.2a1.453,1.453,0,0,0-.42-.392,1.26,1.26,0,0,0-.525-.1v-.2Z" transform="translate(-11.492 -70.72)" fill="#d6000f"/>
    <path id="パス_868" data-name="パス 868" d="M43.094,125.289l3.7,4.65v-3.224a1.522,1.522,0,0,0-.193-.912,1.068,1.068,0,0,0-.89-.31v-.2h2.477v.2a1.873,1.873,0,0,0-.638.158.627.627,0,0,0-.254.315,2.135,2.135,0,0,0-.091.749v6.243h-.188l-5.071-6.243v4.767a1.052,1.052,0,0,0,.3.874,1.085,1.085,0,0,0,.677.226h.177v.2H40.435v-.2a1.2,1.2,0,0,0,.862-.254,1.188,1.188,0,0,0,.243-.846V126.19l-.161-.2a1.448,1.448,0,0,0-.42-.392,1.258,1.258,0,0,0-.525-.1v-.2Z" transform="translate(-22.824 -70.72)" fill="#d6000f"/>
    <path id="パス_869" data-name="パス 869" d="M64.583,132.582v.2h-3.92v-.2h.249a1.035,1.035,0,0,0,.525-.116.5.5,0,0,0,.221-.265,2.277,2.277,0,0,0,.061-.7v-4.932a2.464,2.464,0,0,0-.061-.719.554.554,0,0,0-.246-.252,1,1,0,0,0-.5-.108h-.249v-.2h3.92v.2h-.249a1.035,1.035,0,0,0-.525.116.527.527,0,0,0-.227.266,2.276,2.276,0,0,0-.061.7V131.5a2.349,2.349,0,0,0,.064.719.572.572,0,0,0,.248.252,1,1,0,0,0,.5.108Z" transform="translate(-34.242 -70.72)" fill="#d6000f"/>
    <path id="パス_870" data-name="パス 870" d="M79.736,125.289v.2a1.214,1.214,0,0,0-.73.437,6.741,6.741,0,0,0-.691,1.3l-2.582,5.728h-.182L72.979,127a7.64,7.64,0,0,0-.622-1.266.893.893,0,0,0-.595-.238v-.2h3.594v.2h-.122a1.258,1.258,0,0,0-.663.122.272.272,0,0,0-.127.243.787.787,0,0,0,.044.235q.044.135.3.727l1.6,3.732,1.482-3.323q.265-.6.326-.807a1.266,1.266,0,0,0,.061-.348.5.5,0,0,0-.088-.293.545.545,0,0,0-.26-.193,1.747,1.747,0,0,0-.63-.094v-.2Z" transform="translate(-40.507 -70.72)" fill="#d6000f"/>
    <path id="パス_871" data-name="パス 871" d="M95.016,125.72v3.052h.149a1.184,1.184,0,0,0,1.034-.448A2.752,2.752,0,0,0,96.609,127h.21v3.926h-.21a2.943,2.943,0,0,0-.279-1.051,1.21,1.21,0,0,0-.5-.551,1.888,1.888,0,0,0-.818-.141V131.3a3.029,3.029,0,0,0,.053.757.454.454,0,0,0,.2.226.919.919,0,0,0,.465.088h.448a2.417,2.417,0,0,0,2.593-1.968h.2l-.338,2.383h-6.48v-.2h.249a1.036,1.036,0,0,0,.525-.116.5.5,0,0,0,.221-.265,2.3,2.3,0,0,0,.061-.7v-4.932a3.954,3.954,0,0,0-.027-.625.53.53,0,0,0-.2-.3.95.95,0,0,0-.575-.155h-.249v-.2h6.276v2.217h-.21a2.7,2.7,0,0,0-.451-1.167,1.666,1.666,0,0,0-.821-.52,4.428,4.428,0,0,0-1.161-.1Z" transform="translate(-52.019 -70.72)" fill="#d6000f"/>
    <path id="パス_872" data-name="パス 872" d="M113.559,129.37v2.1a2.3,2.3,0,0,0,.075.765.54.54,0,0,0,.262.252,1.78,1.78,0,0,0,.7.094v.2h-3.838v-.2a1.733,1.733,0,0,0,.705-.1.563.563,0,0,0,.26-.252,2.283,2.283,0,0,0,.075-.763v-4.866a2.3,2.3,0,0,0-.075-.766.539.539,0,0,0-.263-.252,1.768,1.768,0,0,0-.7-.094v-.2h3.483a7.6,7.6,0,0,1,1.991.188,2,2,0,0,1,1.028.694,1.86,1.86,0,0,1,.4,1.186,1.771,1.771,0,0,1-.6,1.372,2.471,2.471,0,0,1-1.067.514l1.8,2.538a3.871,3.871,0,0,0,.5.614.935.935,0,0,0,.525.188v.2h-2.361l-2.416-3.417Zm0-3.677v3.284h.315a3.534,3.534,0,0,0,1.15-.141,1.151,1.151,0,0,0,.6-.509,1.866,1.866,0,0,0,.218-.96,1.456,1.456,0,0,0-1.692-1.676Z" transform="translate(-62.52 -70.72)" fill="#d6000f"/>
    <path id="パス_873" data-name="パス 873" d="M136.433,124.895l.061,2.5h-.227a2.557,2.557,0,0,0-.787-1.512,1.981,1.981,0,0,0-1.358-.573,1.271,1.271,0,0,0-.893.3.918.918,0,0,0-.329.694.846.846,0,0,0,.116.442,1.886,1.886,0,0,0,.514.514,11.569,11.569,0,0,0,1.2.647,5.332,5.332,0,0,1,1.775,1.222,2.066,2.066,0,0,1,.453,1.316,2.127,2.127,0,0,1-.733,1.618,2.633,2.633,0,0,1-1.86.677,3,3,0,0,1-.669-.072,5.122,5.122,0,0,1-.791-.271,1.2,1.2,0,0,0-.437-.111.543.543,0,0,0-.3.111.769.769,0,0,0-.26.337h-.2V129.9h.2a3.245,3.245,0,0,0,.937,1.822,2.193,2.193,0,0,0,1.5.628,1.4,1.4,0,0,0,.987-.337,1.017,1.017,0,0,0,.226-1.3,1.631,1.631,0,0,0-.429-.473,6.5,6.5,0,0,0-1.017-.583,8.8,8.8,0,0,1-1.471-.857,2.639,2.639,0,0,1-.689-.791,1.967,1.967,0,0,1-.24-.962,2.036,2.036,0,0,1,.658-1.526,2.3,2.3,0,0,1,1.659-.63,2.811,2.811,0,0,1,.708.088,3.521,3.521,0,0,1,.633.247,1.5,1.5,0,0,0,.523.179.3.3,0,0,0,.227-.088,1.021,1.021,0,0,0,.155-.426Z" transform="translate(-74.339 -70.498)" fill="#d6000f"/>
    <path id="パス_874" data-name="パス 874" d="M150.941,130.452h-2.649l-.315.73a1.626,1.626,0,0,0-.155.6.5.5,0,0,0,.254.464,2.126,2.126,0,0,0,.736.133v.2h-2.494v-.2a1.114,1.114,0,0,0,.664-.335,4.457,4.457,0,0,0,.641-1.131l2.682-5.983h.1l2.7,6.149a3.748,3.748,0,0,0,.636,1.1.866.866,0,0,0,.531.2v.2h-3.628v-.2h.149a1.135,1.135,0,0,0,.614-.122.3.3,0,0,0,.122-.254.689.689,0,0,0-.033-.2q-.011-.05-.166-.415Zm-.188-.409-1.117-2.582-1.15,2.582Z" transform="translate(-82.59 -70.52)" fill="#d6000f"/>
    <path id="パス_875" data-name="パス 875" d="M169.472,129.37v2.1a2.3,2.3,0,0,0,.075.765.54.54,0,0,0,.262.252,1.78,1.78,0,0,0,.7.094v.2h-3.838v-.2a1.733,1.733,0,0,0,.705-.1.563.563,0,0,0,.26-.252,2.283,2.283,0,0,0,.075-.763v-4.866a2.3,2.3,0,0,0-.075-.766.539.539,0,0,0-.263-.252,1.768,1.768,0,0,0-.7-.094v-.2h3.483a7.6,7.6,0,0,1,1.991.188,2,2,0,0,1,1.028.694,1.86,1.86,0,0,1,.4,1.186,1.771,1.771,0,0,1-.6,1.372,2.471,2.471,0,0,1-1.067.514l1.8,2.538a3.871,3.871,0,0,0,.5.614.935.935,0,0,0,.525.188v.2H172.38l-2.416-3.417Zm0-3.677v3.284h.315a3.534,3.534,0,0,0,1.15-.141,1.151,1.151,0,0,0,.6-.509,1.866,1.866,0,0,0,.218-.96,1.456,1.456,0,0,0-1.692-1.676Z" transform="translate(-94.08 -70.72)" fill="#d6000f"/>
    <path id="パス_876" data-name="パス 876" d="M194.447,125.289v.2a1.107,1.107,0,0,0-.57.216,5.758,5.758,0,0,0-.873,1.266l-1.626,2.715V131.5a2.46,2.46,0,0,0,.061.721.561.561,0,0,0,.24.249.928.928,0,0,0,.478.108h.42v.2h-4.208v-.2h.392a1.021,1.021,0,0,0,.525-.116.53.53,0,0,0,.227-.266,2.282,2.282,0,0,0,.061-.7V130l-1.764-3.213a4.722,4.722,0,0,0-.741-1.12.934.934,0,0,0-.575-.174v-.2h3.594v.2h-.16a.814.814,0,0,0-.456.094.256.256,0,0,0-.13.2,3.336,3.336,0,0,0,.443,1l1.355,2.483,1.349-2.262a2.994,2.994,0,0,0,.5-1.1.294.294,0,0,0-.144-.249,1.361,1.361,0,0,0-.691-.166v-.2Z" transform="translate(-105.269 -70.72)" fill="#d6000f"/>
    <path id="パス_877" data-name="パス 877" d="M107.007,74.773l-1.489-1.152,2.613-3.288L109.5,71.5Z" transform="translate(-59.56 -39.7)" fill="#f7564d"/>
  </g>
</svg>
