<svg id="レイヤー_1" data-name="レイヤー 1" xmlns="http://www.w3.org/2000/svg" viewBox="0 0 255 54"><defs><style>.cls-1{fill:#f7564d;}</style></defs><path class="cls-1" d="M52,35.35c0-10.73-8.36-19.43-18.72-19.43s-18.72,8.7-18.72,19.43v1.78H9.16V35.34c0-12.51,8.8-22.88,20.36-24.75V8.53h7.22v2c11.69,1.75,20.64,12.19,20.64,24.8v1.79H52Z" transform="translate(0 0)"/><path class="cls-1" d="M0,35.35C0,16.34,14.87.93,33.26.93S66.53,16.34,66.53,35.35v1.79H60.67V35.35C60.67,19.7,48.41,7,33.26,7S5.86,19.71,5.86,35.35v1.78H0Z" transform="translate(0 0)"/><path class="cls-1" d="M33.26,18.72c-8.55,0-15.43,7.44-15.43,16.63v1.78H48.69V35.34C48.69,26.16,41.81,18.72,33.26,18.72ZM24.2,32.05c1.19-4,4.46-7.12,9.06-7.12a9.21,9.21,0,0,1,9.07,7.12Z" transform="translate(0 0)"/><path d="M182.52,44.64,181,46a2.1,2.1,0,0,0-1.59-1.08,1,1,0,0,0-.64.2.65.65,0,0,0-.25.48.84.84,0,0,0,.18.51,13.37,13.37,0,0,0,1.47,1.34c.76.64,1.21,1,1.38,1.21a4.28,4.28,0,0,1,.86,1.17A3,3,0,0,1,182.7,51a2.8,2.8,0,0,1-.89,2.14,3.23,3.23,0,0,1-2.33.85,3.45,3.45,0,0,1-2-.56,4.31,4.31,0,0,1-1.43-1.74l1.68-1c.51.92,1.08,1.38,1.74,1.38a1.28,1.28,0,0,0,.87-.3.9.9,0,0,0,.35-.69,1.17,1.17,0,0,0-.27-.71,7.28,7.28,0,0,0-1.17-1.1,11.84,11.84,0,0,1-2.21-2.15,2.88,2.88,0,0,1-.51-1.52,2.47,2.47,0,0,1,.85-1.87,2.84,2.84,0,0,1,2.06-.79,3.32,3.32,0,0,1,1.5.37A5.62,5.62,0,0,1,182.52,44.64Z" transform="translate(0 0)"/><path d="M184.9,43.22h2V53.73h-2Z" transform="translate(0 0)"/><path d="M189.57,43.22h1.88L196,50.13V43.22h2v10.5h-1.9l-4.53-6.9v6.9h-2V43.22Z" transform="translate(0 0)"/><path d="M210.11,45l-1.42,1.34a4.31,4.31,0,0,0-3.21-1.51,3.52,3.52,0,0,0-3.57,3.57,3.84,3.84,0,0,0,.45,1.88,3.29,3.29,0,0,0,1.3,1.29,3.75,3.75,0,0,0,1.86.46,3.62,3.62,0,0,0,1.59-.32,5.57,5.57,0,0,0,1.58-1.19L210.05,52a7.13,7.13,0,0,1-2.2,1.58,5.94,5.94,0,0,1-2.38.45,5.34,5.34,0,0,1-5.57-5.54,5.37,5.37,0,0,1,.71-2.8,5.23,5.23,0,0,1,2-2,5.79,5.79,0,0,1,2.86-.75,6,6,0,0,1,2.51.55A6.27,6.27,0,0,1,210.11,45Z" transform="translate(0 0)"/><path d="M211.84,43.22h5.75v1.91h-3.77v1.93h3.77V49h-3.77V51.8h3.77v1.93h-5.75Z" transform="translate(0 0)"/><path d="M224.76,43.22h3v10.5h-2V45.06H223.6Z" transform="translate(0 0)"/><path d="M233.33,47.28a1.49,1.49,0,0,1-.38-1,1.45,1.45,0,0,1,.39-1,1.32,1.32,0,0,1,1-.41,1.21,1.21,0,0,1,.93.42,1.4,1.4,0,0,1,.4,1,1.48,1.48,0,0,1-.38,1,1.23,1.23,0,0,1-.94.41A1.33,1.33,0,0,1,233.33,47.28Zm3.44,1.43a8.92,8.92,0,0,0,.66-1.52,3,3,0,0,0,.16-1,3.22,3.22,0,0,0-1-2.28,3.28,3.28,0,0,0-4.68,0,3.19,3.19,0,0,0-1,2.34,3.25,3.25,0,0,0,.94,2.38,3.09,3.09,0,0,0,2.29,1l-1.83,3.59,1.67.83Z" transform="translate(0 0)"/><path d="M241.31,46.6h-1.95a3.86,3.86,0,0,1,1.07-2.68,3.47,3.47,0,0,1,2.55-1,3.4,3.4,0,0,1,1.68.41,3,3,0,0,1,1.18,1.17,3.18,3.18,0,0,1,.45,1.55,4.66,4.66,0,0,1-.54,2,11,11,0,0,1-2,2.56l-1.18,1.24h3.75v1.84h-7.29v-.95l3.24-3.32a9.81,9.81,0,0,0,1.58-1.93,2.87,2.87,0,0,0,.38-1.31,1.35,1.35,0,0,0-.4-1,1.45,1.45,0,0,0-1-.4,1.37,1.37,0,0,0-1.06.48A2.11,2.11,0,0,0,241.31,46.6Z" transform="translate(0 0)"/><path d="M250,46.6h-2a3.86,3.86,0,0,1,1.08-2.68,3.75,3.75,0,0,1,4.23-.57,3,3,0,0,1,1.17,1.17,3.06,3.06,0,0,1,.44,1.54,4.72,4.72,0,0,1-.53,2,11.43,11.43,0,0,1-1.95,2.55l-1.18,1.24H255v1.84h-7.29v-1L251,49.45a9.33,9.33,0,0,0,1.57-1.93,2.78,2.78,0,0,0,.39-1.31,1.35,1.35,0,0,0-.4-1,1.45,1.45,0,0,0-1-.4,1.38,1.38,0,0,0-1.07.48A2,2,0,0,0,250,46.6Z" transform="translate(0 0)"/><path class="cls-1" d="M255,35.79a1.87,1.87,0,1,1-1.86-1.86A1.86,1.86,0,0,1,255,35.79Z" transform="translate(0 0)"/><path d="M88.54,2.41A2.42,2.42,0,1,1,86.12,0,2.41,2.41,0,0,1,88.54,2.41Z" transform="translate(0 0)"/><path d="M148.28,34.45A8,8,0,0,1,142.4,32a8.17,8.17,0,0,1-2.28-6,11,11,0,0,1,1.32-5.36,9.54,9.54,0,0,1,3.78-3.83,10.47,10.47,0,0,1,5.24-1.4,8.14,8.14,0,0,1,4,1.05,7.19,7.19,0,0,1,2.85,2.91,9,9,0,0,1,1,4.3A11.27,11.27,0,0,1,157,29.13a9.86,9.86,0,0,1-2.85,3.33h4.06a13.29,13.29,0,0,0,1.32-1.89,13.45,13.45,0,0,0,1.78-6.81A11.77,11.77,0,0,0,159.93,18,10.05,10.05,0,0,0,156,14.05a10.72,10.72,0,0,0-5.47-1.44,13.28,13.28,0,0,0-6.74,1.79,13,13,0,0,0-4.89,4.94,13.74,13.74,0,0,0-1.78,6.89,10.62,10.62,0,0,0,3,7.82c.14.15.28.27.42.4H118.73l1.21-9.06L126,32a1.45,1.45,0,0,0,2.13-2l-5.34-5.78L133,16.41a1.45,1.45,0,1,0-1.77-2.29l-10.87,8.4,2.14-16.06a1.45,1.45,0,1,0-2.87-.39l-3.81,28.38H95.53l1.22-9.06,6.1,6.6a1.45,1.45,0,0,0,2,.08,1.43,1.43,0,0,0,.08-2l-5.34-5.78,10.15-7.83a1.45,1.45,0,1,0-1.78-2.3l-10.87,8.4L99.28,6.46a1.45,1.45,0,1,0-2.87-.39L92.6,34.45H83.26l3.37-25a1.45,1.45,0,0,0-2.88-.38L80.33,34.45H72.86a1.34,1.34,0,0,0-1.35,1.34,1.36,1.36,0,0,0,1.35,1.35h155a1.57,1.57,0,0,0,1.52-1.34,1.18,1.18,0,0,0-1.19-1.34A7.83,7.83,0,0,1,220,26.17,10.47,10.47,0,0,1,223,18.53a9.93,9.93,0,0,1,7.35-3.12,8.11,8.11,0,0,1,5.95,2.27,7.93,7.93,0,0,1,2.28,5.88L237.12,33l-.19,1.43-.36,2.68h10.86a1.34,1.34,0,1,0,0-2.68H240l2.65-19.52a1.52,1.52,0,1,0-3-.41l-.41,3.13a9.93,9.93,0,0,0-3.71-3.81,10.34,10.34,0,0,0-5.12-1.23,12.85,12.85,0,0,0-9.38,4,13.17,13.17,0,0,0-4,9.58A10.75,10.75,0,0,0,220,34.07l.43.38H190.75l1-7.4a21.64,21.64,0,0,1,1.71-6.62,8.44,8.44,0,0,1,3.14-3.3,8.11,8.11,0,0,1,4.29-1.23,5.38,5.38,0,0,1,4,1.49,5.26,5.26,0,0,1,1.5,3.89,33.41,33.41,0,0,1-.39,5.15l-.58,4.39a1.44,1.44,0,0,0,1.24,1.63,1.46,1.46,0,0,0,1.63-1.25l.65-4.77a41.28,41.28,0,0,0,.45-5.26,7.74,7.74,0,0,0-2.24-5.75,7.9,7.9,0,0,0-5.78-2.21c-3.09,0-5.84,1.41-8.25,4.2l1.47-10.95a1.45,1.45,0,1,0-2.88-.39l-3.85,28.37H178a6.41,6.41,0,0,0,1.37-4.11,6.75,6.75,0,0,0-1.06-3.75,15.74,15.74,0,0,0-4.44-3.78,12.51,12.51,0,0,1-3-2.33,2.75,2.75,0,0,1,.44-4,3.78,3.78,0,0,1,2.66-1A5.14,5.14,0,0,1,177.67,17a1.41,1.41,0,0,0,2-.14,1.43,1.43,0,0,0-.14-2,7.83,7.83,0,0,0-2.06-1.55,7.19,7.19,0,0,0-3.2-.71,7,7,0,0,0-5,1.83,5.79,5.79,0,0,0-2,4.41,5.07,5.07,0,0,0,.92,3,16.24,16.24,0,0,0,3.87,3.34,18.42,18.42,0,0,1,3.36,2.61,3.93,3.93,0,0,1,1,2.51,3.86,3.86,0,0,1-1.29,2.84,4.4,4.4,0,0,1-3,1.33Z" transform="translate(0 0)"/></svg>