<svg xmlns="http://www.w3.org/2000/svg" width="286" height="256" viewBox="0 0 286 256">
  <g id="point" transform="translate(-1114 -653)">
    <ellipse id="楕円形_124" data-name="楕円形 124" cx="81" cy="81.5" rx="81" ry="81.5" transform="translate(1238 746)" fill="#f7564d" style="mix-blend-mode: multiply;isolation: isolate"/>
    <circle id="楕円形_125" data-name="楕円形 125" cx="81.5" cy="81.5" r="81.5" transform="translate(1114 746)" fill="#f0353c" style="mix-blend-mode: multiply;isolation: isolate"/>
    <g id="楕円形_123" data-name="楕円形 123" transform="translate(1177 653)" fill="#d6000f" stroke="#d6000f" stroke-width="2" style="mix-blend-mode: multiply;isolation: isolate">
      <circle cx="81.5" cy="81.5" r="81.5" stroke="none"/>
      <circle cx="81.5" cy="81.5" r="80.5" fill="none"/>
    </g>
    <path id="パス_6228" data-name="パス 6228" d="M-26.628-9.492v-.714h2c1.008,0,1.743.021,2.079.063v-2.226a13.955,13.955,0,0,1-2.1.126h-1.974v-2.436a13.693,13.693,0,0,1,.126-1.827h-2.373a14.5,14.5,0,0,1,.1,1.827v2.436h-5.544v-2.415a11.318,11.318,0,0,1,.126-1.68h-2.373a11.524,11.524,0,0,1,.126,1.68v2.415h-2.058a13.055,13.055,0,0,1-2.184-.168v2.289c.336-.042,1.2-.084,2.184-.084h2.058v3.15c0,.882-.084,1.743-.1,2.037h2.331a18.672,18.672,0,0,1-.1-2.037v-3.15h5.544v.84c0,5.565-1.848,7.371-5.775,8.82l1.785,1.68C-27.846-1.071-26.628-4.074-26.628-9.492Zm7.665.126v2.6c.714-.063,1.974-.1,3.129-.1H-4.41c.924,0,1.89.084,2.352.1v-2.6c-.525.042-1.344.126-2.352.126H-15.834C-16.968-9.24-18.27-9.324-18.963-9.366Zm34.356-7.329-1.365.567a25.257,25.257,0,0,1,1.68,2.9l1.365-.588A30.24,30.24,0,0,0,15.393-16.695Zm2.373-.882-1.344.567a19.564,19.564,0,0,1,1.7,2.877l1.365-.588A25.785,25.785,0,0,0,17.766-17.577ZM6.111-15.918H3.654A12.534,12.534,0,0,1,3.8-13.986V-2.5C3.8-.735,4.767.1,6.468.42A22.883,22.883,0,0,0,9.912.63,61.5,61.5,0,0,0,17.283.21V-2.2a35.071,35.071,0,0,1-7.245.693,18.109,18.109,0,0,1-2.625-.147c-.987-.21-1.428-.462-1.428-1.47V-7.413a81.175,81.175,0,0,0,8.421-2.646c.672-.252,1.512-.63,2.2-.9l-.924-2.121a11.6,11.6,0,0,1-2.037,1.029A57.665,57.665,0,0,1,5.985-9.6v-4.389A19.055,19.055,0,0,1,6.111-15.918Zm32,1.785L36.75-15.141a6.37,6.37,0,0,1-1.827.21H27.132a22.468,22.468,0,0,1-2.289-.147V-12.7c.336-.021,1.47-.126,2.289-.126h7.707A17.277,17.277,0,0,1,31.5-7.287a23.6,23.6,0,0,1-8.631,6.153L24.57.651A27.568,27.568,0,0,0,32.655-5.4,47.128,47.128,0,0,1,38.22.735L40.068-.9a55.818,55.818,0,0,0-6.006-6.153,28.743,28.743,0,0,0,3.444-5.985A7.249,7.249,0,0,1,38.115-14.133Zm-96.327,26.3v2.163c.588-.042,1.344-.063,2.016-.063h8.148c.714,0,1.554.021,2.079.063V12.166a20.062,20.062,0,0,1-2.058.105H-56.2A19.21,19.21,0,0,1-58.212,12.166Zm13.9,5.775-1.491-.924a4.167,4.167,0,0,1-1.344.189H-57.9c-.609,0-1.407-.063-2.226-.147v2.184c.8-.063,1.722-.084,2.226-.084h10.689a9.9,9.9,0,0,1-2.331,4.2,14.128,14.128,0,0,1-7.35,3.78l1.638,1.89a15.517,15.517,0,0,0,7.518-4.473,14.859,14.859,0,0,0,3.087-5.88A3.688,3.688,0,0,1-44.31,17.941Zm3.906,2.226,1.029,2.079a42.966,42.966,0,0,0,7.749-3.255V26.3a24.335,24.335,0,0,1-.126,2.478h2.6A15.792,15.792,0,0,1-29.3,26.3V17.584a35.425,35.425,0,0,0,5.649-4.6l-1.764-1.68a25.922,25.922,0,0,1-5.838,5A34.678,34.678,0,0,1-40.4,20.167Zm24.3-7.812-1.533,1.638a45.549,45.549,0,0,1,5.25,4.452l1.659-1.7A44.067,44.067,0,0,0-16.107,12.355ZM-18.27,26.4l1.407,2.163A23.154,23.154,0,0,0-8.82,25.438a21.472,21.472,0,0,0,7.371-7.6L-2.73,15.547a19.994,19.994,0,0,1-7.287,7.917A21.82,21.82,0,0,1-18.27,26.4Zm28.2-12.558v2.583H4.074A18.555,18.555,0,0,1,1.953,16.3v2.31a20.547,20.547,0,0,1,2.163-.084H9.933c-.1,3.969-1.659,7.035-5.691,8.9L6.3,28.966c4.368-2.583,5.817-6.006,5.9-10.437h5.187c.735,0,1.659.021,2.037.063V16.324a15.423,15.423,0,0,1-2.016.1H12.2V13.846a19.294,19.294,0,0,1,.147-2.268H9.7A10.91,10.91,0,0,1,9.933,13.846Zm21.42,1.89-1.974.651a38.406,38.406,0,0,1,1.68,4.62l1.974-.714C32.76,19.369,31.731,16.618,31.353,15.736Zm7.665,1.344-2.31-.735a14.575,14.575,0,0,1-2.793,7.182,14.311,14.311,0,0,1-6.888,4.431l1.743,1.785a16.273,16.273,0,0,0,6.909-5.082,16.834,16.834,0,0,0,2.94-6.342C38.7,17.983,38.829,17.6,39.018,17.08ZM26.46,16.828l-1.974.714A42.889,42.889,0,0,1,26.4,22.33l2-.735C27.993,20.44,26.943,17.794,26.46,16.828ZM58.9,12.775a1.327,1.327,0,0,1,1.3-1.323,1.345,1.345,0,0,1,1.323,1.323,1.327,1.327,0,0,1-1.323,1.3A1.309,1.309,0,0,1,58.9,12.775Zm-1.113,0a2.607,2.607,0,0,0,.063.567,7.129,7.129,0,0,1-.9.042H46.767c-.693,0-1.68-.084-2.268-.147v2.352c.546-.042,1.386-.084,2.268-.084H57.1a15.216,15.216,0,0,1-2.625,6.447,14.091,14.091,0,0,1-8.211,5l1.806,1.974a16.333,16.333,0,0,0,8.337-5.691,21.394,21.394,0,0,0,3.15-7.707c.021-.126.063-.273.084-.4a2.607,2.607,0,0,0,.567.063,2.415,2.415,0,1,0-2.415-2.415Z" transform="translate(1256 722)" fill="#fff"/>
    <path id="パス_6229" data-name="パス 6229" d="M-33.537-7.9a12.427,12.427,0,0,1-4.221,4.452A12.257,12.257,0,0,1-41.748-7.9Zm1.449-2.016-.336.084h-4.431V-12.7h7.833v-1.932h-7.833v-2.982h-2.016v2.982h-7.77V-12.7h7.77v2.877h-6.8V-7.9h3.507l-1.449.5a15.2,15.2,0,0,0,3.969,4.977A28.19,28.19,0,0,1-47.481-.231a7.115,7.115,0,0,1,1.092,1.869,28.264,28.264,0,0,0,8.526-2.793,22.817,22.817,0,0,0,8.5,2.856,9.16,9.16,0,0,1,1.239-1.89,23.438,23.438,0,0,1-7.812-2.184,14.687,14.687,0,0,0,5.208-6.72Zm27.006-7.581a73.635,73.635,0,0,1-10.5,1.008,6.38,6.38,0,0,1,.441,1.491A68.472,68.472,0,0,0-3.99-16.044Zm-3.759,5.019c-.105-.651-.357-1.785-.588-2.646l-1.554.273c.21.882.441,2.058.525,2.751Zm-6.825,6.132-.273-1.785c-.651.21-1.344.4-1.995.588v-4.179h2.1v-1.806h-2.1V-17.6h-1.785v4.074h-2.436v1.806h2.436v4.725c-.987.273-1.911.525-2.646.714l.315,1.932,2.331-.735V-.5c0,.294-.1.357-.378.357-.231.021-1.008.021-1.848,0a6.234,6.234,0,0,1,.525,1.806,5.9,5.9,0,0,0,2.73-.378c.567-.294.756-.819.756-1.785V-5.628Zm8.988,1.533A7.4,7.4,0,0,1-8.631-2.2a8.926,8.926,0,0,1-2.5-2.6Zm1.134-1.512-.336.042h-5.439c.063-.4.147-.756.21-1.155h7.938V-9.051h-7.707c.063-.462.105-.9.147-1.365H-3.8V-11.97H-6.09c.609-.861,1.26-1.911,1.848-2.877l-1.848-.567A19.8,19.8,0,0,1-7.854-11.97h-5.523l1.2-.42a17.619,17.619,0,0,0-.987-2.457l-1.491.4A19.523,19.523,0,0,1-13.8-11.97h-1.449v1.554h2.625c-.042.441-.084.882-.126,1.365h-2.94v1.617h2.709c-.483,2.9-1.6,5.88-4.494,7.665a5,5,0,0,1,1.281,1.386,10.55,10.55,0,0,0,4.011-5.04A12.527,12.527,0,0,0-10.1-1.155,14.716,14.716,0,0,1-13.965.231,6.768,6.768,0,0,1-12.894,1.7,14.788,14.788,0,0,0-8.61-.1,14.889,14.889,0,0,0-3.948,1.7,7.824,7.824,0,0,1-2.751.063,14.736,14.736,0,0,1-7.14-1.323,10.269,10.269,0,0,0-4.473-5.88ZM5.691-11.865v-2.079H19.4v2.079H13.5v-1.491H11.529v1.491ZM21.8-3.654v-1.7H13.23a11.177,11.177,0,0,0,.252-1.68h5.964V-8.652H13.5v-1.6h6.279v-1.218H21.4v-4.2H13.587V-17.6H11.571v1.932H3.78v4.2H5.565v1.218h5.964v1.6H5.9v1.617h5.607a7.886,7.886,0,0,1-.315,1.68H3.528v1.7H10.29C9.177-2.226,7.1-.9,3.234.084a7.722,7.722,0,0,1,1.2,1.554c4.62-1.323,6.93-3.15,8.064-5.166,1.617,2.9,4.284,4.536,8.379,5.229A7.007,7.007,0,0,1,22.05,0c-3.528-.462-6.069-1.659-7.539-3.654Zm25.578-8.589h-5.04v-.924h4.053v-1.218H42.336v-.9h4.578v-1.26H42.336v-1.071H40.383v1.071H36.015v1.26h4.368v.9H36.519v1.218h3.864v.924H35.448v1.281H47.376ZM29.043-5.607A16.077,16.077,0,0,1,27.867-.693,9.99,9.99,0,0,1,29.3,0,19.15,19.15,0,0,0,30.66-5.334Zm5.4-1.575A9.4,9.4,0,0,1,34.8-5.964l1.512-.672A16.872,16.872,0,0,0,34.4-10.962l-1.386.567c.273.5.546,1.05.8,1.617-.882.042-1.764.084-2.583.147,1.365-1.743,2.877-3.969,4.053-5.838L33.663-15.2a37.821,37.821,0,0,1-2.079,3.612,12.976,12.976,0,0,0-.924-1.134c.756-1.155,1.659-2.835,2.394-4.263l-1.722-.63a25.134,25.134,0,0,1-1.7,3.822c-.189-.189-.378-.378-.567-.546l-.987,1.3a20.11,20.11,0,0,1,2.5,2.961c-.378.546-.777,1.071-1.134,1.533l-1.47.084.1,1.7c.945-.042,2.037-.126,3.192-.189V1.638h1.722V-7.077ZM35.994-2A16.028,16.028,0,0,0,34.9-5.733l-1.407.42A14.932,14.932,0,0,1,34.5-1.533Zm8.442-5.67H38.577V-8.8h5.859Zm0,2.352H38.577V-6.468h5.859Zm0,2.352H38.577V-4.116h5.859Zm1.827-7.1h-9.45V-1.7h2.226A14.383,14.383,0,0,1,34.482.483a9.995,9.995,0,0,1,1.239,1.26,17.463,17.463,0,0,0,5-2.52L39.27-1.7h6.993Zm-3.927,9.3c1.281.8,2.751,1.806,3.57,2.436l1.7-.945C46.641.084,45.024-.9,43.638-1.7Z" transform="translate(1193 836)" fill="#fff"/>
    <path id="パス_6230" data-name="パス 6230" d="M-26.565-17.052c-.147,2.772-.021,12.516-8.421,16.989A6.684,6.684,0,0,1-33.369,1.47,17.431,17.431,0,0,0-25.284-9.87c1.092,4.053,3.423,8.862,8.505,11.319A6.327,6.327,0,0,1-15.288-.189C-23.142-3.8-24.234-13.23-24.423-16.023c.042-.378.042-.735.063-1.029ZM-.609-7.2c-.483-.567-2.5-2.814-3.318-3.612v-.546h2.751V-13.23H-3.927v-4.389H-5.9v4.389h-3.36v1.869h3.108A21.191,21.191,0,0,1-9.912-3.885,10.991,10.991,0,0,1-8.883-2,19.391,19.391,0,0,0-5.9-7.56V1.659h1.974V-8.526a36.651,36.651,0,0,1,2.121,3ZM9.6-13.23H7.518V-17.6H5.46v4.368H-.483v1.869H4.851A22.235,22.235,0,0,1-1.932-3.129,8.312,8.312,0,0,1-.525-1.554,25.091,25.091,0,0,0,5.46-8.631v7.77c0,.378-.147.5-.525.5-.378.021-1.7.021-2.961-.021a9.4,9.4,0,0,1,.693,1.995,10.816,10.816,0,0,0,3.8-.378c.756-.315,1.05-.861,1.05-2.1v-10.5H9.6Zm15.54.063v-4.41H23.079v4.41H16.464v1.995h6.51A13.479,13.479,0,0,1,15.834.189a8.256,8.256,0,0,1,1.512,1.575c5.964-3.528,7.392-8.61,7.707-12.936h6.573c-.357,6.867-.8,9.744-1.512,10.416a1.178,1.178,0,0,1-.966.315c-.525,0-1.806,0-3.192-.126a4.921,4.921,0,0,1,.693,2.016,25.012,25.012,0,0,0,3.339,0A2.555,2.555,0,0,0,31.92.483C32.844-.588,33.243-3.7,33.705-12.2c.021-.273.042-.966.042-.966Z" transform="translate(1321 836)" fill="#fff"/>
  </g>
</svg>
